G04 #@! TF.GenerationSoftware,KiCad,Pcbnew,no-vcs-found-0e71686~58~ubuntu16.04.1*
G04 #@! TF.CreationDate,2017-06-07T16:05:21-04:00*
G04 #@! TF.ProjectId,power_switch_controller_3x2,706F7765725F7377697463685F636F6E,1.0*
G04 #@! TF.FileFunction,Legend,Top*
G04 #@! TF.FilePolarity,Positive*
%FSLAX46Y46*%
G04 Gerber Fmt 4.6, Leading zero omitted, Abs format (unit mm)*
G04 Created by KiCad (PCBNEW no-vcs-found-0e71686~58~ubuntu16.04.1) date Wed Jun  7 16:05:21 2017*
%MOMM*%
%LPD*%
G01*
G04 APERTURE LIST*
%ADD10C,0.100000*%
%ADD11C,0.254000*%
%ADD12C,0.635000*%
%ADD13C,0.381000*%
%ADD14C,0.228600*%
%ADD15C,0.190500*%
%ADD16C,3.556000*%
%ADD17O,1.854200X2.540000*%
%ADD18R,1.854200X2.540000*%
%ADD19O,2.032000X1.524000*%
%ADD20O,1.524000X2.032000*%
%ADD21C,1.930400*%
%ADD22O,4.572000X3.556000*%
%ADD23O,4.064000X5.080000*%
%ADD24O,5.080000X3.556000*%
%ADD25R,1.016000X4.495800*%
%ADD26O,1.651000X2.159000*%
G04 APERTURE END LIST*
D10*
D11*
X137462380Y-91536761D02*
X137414000Y-91488380D01*
X137365619Y-91391619D01*
X137365619Y-91149714D01*
X137414000Y-91052952D01*
X137462380Y-91004571D01*
X137559142Y-90956190D01*
X137655904Y-90956190D01*
X137801047Y-91004571D01*
X138381619Y-91585142D01*
X138381619Y-90956190D01*
X138284857Y-90520761D02*
X138333238Y-90472380D01*
X138381619Y-90520761D01*
X138333238Y-90569142D01*
X138284857Y-90520761D01*
X138381619Y-90520761D01*
X137365619Y-89553142D02*
X137365619Y-90036952D01*
X137849428Y-90085333D01*
X137801047Y-90036952D01*
X137752666Y-89940190D01*
X137752666Y-89698285D01*
X137801047Y-89601523D01*
X137849428Y-89553142D01*
X137946190Y-89504761D01*
X138188095Y-89504761D01*
X138284857Y-89553142D01*
X138333238Y-89601523D01*
X138381619Y-89698285D01*
X138381619Y-89940190D01*
X138333238Y-90036952D01*
X138284857Y-90085333D01*
X138381619Y-89166095D02*
X137704285Y-88633904D01*
X137704285Y-89166095D02*
X138381619Y-88633904D01*
X137365619Y-87763047D02*
X137365619Y-88246857D01*
X137849428Y-88295238D01*
X137801047Y-88246857D01*
X137752666Y-88150095D01*
X137752666Y-87908190D01*
X137801047Y-87811428D01*
X137849428Y-87763047D01*
X137946190Y-87714666D01*
X138188095Y-87714666D01*
X138284857Y-87763047D01*
X138333238Y-87811428D01*
X138381619Y-87908190D01*
X138381619Y-88150095D01*
X138333238Y-88246857D01*
X138284857Y-88295238D01*
X138284857Y-87279238D02*
X138333238Y-87230857D01*
X138381619Y-87279238D01*
X138333238Y-87327619D01*
X138284857Y-87279238D01*
X138381619Y-87279238D01*
X137365619Y-86311619D02*
X137365619Y-86795428D01*
X137849428Y-86843809D01*
X137801047Y-86795428D01*
X137752666Y-86698666D01*
X137752666Y-86456761D01*
X137801047Y-86360000D01*
X137849428Y-86311619D01*
X137946190Y-86263238D01*
X138188095Y-86263238D01*
X138284857Y-86311619D01*
X138333238Y-86360000D01*
X138381619Y-86456761D01*
X138381619Y-86698666D01*
X138333238Y-86795428D01*
X138284857Y-86843809D01*
X140062857Y-91536761D02*
X140111238Y-91585142D01*
X140159619Y-91730285D01*
X140159619Y-91827047D01*
X140111238Y-91972190D01*
X140014476Y-92068952D01*
X139917714Y-92117333D01*
X139724190Y-92165714D01*
X139579047Y-92165714D01*
X139385523Y-92117333D01*
X139288761Y-92068952D01*
X139192000Y-91972190D01*
X139143619Y-91827047D01*
X139143619Y-91730285D01*
X139192000Y-91585142D01*
X139240380Y-91536761D01*
X140111238Y-90714285D02*
X140159619Y-90811047D01*
X140159619Y-91004571D01*
X140111238Y-91101333D01*
X140014476Y-91149714D01*
X139627428Y-91149714D01*
X139530666Y-91101333D01*
X139482285Y-91004571D01*
X139482285Y-90811047D01*
X139530666Y-90714285D01*
X139627428Y-90665904D01*
X139724190Y-90665904D01*
X139820952Y-91149714D01*
X139482285Y-90230476D02*
X140159619Y-90230476D01*
X139579047Y-90230476D02*
X139530666Y-90182095D01*
X139482285Y-90085333D01*
X139482285Y-89940190D01*
X139530666Y-89843428D01*
X139627428Y-89795047D01*
X140159619Y-89795047D01*
X139482285Y-89456380D02*
X139482285Y-89069333D01*
X139143619Y-89311238D02*
X140014476Y-89311238D01*
X140111238Y-89262857D01*
X140159619Y-89166095D01*
X140159619Y-89069333D01*
X140111238Y-88343619D02*
X140159619Y-88440380D01*
X140159619Y-88633904D01*
X140111238Y-88730666D01*
X140014476Y-88779047D01*
X139627428Y-88779047D01*
X139530666Y-88730666D01*
X139482285Y-88633904D01*
X139482285Y-88440380D01*
X139530666Y-88343619D01*
X139627428Y-88295238D01*
X139724190Y-88295238D01*
X139820952Y-88779047D01*
X140159619Y-87859809D02*
X139482285Y-87859809D01*
X139675809Y-87859809D02*
X139579047Y-87811428D01*
X139530666Y-87763047D01*
X139482285Y-87666285D01*
X139482285Y-87569523D01*
X139772571Y-86456761D02*
X139772571Y-85682666D01*
X140159619Y-86069714D02*
X139385523Y-86069714D01*
X141550571Y-92818857D02*
X141550571Y-92044761D01*
X141937619Y-92431809D02*
X141163523Y-92431809D01*
X141937619Y-91512571D02*
X141937619Y-91319047D01*
X141889238Y-91222285D01*
X141840857Y-91173904D01*
X141695714Y-91077142D01*
X141502190Y-91028761D01*
X141115142Y-91028761D01*
X141018380Y-91077142D01*
X140970000Y-91125523D01*
X140921619Y-91222285D01*
X140921619Y-91415809D01*
X140970000Y-91512571D01*
X141018380Y-91560952D01*
X141115142Y-91609333D01*
X141357047Y-91609333D01*
X141453809Y-91560952D01*
X141502190Y-91512571D01*
X141550571Y-91415809D01*
X141550571Y-91222285D01*
X141502190Y-91125523D01*
X141453809Y-91077142D01*
X141357047Y-91028761D01*
X141550571Y-90593333D02*
X141550571Y-89819238D01*
X141260285Y-88900000D02*
X141937619Y-88900000D01*
X140873238Y-89141904D02*
X141598952Y-89383809D01*
X141598952Y-88754857D01*
X141018380Y-88416190D02*
X140970000Y-88367809D01*
X140921619Y-88271047D01*
X140921619Y-88029142D01*
X140970000Y-87932380D01*
X141018380Y-87884000D01*
X141115142Y-87835619D01*
X141211904Y-87835619D01*
X141357047Y-87884000D01*
X141937619Y-88464571D01*
X141937619Y-87835619D01*
X140921619Y-87545333D02*
X141937619Y-87206666D01*
X140921619Y-86868000D01*
X141937619Y-86529333D02*
X140921619Y-86529333D01*
X140921619Y-86287428D01*
X140970000Y-86142285D01*
X141066761Y-86045523D01*
X141163523Y-85997142D01*
X141357047Y-85948761D01*
X141502190Y-85948761D01*
X141695714Y-85997142D01*
X141792476Y-86045523D01*
X141889238Y-86142285D01*
X141937619Y-86287428D01*
X141937619Y-86529333D01*
X141840857Y-84932761D02*
X141889238Y-84981142D01*
X141937619Y-85126285D01*
X141937619Y-85223047D01*
X141889238Y-85368190D01*
X141792476Y-85464952D01*
X141695714Y-85513333D01*
X141502190Y-85561714D01*
X141357047Y-85561714D01*
X141163523Y-85513333D01*
X141066761Y-85464952D01*
X140970000Y-85368190D01*
X140921619Y-85223047D01*
X140921619Y-85126285D01*
X140970000Y-84981142D01*
X141018380Y-84932761D01*
X147676809Y-96979619D02*
X147193000Y-96979619D01*
X147193000Y-95963619D01*
X148015476Y-96979619D02*
X148015476Y-96302285D01*
X148015476Y-95963619D02*
X147967095Y-96012000D01*
X148015476Y-96060380D01*
X148063857Y-96012000D01*
X148015476Y-95963619D01*
X148015476Y-96060380D01*
X148934714Y-96302285D02*
X148934714Y-97124761D01*
X148886333Y-97221523D01*
X148837952Y-97269904D01*
X148741190Y-97318285D01*
X148596047Y-97318285D01*
X148499285Y-97269904D01*
X148934714Y-96931238D02*
X148837952Y-96979619D01*
X148644428Y-96979619D01*
X148547666Y-96931238D01*
X148499285Y-96882857D01*
X148450904Y-96786095D01*
X148450904Y-96495809D01*
X148499285Y-96399047D01*
X148547666Y-96350666D01*
X148644428Y-96302285D01*
X148837952Y-96302285D01*
X148934714Y-96350666D01*
X149418523Y-96979619D02*
X149418523Y-95963619D01*
X149853952Y-96979619D02*
X149853952Y-96447428D01*
X149805571Y-96350666D01*
X149708809Y-96302285D01*
X149563666Y-96302285D01*
X149466904Y-96350666D01*
X149418523Y-96399047D01*
X150192619Y-96302285D02*
X150579666Y-96302285D01*
X150337761Y-95963619D02*
X150337761Y-96834476D01*
X150386142Y-96931238D01*
X150482904Y-96979619D01*
X150579666Y-96979619D01*
X150869952Y-96931238D02*
X150966714Y-96979619D01*
X151160238Y-96979619D01*
X151257000Y-96931238D01*
X151305380Y-96834476D01*
X151305380Y-96786095D01*
X151257000Y-96689333D01*
X151160238Y-96640952D01*
X151015095Y-96640952D01*
X150918333Y-96592571D01*
X150869952Y-96495809D01*
X150869952Y-96447428D01*
X150918333Y-96350666D01*
X151015095Y-96302285D01*
X151160238Y-96302285D01*
X151257000Y-96350666D01*
D12*
X120952380Y-92891428D02*
X122887619Y-92891428D01*
X96822380Y-92891428D02*
X98757619Y-92891428D01*
X120952380Y-78921428D02*
X122887619Y-78921428D01*
X121920000Y-79889047D02*
X121920000Y-77953809D01*
X96822380Y-78921428D02*
X98757619Y-78921428D01*
X97790000Y-79889047D02*
X97790000Y-77953809D01*
D13*
X100457000Y-77270428D02*
X101473000Y-77270428D01*
X100819857Y-78794428D01*
X103795285Y-77270428D02*
X103505000Y-77270428D01*
X103359857Y-77343000D01*
X103287285Y-77415571D01*
X103142142Y-77633285D01*
X103069571Y-77923571D01*
X103069571Y-78504142D01*
X103142142Y-78649285D01*
X103214714Y-78721857D01*
X103359857Y-78794428D01*
X103650142Y-78794428D01*
X103795285Y-78721857D01*
X103867857Y-78649285D01*
X103940428Y-78504142D01*
X103940428Y-78141285D01*
X103867857Y-77996142D01*
X103795285Y-77923571D01*
X103650142Y-77851000D01*
X103359857Y-77851000D01*
X103214714Y-77923571D01*
X103142142Y-77996142D01*
X103069571Y-78141285D01*
X106407857Y-77270428D02*
X105682142Y-77270428D01*
X105609571Y-77996142D01*
X105682142Y-77923571D01*
X105827285Y-77851000D01*
X106190142Y-77851000D01*
X106335285Y-77923571D01*
X106407857Y-77996142D01*
X106480428Y-78141285D01*
X106480428Y-78504142D01*
X106407857Y-78649285D01*
X106335285Y-78721857D01*
X106190142Y-78794428D01*
X105827285Y-78794428D01*
X105682142Y-78721857D01*
X105609571Y-78649285D01*
X108875285Y-77778428D02*
X108875285Y-78794428D01*
X108512428Y-77197857D02*
X108149571Y-78286428D01*
X109093000Y-78286428D01*
X110617000Y-77270428D02*
X111560428Y-77270428D01*
X111052428Y-77851000D01*
X111270142Y-77851000D01*
X111415285Y-77923571D01*
X111487857Y-77996142D01*
X111560428Y-78141285D01*
X111560428Y-78504142D01*
X111487857Y-78649285D01*
X111415285Y-78721857D01*
X111270142Y-78794428D01*
X110834714Y-78794428D01*
X110689571Y-78721857D01*
X110617000Y-78649285D01*
X113229571Y-77415571D02*
X113302142Y-77343000D01*
X113447285Y-77270428D01*
X113810142Y-77270428D01*
X113955285Y-77343000D01*
X114027857Y-77415571D01*
X114100428Y-77560714D01*
X114100428Y-77705857D01*
X114027857Y-77923571D01*
X113157000Y-78794428D01*
X114100428Y-78794428D01*
X116640428Y-78794428D02*
X115769571Y-78794428D01*
X116205000Y-78794428D02*
X116205000Y-77270428D01*
X116059857Y-77488142D01*
X115914714Y-77633285D01*
X115769571Y-77705857D01*
X100457000Y-101400428D02*
X101473000Y-101400428D01*
X100819857Y-102924428D01*
X103795285Y-101400428D02*
X103505000Y-101400428D01*
X103359857Y-101473000D01*
X103287285Y-101545571D01*
X103142142Y-101763285D01*
X103069571Y-102053571D01*
X103069571Y-102634142D01*
X103142142Y-102779285D01*
X103214714Y-102851857D01*
X103359857Y-102924428D01*
X103650142Y-102924428D01*
X103795285Y-102851857D01*
X103867857Y-102779285D01*
X103940428Y-102634142D01*
X103940428Y-102271285D01*
X103867857Y-102126142D01*
X103795285Y-102053571D01*
X103650142Y-101981000D01*
X103359857Y-101981000D01*
X103214714Y-102053571D01*
X103142142Y-102126142D01*
X103069571Y-102271285D01*
X106407857Y-101400428D02*
X105682142Y-101400428D01*
X105609571Y-102126142D01*
X105682142Y-102053571D01*
X105827285Y-101981000D01*
X106190142Y-101981000D01*
X106335285Y-102053571D01*
X106407857Y-102126142D01*
X106480428Y-102271285D01*
X106480428Y-102634142D01*
X106407857Y-102779285D01*
X106335285Y-102851857D01*
X106190142Y-102924428D01*
X105827285Y-102924428D01*
X105682142Y-102851857D01*
X105609571Y-102779285D01*
X108875285Y-101908428D02*
X108875285Y-102924428D01*
X108512428Y-101327857D02*
X108149571Y-102416428D01*
X109093000Y-102416428D01*
X110617000Y-101400428D02*
X111560428Y-101400428D01*
X111052428Y-101981000D01*
X111270142Y-101981000D01*
X111415285Y-102053571D01*
X111487857Y-102126142D01*
X111560428Y-102271285D01*
X111560428Y-102634142D01*
X111487857Y-102779285D01*
X111415285Y-102851857D01*
X111270142Y-102924428D01*
X110834714Y-102924428D01*
X110689571Y-102851857D01*
X110617000Y-102779285D01*
X113229571Y-101545571D02*
X113302142Y-101473000D01*
X113447285Y-101400428D01*
X113810142Y-101400428D01*
X113955285Y-101473000D01*
X114027857Y-101545571D01*
X114100428Y-101690714D01*
X114100428Y-101835857D01*
X114027857Y-102053571D01*
X113157000Y-102924428D01*
X114100428Y-102924428D01*
X116640428Y-102924428D02*
X115769571Y-102924428D01*
X116205000Y-102924428D02*
X116205000Y-101400428D01*
X116059857Y-101618142D01*
X115914714Y-101763285D01*
X115769571Y-101835857D01*
X118672428Y-101400428D02*
X118817571Y-101400428D01*
X118962714Y-101473000D01*
X119035285Y-101545571D01*
X119107857Y-101690714D01*
X119180428Y-101981000D01*
X119180428Y-102343857D01*
X119107857Y-102634142D01*
X119035285Y-102779285D01*
X118962714Y-102851857D01*
X118817571Y-102924428D01*
X118672428Y-102924428D01*
X118527285Y-102851857D01*
X118454714Y-102779285D01*
X118382142Y-102634142D01*
X118309571Y-102343857D01*
X118309571Y-101981000D01*
X118382142Y-101690714D01*
X118454714Y-101545571D01*
X118527285Y-101473000D01*
X118672428Y-101400428D01*
X118672428Y-77270428D02*
X118817571Y-77270428D01*
X118962714Y-77343000D01*
X119035285Y-77415571D01*
X119107857Y-77560714D01*
X119180428Y-77851000D01*
X119180428Y-78213857D01*
X119107857Y-78504142D01*
X119035285Y-78649285D01*
X118962714Y-78721857D01*
X118817571Y-78794428D01*
X118672428Y-78794428D01*
X118527285Y-78721857D01*
X118454714Y-78649285D01*
X118382142Y-78504142D01*
X118309571Y-78213857D01*
X118309571Y-77851000D01*
X118382142Y-77560714D01*
X118454714Y-77415571D01*
X118527285Y-77343000D01*
X118672428Y-77270428D01*
D14*
X156210000Y-67945000D02*
X85725000Y-67945000D01*
X156210000Y-109855000D02*
X156210000Y-67945000D01*
X85725000Y-109855000D02*
X156210000Y-109855000D01*
X85725000Y-67945000D02*
X85725000Y-109855000D01*
D15*
X92437857Y-104599619D02*
X92437857Y-103583619D01*
X92873285Y-104599619D02*
X92873285Y-104067428D01*
X92824904Y-103970666D01*
X92728142Y-103922285D01*
X92583000Y-103922285D01*
X92486238Y-103970666D01*
X92437857Y-104019047D01*
X93211952Y-103922285D02*
X93599000Y-103922285D01*
X93357095Y-103583619D02*
X93357095Y-104454476D01*
X93405476Y-104551238D01*
X93502238Y-104599619D01*
X93599000Y-104599619D01*
X93792523Y-103922285D02*
X94179571Y-103922285D01*
X93937666Y-103583619D02*
X93937666Y-104454476D01*
X93986047Y-104551238D01*
X94082809Y-104599619D01*
X94179571Y-104599619D01*
X94518238Y-103922285D02*
X94518238Y-104938285D01*
X94518238Y-103970666D02*
X94615000Y-103922285D01*
X94808523Y-103922285D01*
X94905285Y-103970666D01*
X94953666Y-104019047D01*
X95002047Y-104115809D01*
X95002047Y-104406095D01*
X94953666Y-104502857D01*
X94905285Y-104551238D01*
X94808523Y-104599619D01*
X94615000Y-104599619D01*
X94518238Y-104551238D01*
X95389095Y-104551238D02*
X95485857Y-104599619D01*
X95679380Y-104599619D01*
X95776142Y-104551238D01*
X95824523Y-104454476D01*
X95824523Y-104406095D01*
X95776142Y-104309333D01*
X95679380Y-104260952D01*
X95534238Y-104260952D01*
X95437476Y-104212571D01*
X95389095Y-104115809D01*
X95389095Y-104067428D01*
X95437476Y-103970666D01*
X95534238Y-103922285D01*
X95679380Y-103922285D01*
X95776142Y-103970666D01*
X96259952Y-104502857D02*
X96308333Y-104551238D01*
X96259952Y-104599619D01*
X96211571Y-104551238D01*
X96259952Y-104502857D01*
X96259952Y-104599619D01*
X96259952Y-103970666D02*
X96308333Y-104019047D01*
X96259952Y-104067428D01*
X96211571Y-104019047D01*
X96259952Y-103970666D01*
X96259952Y-104067428D01*
X97469476Y-103535238D02*
X96598619Y-104841523D01*
X98533857Y-103535238D02*
X97663000Y-104841523D01*
X99307952Y-103922285D02*
X99307952Y-104744761D01*
X99259571Y-104841523D01*
X99211190Y-104889904D01*
X99114428Y-104938285D01*
X98969285Y-104938285D01*
X98872523Y-104889904D01*
X99307952Y-104551238D02*
X99211190Y-104599619D01*
X99017666Y-104599619D01*
X98920904Y-104551238D01*
X98872523Y-104502857D01*
X98824142Y-104406095D01*
X98824142Y-104115809D01*
X98872523Y-104019047D01*
X98920904Y-103970666D01*
X99017666Y-103922285D01*
X99211190Y-103922285D01*
X99307952Y-103970666D01*
X99791761Y-104599619D02*
X99791761Y-103922285D01*
X99791761Y-103583619D02*
X99743380Y-103632000D01*
X99791761Y-103680380D01*
X99840142Y-103632000D01*
X99791761Y-103583619D01*
X99791761Y-103680380D01*
X100130428Y-103922285D02*
X100517476Y-103922285D01*
X100275571Y-103583619D02*
X100275571Y-104454476D01*
X100323952Y-104551238D01*
X100420714Y-104599619D01*
X100517476Y-104599619D01*
X100856142Y-104599619D02*
X100856142Y-103583619D01*
X101291571Y-104599619D02*
X101291571Y-104067428D01*
X101243190Y-103970666D01*
X101146428Y-103922285D01*
X101001285Y-103922285D01*
X100904523Y-103970666D01*
X100856142Y-104019047D01*
X102210809Y-103922285D02*
X102210809Y-104599619D01*
X101775380Y-103922285D02*
X101775380Y-104454476D01*
X101823761Y-104551238D01*
X101920523Y-104599619D01*
X102065666Y-104599619D01*
X102162428Y-104551238D01*
X102210809Y-104502857D01*
X102694619Y-104599619D02*
X102694619Y-103583619D01*
X102694619Y-103970666D02*
X102791380Y-103922285D01*
X102984904Y-103922285D01*
X103081666Y-103970666D01*
X103130047Y-104019047D01*
X103178428Y-104115809D01*
X103178428Y-104406095D01*
X103130047Y-104502857D01*
X103081666Y-104551238D01*
X102984904Y-104599619D01*
X102791380Y-104599619D01*
X102694619Y-104551238D01*
X103613857Y-104502857D02*
X103662238Y-104551238D01*
X103613857Y-104599619D01*
X103565476Y-104551238D01*
X103613857Y-104502857D01*
X103613857Y-104599619D01*
X104533095Y-104551238D02*
X104436333Y-104599619D01*
X104242809Y-104599619D01*
X104146047Y-104551238D01*
X104097666Y-104502857D01*
X104049285Y-104406095D01*
X104049285Y-104115809D01*
X104097666Y-104019047D01*
X104146047Y-103970666D01*
X104242809Y-103922285D01*
X104436333Y-103922285D01*
X104533095Y-103970666D01*
X105113666Y-104599619D02*
X105016904Y-104551238D01*
X104968523Y-104502857D01*
X104920142Y-104406095D01*
X104920142Y-104115809D01*
X104968523Y-104019047D01*
X105016904Y-103970666D01*
X105113666Y-103922285D01*
X105258809Y-103922285D01*
X105355571Y-103970666D01*
X105403952Y-104019047D01*
X105452333Y-104115809D01*
X105452333Y-104406095D01*
X105403952Y-104502857D01*
X105355571Y-104551238D01*
X105258809Y-104599619D01*
X105113666Y-104599619D01*
X105887761Y-104599619D02*
X105887761Y-103922285D01*
X105887761Y-104019047D02*
X105936142Y-103970666D01*
X106032904Y-103922285D01*
X106178047Y-103922285D01*
X106274809Y-103970666D01*
X106323190Y-104067428D01*
X106323190Y-104599619D01*
X106323190Y-104067428D02*
X106371571Y-103970666D01*
X106468333Y-103922285D01*
X106613476Y-103922285D01*
X106710238Y-103970666D01*
X106758619Y-104067428D01*
X106758619Y-104599619D01*
X107968142Y-103535238D02*
X107097285Y-104841523D01*
X108306809Y-103922285D02*
X108306809Y-104793142D01*
X108258428Y-104889904D01*
X108161666Y-104938285D01*
X108113285Y-104938285D01*
X108306809Y-103583619D02*
X108258428Y-103632000D01*
X108306809Y-103680380D01*
X108355190Y-103632000D01*
X108306809Y-103583619D01*
X108306809Y-103680380D01*
X109226047Y-104599619D02*
X109226047Y-104067428D01*
X109177666Y-103970666D01*
X109080904Y-103922285D01*
X108887380Y-103922285D01*
X108790619Y-103970666D01*
X109226047Y-104551238D02*
X109129285Y-104599619D01*
X108887380Y-104599619D01*
X108790619Y-104551238D01*
X108742238Y-104454476D01*
X108742238Y-104357714D01*
X108790619Y-104260952D01*
X108887380Y-104212571D01*
X109129285Y-104212571D01*
X109226047Y-104164190D01*
X109709857Y-103922285D02*
X109709857Y-104599619D01*
X109709857Y-104019047D02*
X109758238Y-103970666D01*
X109855000Y-103922285D01*
X110000142Y-103922285D01*
X110096904Y-103970666D01*
X110145285Y-104067428D01*
X110145285Y-104599619D01*
X111016142Y-104551238D02*
X110919380Y-104599619D01*
X110725857Y-104599619D01*
X110629095Y-104551238D01*
X110580714Y-104454476D01*
X110580714Y-104067428D01*
X110629095Y-103970666D01*
X110725857Y-103922285D01*
X110919380Y-103922285D01*
X111016142Y-103970666D01*
X111064523Y-104067428D01*
X111064523Y-104164190D01*
X110580714Y-104260952D01*
X111645095Y-104599619D02*
X111548333Y-104551238D01*
X111499952Y-104454476D01*
X111499952Y-103583619D01*
X112032142Y-104599619D02*
X112032142Y-103922285D01*
X112032142Y-103583619D02*
X111983761Y-103632000D01*
X112032142Y-103680380D01*
X112080523Y-103632000D01*
X112032142Y-103583619D01*
X112032142Y-103680380D01*
X112951380Y-104599619D02*
X112951380Y-104067428D01*
X112903000Y-103970666D01*
X112806238Y-103922285D01*
X112612714Y-103922285D01*
X112515952Y-103970666D01*
X112951380Y-104551238D02*
X112854619Y-104599619D01*
X112612714Y-104599619D01*
X112515952Y-104551238D01*
X112467571Y-104454476D01*
X112467571Y-104357714D01*
X112515952Y-104260952D01*
X112612714Y-104212571D01*
X112854619Y-104212571D01*
X112951380Y-104164190D01*
X113435190Y-104212571D02*
X114209285Y-104212571D01*
X114693095Y-104599619D02*
X114693095Y-103922285D01*
X114693095Y-104019047D02*
X114741476Y-103970666D01*
X114838238Y-103922285D01*
X114983380Y-103922285D01*
X115080142Y-103970666D01*
X115128523Y-104067428D01*
X115128523Y-104599619D01*
X115128523Y-104067428D02*
X115176904Y-103970666D01*
X115273666Y-103922285D01*
X115418809Y-103922285D01*
X115515571Y-103970666D01*
X115563952Y-104067428D01*
X115563952Y-104599619D01*
X116192904Y-104599619D02*
X116096142Y-104551238D01*
X116047761Y-104502857D01*
X115999380Y-104406095D01*
X115999380Y-104115809D01*
X116047761Y-104019047D01*
X116096142Y-103970666D01*
X116192904Y-103922285D01*
X116338047Y-103922285D01*
X116434809Y-103970666D01*
X116483190Y-104019047D01*
X116531571Y-104115809D01*
X116531571Y-104406095D01*
X116483190Y-104502857D01*
X116434809Y-104551238D01*
X116338047Y-104599619D01*
X116192904Y-104599619D01*
X117402428Y-104599619D02*
X117402428Y-103583619D01*
X117402428Y-104551238D02*
X117305666Y-104599619D01*
X117112142Y-104599619D01*
X117015380Y-104551238D01*
X116967000Y-104502857D01*
X116918619Y-104406095D01*
X116918619Y-104115809D01*
X116967000Y-104019047D01*
X117015380Y-103970666D01*
X117112142Y-103922285D01*
X117305666Y-103922285D01*
X117402428Y-103970666D01*
X118321666Y-103922285D02*
X118321666Y-104599619D01*
X117886238Y-103922285D02*
X117886238Y-104454476D01*
X117934619Y-104551238D01*
X118031380Y-104599619D01*
X118176523Y-104599619D01*
X118273285Y-104551238D01*
X118321666Y-104502857D01*
X118950619Y-104599619D02*
X118853857Y-104551238D01*
X118805476Y-104454476D01*
X118805476Y-103583619D01*
X119773095Y-104599619D02*
X119773095Y-104067428D01*
X119724714Y-103970666D01*
X119627952Y-103922285D01*
X119434428Y-103922285D01*
X119337666Y-103970666D01*
X119773095Y-104551238D02*
X119676333Y-104599619D01*
X119434428Y-104599619D01*
X119337666Y-104551238D01*
X119289285Y-104454476D01*
X119289285Y-104357714D01*
X119337666Y-104260952D01*
X119434428Y-104212571D01*
X119676333Y-104212571D01*
X119773095Y-104164190D01*
X120256904Y-104599619D02*
X120256904Y-103922285D01*
X120256904Y-104115809D02*
X120305285Y-104019047D01*
X120353666Y-103970666D01*
X120450428Y-103922285D01*
X120547190Y-103922285D01*
X120885857Y-104212571D02*
X121659952Y-104212571D01*
X122579190Y-104599619D02*
X122579190Y-103583619D01*
X122579190Y-104551238D02*
X122482428Y-104599619D01*
X122288904Y-104599619D01*
X122192142Y-104551238D01*
X122143761Y-104502857D01*
X122095380Y-104406095D01*
X122095380Y-104115809D01*
X122143761Y-104019047D01*
X122192142Y-103970666D01*
X122288904Y-103922285D01*
X122482428Y-103922285D01*
X122579190Y-103970666D01*
X123450047Y-104551238D02*
X123353285Y-104599619D01*
X123159761Y-104599619D01*
X123063000Y-104551238D01*
X123014619Y-104454476D01*
X123014619Y-104067428D01*
X123063000Y-103970666D01*
X123159761Y-103922285D01*
X123353285Y-103922285D01*
X123450047Y-103970666D01*
X123498428Y-104067428D01*
X123498428Y-104164190D01*
X123014619Y-104260952D01*
X123837095Y-103922285D02*
X124079000Y-104599619D01*
X124320904Y-103922285D01*
X124707952Y-104599619D02*
X124707952Y-103922285D01*
X124707952Y-103583619D02*
X124659571Y-103632000D01*
X124707952Y-103680380D01*
X124756333Y-103632000D01*
X124707952Y-103583619D01*
X124707952Y-103680380D01*
X125627190Y-104551238D02*
X125530428Y-104599619D01*
X125336904Y-104599619D01*
X125240142Y-104551238D01*
X125191761Y-104502857D01*
X125143380Y-104406095D01*
X125143380Y-104115809D01*
X125191761Y-104019047D01*
X125240142Y-103970666D01*
X125336904Y-103922285D01*
X125530428Y-103922285D01*
X125627190Y-103970666D01*
X126449666Y-104551238D02*
X126352904Y-104599619D01*
X126159380Y-104599619D01*
X126062619Y-104551238D01*
X126014238Y-104454476D01*
X126014238Y-104067428D01*
X126062619Y-103970666D01*
X126159380Y-103922285D01*
X126352904Y-103922285D01*
X126449666Y-103970666D01*
X126498047Y-104067428D01*
X126498047Y-104164190D01*
X126014238Y-104260952D01*
X126885095Y-104551238D02*
X126981857Y-104599619D01*
X127175380Y-104599619D01*
X127272142Y-104551238D01*
X127320523Y-104454476D01*
X127320523Y-104406095D01*
X127272142Y-104309333D01*
X127175380Y-104260952D01*
X127030238Y-104260952D01*
X126933476Y-104212571D01*
X126885095Y-104115809D01*
X126885095Y-104067428D01*
X126933476Y-103970666D01*
X127030238Y-103922285D01*
X127175380Y-103922285D01*
X127272142Y-103970666D01*
D11*
X86311619Y-97294095D02*
X87037333Y-97294095D01*
X87182476Y-97342476D01*
X87279238Y-97439238D01*
X87327619Y-97584380D01*
X87327619Y-97681142D01*
X87327619Y-96374857D02*
X86795428Y-96374857D01*
X86698666Y-96423238D01*
X86650285Y-96520000D01*
X86650285Y-96713523D01*
X86698666Y-96810285D01*
X87279238Y-96374857D02*
X87327619Y-96471619D01*
X87327619Y-96713523D01*
X87279238Y-96810285D01*
X87182476Y-96858666D01*
X87085714Y-96858666D01*
X86988952Y-96810285D01*
X86940571Y-96713523D01*
X86940571Y-96471619D01*
X86892190Y-96374857D01*
X86650285Y-95891047D02*
X87327619Y-95891047D01*
X86747047Y-95891047D02*
X86698666Y-95842666D01*
X86650285Y-95745904D01*
X86650285Y-95600761D01*
X86698666Y-95504000D01*
X86795428Y-95455619D01*
X87327619Y-95455619D01*
X87279238Y-94584761D02*
X87327619Y-94681523D01*
X87327619Y-94875047D01*
X87279238Y-94971809D01*
X87182476Y-95020190D01*
X86795428Y-95020190D01*
X86698666Y-94971809D01*
X86650285Y-94875047D01*
X86650285Y-94681523D01*
X86698666Y-94584761D01*
X86795428Y-94536380D01*
X86892190Y-94536380D01*
X86988952Y-95020190D01*
X87327619Y-93955809D02*
X87279238Y-94052571D01*
X87182476Y-94100952D01*
X86311619Y-94100952D01*
X87327619Y-93568761D02*
X86650285Y-93568761D01*
X86311619Y-93568761D02*
X86360000Y-93617142D01*
X86408380Y-93568761D01*
X86360000Y-93520380D01*
X86311619Y-93568761D01*
X86408380Y-93568761D01*
X87327619Y-92649523D02*
X86795428Y-92649523D01*
X86698666Y-92697904D01*
X86650285Y-92794666D01*
X86650285Y-92988190D01*
X86698666Y-93084952D01*
X87279238Y-92649523D02*
X87327619Y-92746285D01*
X87327619Y-92988190D01*
X87279238Y-93084952D01*
X87182476Y-93133333D01*
X87085714Y-93133333D01*
X86988952Y-93084952D01*
X86940571Y-92988190D01*
X86940571Y-92746285D01*
X86892190Y-92649523D01*
X87327619Y-91391619D02*
X86311619Y-91391619D01*
X87037333Y-91052952D01*
X86311619Y-90714285D01*
X87327619Y-90714285D01*
X87327619Y-90085333D02*
X87279238Y-90182095D01*
X87230857Y-90230476D01*
X87134095Y-90278857D01*
X86843809Y-90278857D01*
X86747047Y-90230476D01*
X86698666Y-90182095D01*
X86650285Y-90085333D01*
X86650285Y-89940190D01*
X86698666Y-89843428D01*
X86747047Y-89795047D01*
X86843809Y-89746666D01*
X87134095Y-89746666D01*
X87230857Y-89795047D01*
X87279238Y-89843428D01*
X87327619Y-89940190D01*
X87327619Y-90085333D01*
X87327619Y-88875809D02*
X86311619Y-88875809D01*
X87279238Y-88875809D02*
X87327619Y-88972571D01*
X87327619Y-89166095D01*
X87279238Y-89262857D01*
X87230857Y-89311238D01*
X87134095Y-89359619D01*
X86843809Y-89359619D01*
X86747047Y-89311238D01*
X86698666Y-89262857D01*
X86650285Y-89166095D01*
X86650285Y-88972571D01*
X86698666Y-88875809D01*
X86650285Y-87956571D02*
X87327619Y-87956571D01*
X86650285Y-88392000D02*
X87182476Y-88392000D01*
X87279238Y-88343619D01*
X87327619Y-88246857D01*
X87327619Y-88101714D01*
X87279238Y-88004952D01*
X87230857Y-87956571D01*
X87327619Y-87327619D02*
X87279238Y-87424380D01*
X87182476Y-87472761D01*
X86311619Y-87472761D01*
X87327619Y-86505142D02*
X86795428Y-86505142D01*
X86698666Y-86553523D01*
X86650285Y-86650285D01*
X86650285Y-86843809D01*
X86698666Y-86940571D01*
X87279238Y-86505142D02*
X87327619Y-86601904D01*
X87327619Y-86843809D01*
X87279238Y-86940571D01*
X87182476Y-86988952D01*
X87085714Y-86988952D01*
X86988952Y-86940571D01*
X86940571Y-86843809D01*
X86940571Y-86601904D01*
X86892190Y-86505142D01*
X87327619Y-86021333D02*
X86650285Y-86021333D01*
X86843809Y-86021333D02*
X86747047Y-85972952D01*
X86698666Y-85924571D01*
X86650285Y-85827809D01*
X86650285Y-85731047D01*
X87327619Y-84618285D02*
X86311619Y-84618285D01*
X86311619Y-84376380D01*
X86360000Y-84231238D01*
X86456761Y-84134476D01*
X86553523Y-84086095D01*
X86747047Y-84037714D01*
X86892190Y-84037714D01*
X87085714Y-84086095D01*
X87182476Y-84134476D01*
X87279238Y-84231238D01*
X87327619Y-84376380D01*
X87327619Y-84618285D01*
X87279238Y-83215238D02*
X87327619Y-83312000D01*
X87327619Y-83505523D01*
X87279238Y-83602285D01*
X87182476Y-83650666D01*
X86795428Y-83650666D01*
X86698666Y-83602285D01*
X86650285Y-83505523D01*
X86650285Y-83312000D01*
X86698666Y-83215238D01*
X86795428Y-83166857D01*
X86892190Y-83166857D01*
X86988952Y-83650666D01*
X86650285Y-82828190D02*
X87327619Y-82586285D01*
X86650285Y-82344380D01*
X87327619Y-81957333D02*
X86650285Y-81957333D01*
X86311619Y-81957333D02*
X86360000Y-82005714D01*
X86408380Y-81957333D01*
X86360000Y-81908952D01*
X86311619Y-81957333D01*
X86408380Y-81957333D01*
X87279238Y-81038095D02*
X87327619Y-81134857D01*
X87327619Y-81328380D01*
X87279238Y-81425142D01*
X87230857Y-81473523D01*
X87134095Y-81521904D01*
X86843809Y-81521904D01*
X86747047Y-81473523D01*
X86698666Y-81425142D01*
X86650285Y-81328380D01*
X86650285Y-81134857D01*
X86698666Y-81038095D01*
X87279238Y-80215619D02*
X87327619Y-80312380D01*
X87327619Y-80505904D01*
X87279238Y-80602666D01*
X87182476Y-80651047D01*
X86795428Y-80651047D01*
X86698666Y-80602666D01*
X86650285Y-80505904D01*
X86650285Y-80312380D01*
X86698666Y-80215619D01*
X86795428Y-80167238D01*
X86892190Y-80167238D01*
X86988952Y-80651047D01*
X88428285Y-97705333D02*
X89444285Y-97705333D01*
X88476666Y-97705333D02*
X88428285Y-97608571D01*
X88428285Y-97415047D01*
X88476666Y-97318285D01*
X88525047Y-97269904D01*
X88621809Y-97221523D01*
X88912095Y-97221523D01*
X89008857Y-97269904D01*
X89057238Y-97318285D01*
X89105619Y-97415047D01*
X89105619Y-97608571D01*
X89057238Y-97705333D01*
X89105619Y-96640952D02*
X89057238Y-96737714D01*
X89008857Y-96786095D01*
X88912095Y-96834476D01*
X88621809Y-96834476D01*
X88525047Y-96786095D01*
X88476666Y-96737714D01*
X88428285Y-96640952D01*
X88428285Y-96495809D01*
X88476666Y-96399047D01*
X88525047Y-96350666D01*
X88621809Y-96302285D01*
X88912095Y-96302285D01*
X89008857Y-96350666D01*
X89057238Y-96399047D01*
X89105619Y-96495809D01*
X89105619Y-96640952D01*
X88428285Y-95963619D02*
X89105619Y-95770095D01*
X88621809Y-95576571D01*
X89105619Y-95383047D01*
X88428285Y-95189523D01*
X89057238Y-94415428D02*
X89105619Y-94512190D01*
X89105619Y-94705714D01*
X89057238Y-94802476D01*
X88960476Y-94850857D01*
X88573428Y-94850857D01*
X88476666Y-94802476D01*
X88428285Y-94705714D01*
X88428285Y-94512190D01*
X88476666Y-94415428D01*
X88573428Y-94367047D01*
X88670190Y-94367047D01*
X88766952Y-94850857D01*
X89105619Y-93931619D02*
X88428285Y-93931619D01*
X88621809Y-93931619D02*
X88525047Y-93883238D01*
X88476666Y-93834857D01*
X88428285Y-93738095D01*
X88428285Y-93641333D01*
X89202380Y-93544571D02*
X89202380Y-92770476D01*
X89057238Y-92576952D02*
X89105619Y-92480190D01*
X89105619Y-92286666D01*
X89057238Y-92189904D01*
X88960476Y-92141523D01*
X88912095Y-92141523D01*
X88815333Y-92189904D01*
X88766952Y-92286666D01*
X88766952Y-92431809D01*
X88718571Y-92528571D01*
X88621809Y-92576952D01*
X88573428Y-92576952D01*
X88476666Y-92528571D01*
X88428285Y-92431809D01*
X88428285Y-92286666D01*
X88476666Y-92189904D01*
X88428285Y-91802857D02*
X89105619Y-91609333D01*
X88621809Y-91415809D01*
X89105619Y-91222285D01*
X88428285Y-91028761D01*
X89105619Y-90641714D02*
X88428285Y-90641714D01*
X88089619Y-90641714D02*
X88138000Y-90690095D01*
X88186380Y-90641714D01*
X88138000Y-90593333D01*
X88089619Y-90641714D01*
X88186380Y-90641714D01*
X88428285Y-90303047D02*
X88428285Y-89916000D01*
X88089619Y-90157904D02*
X88960476Y-90157904D01*
X89057238Y-90109523D01*
X89105619Y-90012761D01*
X89105619Y-89916000D01*
X89057238Y-89141904D02*
X89105619Y-89238666D01*
X89105619Y-89432190D01*
X89057238Y-89528952D01*
X89008857Y-89577333D01*
X88912095Y-89625714D01*
X88621809Y-89625714D01*
X88525047Y-89577333D01*
X88476666Y-89528952D01*
X88428285Y-89432190D01*
X88428285Y-89238666D01*
X88476666Y-89141904D01*
X89105619Y-88706476D02*
X88089619Y-88706476D01*
X89105619Y-88271047D02*
X88573428Y-88271047D01*
X88476666Y-88319428D01*
X88428285Y-88416190D01*
X88428285Y-88561333D01*
X88476666Y-88658095D01*
X88525047Y-88706476D01*
X89202380Y-88029142D02*
X89202380Y-87255047D01*
X89057238Y-86577714D02*
X89105619Y-86674476D01*
X89105619Y-86868000D01*
X89057238Y-86964761D01*
X89008857Y-87013142D01*
X88912095Y-87061523D01*
X88621809Y-87061523D01*
X88525047Y-87013142D01*
X88476666Y-86964761D01*
X88428285Y-86868000D01*
X88428285Y-86674476D01*
X88476666Y-86577714D01*
X89105619Y-85997142D02*
X89057238Y-86093904D01*
X89008857Y-86142285D01*
X88912095Y-86190666D01*
X88621809Y-86190666D01*
X88525047Y-86142285D01*
X88476666Y-86093904D01*
X88428285Y-85997142D01*
X88428285Y-85852000D01*
X88476666Y-85755238D01*
X88525047Y-85706857D01*
X88621809Y-85658476D01*
X88912095Y-85658476D01*
X89008857Y-85706857D01*
X89057238Y-85755238D01*
X89105619Y-85852000D01*
X89105619Y-85997142D01*
X88428285Y-85223047D02*
X89105619Y-85223047D01*
X88525047Y-85223047D02*
X88476666Y-85174666D01*
X88428285Y-85077904D01*
X88428285Y-84932761D01*
X88476666Y-84836000D01*
X88573428Y-84787619D01*
X89105619Y-84787619D01*
X88428285Y-84448952D02*
X88428285Y-84061904D01*
X88089619Y-84303809D02*
X88960476Y-84303809D01*
X89057238Y-84255428D01*
X89105619Y-84158666D01*
X89105619Y-84061904D01*
X89105619Y-83723238D02*
X88428285Y-83723238D01*
X88621809Y-83723238D02*
X88525047Y-83674857D01*
X88476666Y-83626476D01*
X88428285Y-83529714D01*
X88428285Y-83432952D01*
X89105619Y-82949142D02*
X89057238Y-83045904D01*
X89008857Y-83094285D01*
X88912095Y-83142666D01*
X88621809Y-83142666D01*
X88525047Y-83094285D01*
X88476666Y-83045904D01*
X88428285Y-82949142D01*
X88428285Y-82804000D01*
X88476666Y-82707238D01*
X88525047Y-82658857D01*
X88621809Y-82610476D01*
X88912095Y-82610476D01*
X89008857Y-82658857D01*
X89057238Y-82707238D01*
X89105619Y-82804000D01*
X89105619Y-82949142D01*
X89105619Y-82029904D02*
X89057238Y-82126666D01*
X88960476Y-82175047D01*
X88089619Y-82175047D01*
X89105619Y-81497714D02*
X89057238Y-81594476D01*
X88960476Y-81642857D01*
X88089619Y-81642857D01*
X89057238Y-80723619D02*
X89105619Y-80820380D01*
X89105619Y-81013904D01*
X89057238Y-81110666D01*
X88960476Y-81159047D01*
X88573428Y-81159047D01*
X88476666Y-81110666D01*
X88428285Y-81013904D01*
X88428285Y-80820380D01*
X88476666Y-80723619D01*
X88573428Y-80675238D01*
X88670190Y-80675238D01*
X88766952Y-81159047D01*
X89105619Y-80239809D02*
X88428285Y-80239809D01*
X88621809Y-80239809D02*
X88525047Y-80191428D01*
X88476666Y-80143047D01*
X88428285Y-80046285D01*
X88428285Y-79949523D01*
X90206285Y-95939428D02*
X91222285Y-95939428D01*
X90254666Y-95939428D02*
X90206285Y-95842666D01*
X90206285Y-95649142D01*
X90254666Y-95552380D01*
X90303047Y-95504000D01*
X90399809Y-95455619D01*
X90690095Y-95455619D01*
X90786857Y-95504000D01*
X90835238Y-95552380D01*
X90883619Y-95649142D01*
X90883619Y-95842666D01*
X90835238Y-95939428D01*
X90883619Y-94584761D02*
X90351428Y-94584761D01*
X90254666Y-94633142D01*
X90206285Y-94729904D01*
X90206285Y-94923428D01*
X90254666Y-95020190D01*
X90835238Y-94584761D02*
X90883619Y-94681523D01*
X90883619Y-94923428D01*
X90835238Y-95020190D01*
X90738476Y-95068571D01*
X90641714Y-95068571D01*
X90544952Y-95020190D01*
X90496571Y-94923428D01*
X90496571Y-94681523D01*
X90448190Y-94584761D01*
X90883619Y-94100952D02*
X90206285Y-94100952D01*
X90399809Y-94100952D02*
X90303047Y-94052571D01*
X90254666Y-94004190D01*
X90206285Y-93907428D01*
X90206285Y-93810666D01*
X90206285Y-93617142D02*
X90206285Y-93230095D01*
X89867619Y-93472000D02*
X90738476Y-93472000D01*
X90835238Y-93423619D01*
X90883619Y-93326857D01*
X90883619Y-93230095D01*
X90980380Y-93133333D02*
X90980380Y-92359238D01*
X90206285Y-92117333D02*
X90883619Y-92117333D01*
X90303047Y-92117333D02*
X90254666Y-92068952D01*
X90206285Y-91972190D01*
X90206285Y-91827047D01*
X90254666Y-91730285D01*
X90351428Y-91681904D01*
X90883619Y-91681904D01*
X90206285Y-90762666D02*
X90883619Y-90762666D01*
X90206285Y-91198095D02*
X90738476Y-91198095D01*
X90835238Y-91149714D01*
X90883619Y-91052952D01*
X90883619Y-90907809D01*
X90835238Y-90811047D01*
X90786857Y-90762666D01*
X90883619Y-90278857D02*
X90206285Y-90278857D01*
X90303047Y-90278857D02*
X90254666Y-90230476D01*
X90206285Y-90133714D01*
X90206285Y-89988571D01*
X90254666Y-89891809D01*
X90351428Y-89843428D01*
X90883619Y-89843428D01*
X90351428Y-89843428D02*
X90254666Y-89795047D01*
X90206285Y-89698285D01*
X90206285Y-89553142D01*
X90254666Y-89456380D01*
X90351428Y-89408000D01*
X90883619Y-89408000D01*
X90883619Y-88924190D02*
X89867619Y-88924190D01*
X90254666Y-88924190D02*
X90206285Y-88827428D01*
X90206285Y-88633904D01*
X90254666Y-88537142D01*
X90303047Y-88488761D01*
X90399809Y-88440380D01*
X90690095Y-88440380D01*
X90786857Y-88488761D01*
X90835238Y-88537142D01*
X90883619Y-88633904D01*
X90883619Y-88827428D01*
X90835238Y-88924190D01*
X90835238Y-87617904D02*
X90883619Y-87714666D01*
X90883619Y-87908190D01*
X90835238Y-88004952D01*
X90738476Y-88053333D01*
X90351428Y-88053333D01*
X90254666Y-88004952D01*
X90206285Y-87908190D01*
X90206285Y-87714666D01*
X90254666Y-87617904D01*
X90351428Y-87569523D01*
X90448190Y-87569523D01*
X90544952Y-88053333D01*
X90883619Y-87134095D02*
X90206285Y-87134095D01*
X90399809Y-87134095D02*
X90303047Y-87085714D01*
X90254666Y-87037333D01*
X90206285Y-86940571D01*
X90206285Y-86843809D01*
X90786857Y-86505142D02*
X90835238Y-86456761D01*
X90883619Y-86505142D01*
X90835238Y-86553523D01*
X90786857Y-86505142D01*
X90883619Y-86505142D01*
X90254666Y-86505142D02*
X90303047Y-86456761D01*
X90351428Y-86505142D01*
X90303047Y-86553523D01*
X90254666Y-86505142D01*
X90351428Y-86505142D01*
X90883619Y-84715047D02*
X90883619Y-85295619D01*
X90883619Y-85005333D02*
X89867619Y-85005333D01*
X90012761Y-85102095D01*
X90109523Y-85198857D01*
X90157904Y-85295619D01*
X90883619Y-83747428D02*
X90883619Y-84328000D01*
X90883619Y-84037714D02*
X89867619Y-84037714D01*
X90012761Y-84134476D01*
X90109523Y-84231238D01*
X90157904Y-84328000D01*
X90883619Y-82779809D02*
X90883619Y-83360380D01*
X90883619Y-83070095D02*
X89867619Y-83070095D01*
X90012761Y-83166857D01*
X90109523Y-83263619D01*
X90157904Y-83360380D01*
X90883619Y-81812190D02*
X90883619Y-82392761D01*
X90883619Y-82102476D02*
X89867619Y-82102476D01*
X90012761Y-82199238D01*
X90109523Y-82295999D01*
X90157904Y-82392761D01*
X91645619Y-96786095D02*
X91645619Y-96689333D01*
X91694000Y-96592571D01*
X91742380Y-96544190D01*
X91839142Y-96495809D01*
X92032666Y-96447428D01*
X92274571Y-96447428D01*
X92468095Y-96495809D01*
X92564857Y-96544190D01*
X92613238Y-96592571D01*
X92661619Y-96689333D01*
X92661619Y-96786095D01*
X92613238Y-96882857D01*
X92564857Y-96931238D01*
X92468095Y-96979619D01*
X92274571Y-97028000D01*
X92032666Y-97028000D01*
X91839142Y-96979619D01*
X91742380Y-96931238D01*
X91694000Y-96882857D01*
X91645619Y-96786095D01*
X91645619Y-95576571D02*
X91645619Y-95770095D01*
X91694000Y-95866857D01*
X91742380Y-95915238D01*
X91887523Y-96012000D01*
X92081047Y-96060380D01*
X92468095Y-96060380D01*
X92564857Y-96012000D01*
X92613238Y-95963619D01*
X92661619Y-95866857D01*
X92661619Y-95673333D01*
X92613238Y-95576571D01*
X92564857Y-95528190D01*
X92468095Y-95479809D01*
X92226190Y-95479809D01*
X92129428Y-95528190D01*
X92081047Y-95576571D01*
X92032666Y-95673333D01*
X92032666Y-95866857D01*
X92081047Y-95963619D01*
X92129428Y-96012000D01*
X92226190Y-96060380D01*
X91597238Y-94318666D02*
X92903523Y-95189523D01*
X91742380Y-94028380D02*
X91694000Y-93980000D01*
X91645619Y-93883238D01*
X91645619Y-93641333D01*
X91694000Y-93544571D01*
X91742380Y-93496190D01*
X91839142Y-93447809D01*
X91935904Y-93447809D01*
X92081047Y-93496190D01*
X92661619Y-94076761D01*
X92661619Y-93447809D01*
X91645619Y-92818857D02*
X91645619Y-92722095D01*
X91694000Y-92625333D01*
X91742380Y-92576952D01*
X91839142Y-92528571D01*
X92032666Y-92480190D01*
X92274571Y-92480190D01*
X92468095Y-92528571D01*
X92564857Y-92576952D01*
X92613238Y-92625333D01*
X92661619Y-92722095D01*
X92661619Y-92818857D01*
X92613238Y-92915619D01*
X92564857Y-92964000D01*
X92468095Y-93012380D01*
X92274571Y-93060761D01*
X92032666Y-93060761D01*
X91839142Y-93012380D01*
X91742380Y-92964000D01*
X91694000Y-92915619D01*
X91645619Y-92818857D01*
X92661619Y-91512571D02*
X92661619Y-92093142D01*
X92661619Y-91802857D02*
X91645619Y-91802857D01*
X91790761Y-91899619D01*
X91887523Y-91996380D01*
X91935904Y-92093142D01*
X91645619Y-91173904D02*
X91645619Y-90496571D01*
X92661619Y-90932000D01*
X91984285Y-89432190D02*
X92661619Y-89190285D01*
X91984285Y-88948380D01*
X92613238Y-88174285D02*
X92661619Y-88271047D01*
X92661619Y-88464571D01*
X92613238Y-88561333D01*
X92516476Y-88609714D01*
X92129428Y-88609714D01*
X92032666Y-88561333D01*
X91984285Y-88464571D01*
X91984285Y-88271047D01*
X92032666Y-88174285D01*
X92129428Y-88125904D01*
X92226190Y-88125904D01*
X92322952Y-88609714D01*
X92661619Y-87690476D02*
X91984285Y-87690476D01*
X92177809Y-87690476D02*
X92081047Y-87642095D01*
X92032666Y-87593714D01*
X91984285Y-87496952D01*
X91984285Y-87400190D01*
X92661619Y-85755238D02*
X92661619Y-86335809D01*
X92661619Y-86045523D02*
X91645619Y-86045523D01*
X91790761Y-86142285D01*
X91887523Y-86239047D01*
X91935904Y-86335809D01*
X92564857Y-85319809D02*
X92613238Y-85271428D01*
X92661619Y-85319809D01*
X92613238Y-85368190D01*
X92564857Y-85319809D01*
X92661619Y-85319809D01*
X91645619Y-84642476D02*
X91645619Y-84545714D01*
X91694000Y-84448952D01*
X91742380Y-84400571D01*
X91839142Y-84352190D01*
X92032666Y-84303809D01*
X92274571Y-84303809D01*
X92468095Y-84352190D01*
X92564857Y-84400571D01*
X92613238Y-84448952D01*
X92661619Y-84545714D01*
X92661619Y-84642476D01*
X92613238Y-84739238D01*
X92564857Y-84787619D01*
X92468095Y-84836000D01*
X92274571Y-84884380D01*
X92032666Y-84884380D01*
X91839142Y-84836000D01*
X91742380Y-84787619D01*
X91694000Y-84739238D01*
X91645619Y-84642476D01*
X91645619Y-83191047D02*
X91645619Y-82562095D01*
X92032666Y-82900761D01*
X92032666Y-82755619D01*
X92081047Y-82658857D01*
X92129428Y-82610476D01*
X92226190Y-82562095D01*
X92468095Y-82562095D01*
X92564857Y-82610476D01*
X92613238Y-82658857D01*
X92661619Y-82755619D01*
X92661619Y-83045904D01*
X92613238Y-83142666D01*
X92564857Y-83191047D01*
X92661619Y-82223428D02*
X91984285Y-81691238D01*
X91984285Y-82223428D02*
X92661619Y-81691238D01*
X91742380Y-81352571D02*
X91694000Y-81304190D01*
X91645619Y-81207428D01*
X91645619Y-80965523D01*
X91694000Y-80868761D01*
X91742380Y-80820380D01*
X91839142Y-80772000D01*
X91935904Y-80772000D01*
X92081047Y-80820380D01*
X92661619Y-81400952D01*
X92661619Y-80772000D01*
D14*
X132715000Y-71120000D02*
G75*
G03X132715000Y-71120000I-2540000J0D01*
G01*
X132715000Y-106680000D02*
G75*
G03X132715000Y-106680000I-2540000J0D01*
G01*
X92075000Y-101600000D02*
G75*
G03X92075000Y-101600000I-2540000J0D01*
G01*
X92075000Y-76200000D02*
G75*
G03X92075000Y-76200000I-2540000J0D01*
G01*
X148717000Y-105283000D02*
X148717000Y-104267000D01*
X149225000Y-104775000D02*
X148209000Y-104775000D01*
X145415000Y-106045000D02*
X145415000Y-103505000D01*
X145415000Y-103505000D02*
X153035000Y-103505000D01*
X153035000Y-103505000D02*
X153035000Y-106045000D01*
X153035000Y-106045000D02*
X145415000Y-106045000D01*
X120015000Y-92710000D02*
X120015000Y-100330000D01*
X117475000Y-92710000D02*
X120015000Y-92710000D01*
X117475000Y-100330000D02*
X117475000Y-92710000D01*
X120015000Y-100330000D02*
X117475000Y-100330000D01*
X118745000Y-96520000D02*
X118745000Y-97536000D01*
X119253000Y-97028000D02*
X118237000Y-97028000D01*
X116713000Y-97028000D02*
X115697000Y-97028000D01*
X116205000Y-96520000D02*
X116205000Y-97536000D01*
X117475000Y-100330000D02*
X114935000Y-100330000D01*
X114935000Y-100330000D02*
X114935000Y-92710000D01*
X114935000Y-92710000D02*
X117475000Y-92710000D01*
X117475000Y-92710000D02*
X117475000Y-100330000D01*
X114935000Y-92710000D02*
X114935000Y-100330000D01*
X112395000Y-92710000D02*
X114935000Y-92710000D01*
X112395000Y-100330000D02*
X112395000Y-92710000D01*
X114935000Y-100330000D02*
X112395000Y-100330000D01*
X113665000Y-96520000D02*
X113665000Y-97536000D01*
X114173000Y-97028000D02*
X113157000Y-97028000D01*
X111633000Y-97028000D02*
X110617000Y-97028000D01*
X111125000Y-96520000D02*
X111125000Y-97536000D01*
X112395000Y-100330000D02*
X109855000Y-100330000D01*
X109855000Y-100330000D02*
X109855000Y-92710000D01*
X109855000Y-92710000D02*
X112395000Y-92710000D01*
X112395000Y-92710000D02*
X112395000Y-100330000D01*
X109855000Y-92710000D02*
X109855000Y-100330000D01*
X107315000Y-92710000D02*
X109855000Y-92710000D01*
X107315000Y-100330000D02*
X107315000Y-92710000D01*
X109855000Y-100330000D02*
X107315000Y-100330000D01*
X108585000Y-96520000D02*
X108585000Y-97536000D01*
X109093000Y-97028000D02*
X108077000Y-97028000D01*
X106553000Y-97028000D02*
X105537000Y-97028000D01*
X106045000Y-96520000D02*
X106045000Y-97536000D01*
X107315000Y-100330000D02*
X104775000Y-100330000D01*
X104775000Y-100330000D02*
X104775000Y-92710000D01*
X104775000Y-92710000D02*
X107315000Y-92710000D01*
X107315000Y-92710000D02*
X107315000Y-100330000D01*
X104775000Y-92710000D02*
X104775000Y-100330000D01*
X102235000Y-92710000D02*
X104775000Y-92710000D01*
X102235000Y-100330000D02*
X102235000Y-92710000D01*
X104775000Y-100330000D02*
X102235000Y-100330000D01*
X103505000Y-96520000D02*
X103505000Y-97536000D01*
X104013000Y-97028000D02*
X102997000Y-97028000D01*
X101473000Y-97028000D02*
X100457000Y-97028000D01*
X100965000Y-96520000D02*
X100965000Y-97536000D01*
X102235000Y-100330000D02*
X99695000Y-100330000D01*
X99695000Y-100330000D02*
X99695000Y-92710000D01*
X99695000Y-92710000D02*
X102235000Y-92710000D01*
X102235000Y-92710000D02*
X102235000Y-100330000D01*
D13*
X142875000Y-83820000D02*
X142875000Y-93980000D01*
X142875000Y-93980000D02*
X156210000Y-93980000D01*
X142875000Y-83820000D02*
X156210000Y-83820000D01*
X156210000Y-83820000D02*
X156210000Y-93980000D01*
X123825000Y-81153000D02*
X95885000Y-81153000D01*
X95885000Y-81153000D02*
X95885000Y-90297000D01*
X95885000Y-90297000D02*
X123825000Y-90297000D01*
X123825000Y-81153000D02*
X123825000Y-90297000D01*
X118745000Y-81153000D02*
X120015000Y-79883000D01*
X120015000Y-79883000D02*
X117475000Y-79883000D01*
X117475000Y-79883000D02*
X118745000Y-81153000D01*
X154305000Y-98425000D02*
X154305000Y-103505000D01*
X154305000Y-103505000D02*
X144145000Y-103505000D01*
X144145000Y-103505000D02*
X144145000Y-98425000D01*
X144145000Y-98425000D02*
X154305000Y-98425000D01*
D11*
X143213666Y-105234619D02*
X142729857Y-105234619D01*
X142729857Y-104218619D01*
X144084523Y-105234619D02*
X143503952Y-105234619D01*
X143794238Y-105234619D02*
X143794238Y-104218619D01*
X143697476Y-104363761D01*
X143600714Y-104460523D01*
X143503952Y-104508904D01*
X121744619Y-96689333D02*
X121744619Y-97173142D01*
X120728619Y-97173142D01*
X120825380Y-96399047D02*
X120777000Y-96350666D01*
X120728619Y-96253904D01*
X120728619Y-96012000D01*
X120777000Y-95915238D01*
X120825380Y-95866857D01*
X120922142Y-95818476D01*
X121018904Y-95818476D01*
X121164047Y-95866857D01*
X121744619Y-96447428D01*
X121744619Y-95818476D01*
X98884619Y-96689333D02*
X98884619Y-97173142D01*
X97868619Y-97173142D01*
X98884619Y-96302285D02*
X98884619Y-96108761D01*
X98836238Y-96012000D01*
X98787857Y-95963619D01*
X98642714Y-95866857D01*
X98449190Y-95818476D01*
X98062142Y-95818476D01*
X97965380Y-95866857D01*
X97917000Y-95915238D01*
X97868619Y-96012000D01*
X97868619Y-96205523D01*
X97917000Y-96302285D01*
X97965380Y-96350666D01*
X98062142Y-96399047D01*
X98304047Y-96399047D01*
X98400809Y-96350666D01*
X98449190Y-96302285D01*
X98497571Y-96205523D01*
X98497571Y-96012000D01*
X98449190Y-95915238D01*
X98400809Y-95866857D01*
X98304047Y-95818476D01*
X154190095Y-95709619D02*
X154190095Y-94693619D01*
X154577142Y-94693619D01*
X154673904Y-94742000D01*
X154722285Y-94790380D01*
X154770666Y-94887142D01*
X154770666Y-95032285D01*
X154722285Y-95129047D01*
X154673904Y-95177428D01*
X154577142Y-95225809D01*
X154190095Y-95225809D01*
X155738285Y-95709619D02*
X155157714Y-95709619D01*
X155448000Y-95709619D02*
X155448000Y-94693619D01*
X155351238Y-94838761D01*
X155254476Y-94935523D01*
X155157714Y-94983904D01*
X95074619Y-86474904D02*
X94058619Y-86474904D01*
X94058619Y-86087857D01*
X94107000Y-85991095D01*
X94155380Y-85942714D01*
X94252142Y-85894333D01*
X94397285Y-85894333D01*
X94494047Y-85942714D01*
X94542428Y-85991095D01*
X94590809Y-86087857D01*
X94590809Y-86474904D01*
X94155380Y-85507285D02*
X94107000Y-85458904D01*
X94058619Y-85362142D01*
X94058619Y-85120238D01*
X94107000Y-85023476D01*
X94155380Y-84975095D01*
X94252142Y-84926714D01*
X94348904Y-84926714D01*
X94494047Y-84975095D01*
X95074619Y-85555666D01*
X95074619Y-84926714D01*
X141266333Y-98328238D02*
X141411476Y-98376619D01*
X141653380Y-98376619D01*
X141750142Y-98328238D01*
X141798523Y-98279857D01*
X141846904Y-98183095D01*
X141846904Y-98086333D01*
X141798523Y-97989571D01*
X141750142Y-97941190D01*
X141653380Y-97892809D01*
X141459857Y-97844428D01*
X141363095Y-97796047D01*
X141314714Y-97747666D01*
X141266333Y-97650904D01*
X141266333Y-97554142D01*
X141314714Y-97457380D01*
X141363095Y-97409000D01*
X141459857Y-97360619D01*
X141701761Y-97360619D01*
X141846904Y-97409000D01*
X142185571Y-97360619D02*
X142427476Y-98376619D01*
X142621000Y-97650904D01*
X142814523Y-98376619D01*
X143056428Y-97360619D01*
X143975666Y-98376619D02*
X143395095Y-98376619D01*
X143685380Y-98376619D02*
X143685380Y-97360619D01*
X143588619Y-97505761D01*
X143491857Y-97602523D01*
X143395095Y-97650904D01*
X142572619Y-101932619D02*
X142572619Y-101739095D01*
X142621000Y-101642333D01*
X142717761Y-101545571D01*
X142911285Y-101497190D01*
X143249952Y-101497190D01*
X143443476Y-101545571D01*
X143540238Y-101642333D01*
X143588619Y-101739095D01*
X143588619Y-101932619D01*
X143540238Y-102029380D01*
X143443476Y-102126142D01*
X143249952Y-102174523D01*
X142911285Y-102174523D01*
X142717761Y-102126142D01*
X142621000Y-102029380D01*
X142572619Y-101932619D01*
X143056428Y-100723095D02*
X143056428Y-101061761D01*
X143588619Y-101061761D02*
X142572619Y-101061761D01*
X142572619Y-100577952D01*
X143056428Y-99852238D02*
X143056428Y-100190904D01*
X143588619Y-100190904D02*
X142572619Y-100190904D01*
X142572619Y-99707095D01*
X154637619Y-101593952D02*
X154637619Y-101400428D01*
X154686000Y-101303666D01*
X154782761Y-101206904D01*
X154976285Y-101158523D01*
X155314952Y-101158523D01*
X155508476Y-101206904D01*
X155605238Y-101303666D01*
X155653619Y-101400428D01*
X155653619Y-101593952D01*
X155605238Y-101690714D01*
X155508476Y-101787476D01*
X155314952Y-101835857D01*
X154976285Y-101835857D01*
X154782761Y-101787476D01*
X154686000Y-101690714D01*
X154637619Y-101593952D01*
X155653619Y-100723095D02*
X154637619Y-100723095D01*
X155653619Y-100142523D01*
X154637619Y-100142523D01*
%LPC*%
D16*
X130175000Y-71120000D03*
X130175000Y-106680000D03*
X89535000Y-101600000D03*
X89535000Y-76200000D03*
D17*
X88265000Y-106680000D03*
X90805000Y-106680000D03*
X93345000Y-106680000D03*
X95885000Y-106680000D03*
X98425000Y-106680000D03*
X100965000Y-106680000D03*
X103505000Y-106680000D03*
X106045000Y-106680000D03*
X108585000Y-106680000D03*
X111125000Y-106680000D03*
X113665000Y-106680000D03*
X116205000Y-106680000D03*
X118745000Y-106680000D03*
X121285000Y-106680000D03*
X123825000Y-106680000D03*
X126365000Y-106680000D03*
X126365000Y-71120000D03*
X123825000Y-71120000D03*
X121285000Y-71120000D03*
X118745000Y-71120000D03*
X116205000Y-71120000D03*
X113665000Y-71120000D03*
X111125000Y-71120000D03*
X108585000Y-71120000D03*
X106045000Y-71120000D03*
X103505000Y-71120000D03*
X100965000Y-71120000D03*
X98425000Y-71120000D03*
X95885000Y-71120000D03*
D18*
X88265000Y-71120000D03*
D17*
X93345000Y-71120000D03*
X90805000Y-71120000D03*
D19*
X146685000Y-104775000D03*
X151765000Y-104775000D03*
D20*
X118745000Y-93980000D03*
X118745000Y-99060000D03*
X116205000Y-99060000D03*
X116205000Y-93980000D03*
X113665000Y-93980000D03*
X113665000Y-99060000D03*
X111125000Y-99060000D03*
X111125000Y-93980000D03*
X108585000Y-93980000D03*
X108585000Y-99060000D03*
X106045000Y-99060000D03*
X106045000Y-93980000D03*
X103505000Y-93980000D03*
X103505000Y-99060000D03*
X100965000Y-99060000D03*
X100965000Y-93980000D03*
D21*
X153212800Y-88900000D03*
D22*
X149707600Y-88900000D03*
D23*
X144221200Y-88900000D03*
D24*
X151206200Y-84404200D03*
X151206200Y-93395800D03*
D25*
X118745000Y-82727800D03*
X118745000Y-88722200D03*
X116205000Y-82727800D03*
X116205000Y-88722200D03*
X113665000Y-82727800D03*
X113665000Y-88722200D03*
X111125000Y-82727800D03*
X111125000Y-88722200D03*
X108585000Y-82727800D03*
X108585000Y-88722200D03*
X106045000Y-82727800D03*
X106045000Y-88722200D03*
X103505000Y-82727800D03*
X103505000Y-88722200D03*
X100965000Y-82727800D03*
X100965000Y-88722200D03*
D26*
X151765000Y-99974400D03*
X146685000Y-99974400D03*
M02*
