G04 #@! TF.GenerationSoftware,KiCad,Pcbnew,no-vcs-found-0633d90~59~ubuntu16.04.1*
G04 #@! TF.CreationDate,2017-07-14T14:52:39-04:00*
G04 #@! TF.ProjectId,power_switch_controller_3x2,706F7765725F7377697463685F636F6E,1.1*
G04 #@! TF.SameCoordinates,Original
G04 #@! TF.FileFunction,Legend,Bot*
G04 #@! TF.FilePolarity,Positive*
%FSLAX46Y46*%
G04 Gerber Fmt 4.6, Leading zero omitted, Abs format (unit mm)*
G04 Created by KiCad (PCBNEW no-vcs-found-0633d90~59~ubuntu16.04.1) date Fri Jul 14 14:52:39 2017*
%MOMM*%
%LPD*%
G01*
G04 APERTURE LIST*
%ADD10C,0.228600*%
%ADD11C,0.381000*%
%ADD12C,0.127000*%
%ADD13C,0.190500*%
%ADD14C,0.254000*%
%ADD15R,1.403200X1.103200*%
%ADD16C,3.556000*%
%ADD17O,1.854200X2.540000*%
%ADD18R,1.854200X2.540000*%
%ADD19R,2.540000X1.270000*%
%ADD20R,1.270000X2.540000*%
%ADD21R,4.000000X5.160000*%
%ADD22R,1.800000X1.640000*%
%ADD23O,2.032000X1.524000*%
%ADD24O,1.524000X2.032000*%
%ADD25C,1.930400*%
%ADD26O,4.572000X3.556000*%
%ADD27O,4.064000X5.080000*%
%ADD28O,5.080000X3.556000*%
%ADD29O,1.651000X2.159000*%
%ADD30R,1.930000X0.550000*%
G04 APERTURE END LIST*
D10*
X156210000Y-67945000D02*
X85725000Y-67945000D01*
X156210000Y-109855000D02*
X156210000Y-67945000D01*
X85725000Y-109855000D02*
X156210000Y-109855000D01*
X85725000Y-67945000D02*
X85725000Y-109855000D01*
X118745000Y-99695000D02*
X118745000Y-100695000D01*
X118745000Y-98795000D02*
X117845000Y-99695000D01*
X117845000Y-99695000D02*
X119645000Y-99695000D01*
X119645000Y-99695000D02*
X118745000Y-98795000D01*
X117845000Y-98795000D02*
X119645000Y-98795000D01*
X118745000Y-98595000D02*
X118745000Y-98795000D01*
X117845000Y-98295000D02*
X117845000Y-101095000D01*
X119645000Y-98295000D02*
X119645000Y-101095000D01*
X116205000Y-99695000D02*
X116205000Y-100695000D01*
X116205000Y-98795000D02*
X115305000Y-99695000D01*
X115305000Y-99695000D02*
X117105000Y-99695000D01*
X117105000Y-99695000D02*
X116205000Y-98795000D01*
X115305000Y-98795000D02*
X117105000Y-98795000D01*
X116205000Y-98595000D02*
X116205000Y-98795000D01*
X115305000Y-98295000D02*
X115305000Y-101095000D01*
X117105000Y-98295000D02*
X117105000Y-101095000D01*
X113665000Y-99695000D02*
X113665000Y-100695000D01*
X113665000Y-98795000D02*
X112765000Y-99695000D01*
X112765000Y-99695000D02*
X114565000Y-99695000D01*
X114565000Y-99695000D02*
X113665000Y-98795000D01*
X112765000Y-98795000D02*
X114565000Y-98795000D01*
X113665000Y-98595000D02*
X113665000Y-98795000D01*
X112765000Y-98295000D02*
X112765000Y-101095000D01*
X114565000Y-98295000D02*
X114565000Y-101095000D01*
X111125000Y-99695000D02*
X111125000Y-100695000D01*
X111125000Y-98795000D02*
X110225000Y-99695000D01*
X110225000Y-99695000D02*
X112025000Y-99695000D01*
X112025000Y-99695000D02*
X111125000Y-98795000D01*
X110225000Y-98795000D02*
X112025000Y-98795000D01*
X111125000Y-98595000D02*
X111125000Y-98795000D01*
X110225000Y-98295000D02*
X110225000Y-101095000D01*
X112025000Y-98295000D02*
X112025000Y-101095000D01*
X108585000Y-99695000D02*
X108585000Y-100695000D01*
X108585000Y-98795000D02*
X107685000Y-99695000D01*
X107685000Y-99695000D02*
X109485000Y-99695000D01*
X109485000Y-99695000D02*
X108585000Y-98795000D01*
X107685000Y-98795000D02*
X109485000Y-98795000D01*
X108585000Y-98595000D02*
X108585000Y-98795000D01*
X107685000Y-98295000D02*
X107685000Y-101095000D01*
X109485000Y-98295000D02*
X109485000Y-101095000D01*
X106045000Y-99695000D02*
X106045000Y-100695000D01*
X106045000Y-98795000D02*
X105145000Y-99695000D01*
X105145000Y-99695000D02*
X106945000Y-99695000D01*
X106945000Y-99695000D02*
X106045000Y-98795000D01*
X105145000Y-98795000D02*
X106945000Y-98795000D01*
X106045000Y-98595000D02*
X106045000Y-98795000D01*
X105145000Y-98295000D02*
X105145000Y-101095000D01*
X106945000Y-98295000D02*
X106945000Y-101095000D01*
X103505000Y-99695000D02*
X103505000Y-100695000D01*
X103505000Y-98795000D02*
X102605000Y-99695000D01*
X102605000Y-99695000D02*
X104405000Y-99695000D01*
X104405000Y-99695000D02*
X103505000Y-98795000D01*
X102605000Y-98795000D02*
X104405000Y-98795000D01*
X103505000Y-98595000D02*
X103505000Y-98795000D01*
X102605000Y-98295000D02*
X102605000Y-101095000D01*
X104405000Y-98295000D02*
X104405000Y-101095000D01*
X100965000Y-99695000D02*
X100965000Y-100695000D01*
X100965000Y-98795000D02*
X100065000Y-99695000D01*
X100065000Y-99695000D02*
X101865000Y-99695000D01*
X101865000Y-99695000D02*
X100965000Y-98795000D01*
X100065000Y-98795000D02*
X101865000Y-98795000D01*
X100965000Y-98595000D02*
X100965000Y-98795000D01*
X100065000Y-98295000D02*
X100065000Y-101095000D01*
X101865000Y-98295000D02*
X101865000Y-101095000D01*
D11*
X127635000Y-69850000D02*
X86995000Y-69850000D01*
X127635000Y-72390000D02*
X127635000Y-69850000D01*
X86995000Y-72390000D02*
X127635000Y-72390000D01*
X86995000Y-69850000D02*
X86995000Y-72390000D01*
X127635000Y-105410000D02*
X86995000Y-105410000D01*
X127635000Y-107950000D02*
X127635000Y-105410000D01*
X86995000Y-107950000D02*
X127635000Y-107950000D01*
X86995000Y-105410000D02*
X86995000Y-107950000D01*
D12*
X94488000Y-83058000D02*
X94488000Y-81534000D01*
X94488000Y-81534000D02*
X97282000Y-81534000D01*
X97282000Y-81534000D02*
X97282000Y-83058000D01*
X97282000Y-84582000D02*
X97282000Y-86106000D01*
X97282000Y-86106000D02*
X94488000Y-86106000D01*
X94488000Y-86106000D02*
X94488000Y-84582000D01*
X132461000Y-101727000D02*
X130937000Y-101727000D01*
X132461000Y-98933000D02*
X132461000Y-101727000D01*
X130937000Y-98933000D02*
X132461000Y-98933000D01*
X127889000Y-98933000D02*
X129413000Y-98933000D01*
X127889000Y-101727000D02*
X127889000Y-98933000D01*
X129413000Y-101727000D02*
X127889000Y-101727000D01*
D10*
X143115000Y-83125000D02*
X147715000Y-83125000D01*
X147715000Y-83125000D02*
X147715000Y-75625000D01*
X147715000Y-75625000D02*
X143115000Y-75625000D01*
X143115000Y-75625000D02*
X143115000Y-83125000D01*
D11*
X134925000Y-82400000D02*
G75*
G03X134925000Y-82400000I-750000J0D01*
G01*
X135675000Y-81900000D02*
X135675000Y-96900000D01*
X135675000Y-96900000D02*
X124675000Y-96900000D01*
X124675000Y-96900000D02*
X124675000Y-80900000D01*
X124675000Y-80900000D02*
X134675000Y-80900000D01*
X134675000Y-80900000D02*
X135675000Y-81900000D01*
D13*
X119307428Y-103214714D02*
X119307428Y-102452714D01*
X119126000Y-102452714D01*
X119017142Y-102489000D01*
X118944571Y-102561571D01*
X118908285Y-102634142D01*
X118872000Y-102779285D01*
X118872000Y-102888142D01*
X118908285Y-103033285D01*
X118944571Y-103105857D01*
X119017142Y-103178428D01*
X119126000Y-103214714D01*
X119307428Y-103214714D01*
X118581714Y-102525285D02*
X118545428Y-102489000D01*
X118472857Y-102452714D01*
X118291428Y-102452714D01*
X118218857Y-102489000D01*
X118182571Y-102525285D01*
X118146285Y-102597857D01*
X118146285Y-102670428D01*
X118182571Y-102779285D01*
X118618000Y-103214714D01*
X118146285Y-103214714D01*
X116767428Y-103214714D02*
X116767428Y-102452714D01*
X116586000Y-102452714D01*
X116477142Y-102489000D01*
X116404571Y-102561571D01*
X116368285Y-102634142D01*
X116332000Y-102779285D01*
X116332000Y-102888142D01*
X116368285Y-103033285D01*
X116404571Y-103105857D01*
X116477142Y-103178428D01*
X116586000Y-103214714D01*
X116767428Y-103214714D01*
X116078000Y-102452714D02*
X115606285Y-102452714D01*
X115860285Y-102743000D01*
X115751428Y-102743000D01*
X115678857Y-102779285D01*
X115642571Y-102815571D01*
X115606285Y-102888142D01*
X115606285Y-103069571D01*
X115642571Y-103142142D01*
X115678857Y-103178428D01*
X115751428Y-103214714D01*
X115969142Y-103214714D01*
X116041714Y-103178428D01*
X116078000Y-103142142D01*
X114227428Y-103214714D02*
X114227428Y-102452714D01*
X114046000Y-102452714D01*
X113937142Y-102489000D01*
X113864571Y-102561571D01*
X113828285Y-102634142D01*
X113792000Y-102779285D01*
X113792000Y-102888142D01*
X113828285Y-103033285D01*
X113864571Y-103105857D01*
X113937142Y-103178428D01*
X114046000Y-103214714D01*
X114227428Y-103214714D01*
X113138857Y-102706714D02*
X113138857Y-103214714D01*
X113320285Y-102416428D02*
X113501714Y-102960714D01*
X113030000Y-102960714D01*
X111687428Y-103214714D02*
X111687428Y-102452714D01*
X111506000Y-102452714D01*
X111397142Y-102489000D01*
X111324571Y-102561571D01*
X111288285Y-102634142D01*
X111252000Y-102779285D01*
X111252000Y-102888142D01*
X111288285Y-103033285D01*
X111324571Y-103105857D01*
X111397142Y-103178428D01*
X111506000Y-103214714D01*
X111687428Y-103214714D01*
X110562571Y-102452714D02*
X110925428Y-102452714D01*
X110961714Y-102815571D01*
X110925428Y-102779285D01*
X110852857Y-102743000D01*
X110671428Y-102743000D01*
X110598857Y-102779285D01*
X110562571Y-102815571D01*
X110526285Y-102888142D01*
X110526285Y-103069571D01*
X110562571Y-103142142D01*
X110598857Y-103178428D01*
X110671428Y-103214714D01*
X110852857Y-103214714D01*
X110925428Y-103178428D01*
X110961714Y-103142142D01*
X109147428Y-103214714D02*
X109147428Y-102452714D01*
X108966000Y-102452714D01*
X108857142Y-102489000D01*
X108784571Y-102561571D01*
X108748285Y-102634142D01*
X108712000Y-102779285D01*
X108712000Y-102888142D01*
X108748285Y-103033285D01*
X108784571Y-103105857D01*
X108857142Y-103178428D01*
X108966000Y-103214714D01*
X109147428Y-103214714D01*
X108058857Y-102452714D02*
X108204000Y-102452714D01*
X108276571Y-102489000D01*
X108312857Y-102525285D01*
X108385428Y-102634142D01*
X108421714Y-102779285D01*
X108421714Y-103069571D01*
X108385428Y-103142142D01*
X108349142Y-103178428D01*
X108276571Y-103214714D01*
X108131428Y-103214714D01*
X108058857Y-103178428D01*
X108022571Y-103142142D01*
X107986285Y-103069571D01*
X107986285Y-102888142D01*
X108022571Y-102815571D01*
X108058857Y-102779285D01*
X108131428Y-102743000D01*
X108276571Y-102743000D01*
X108349142Y-102779285D01*
X108385428Y-102815571D01*
X108421714Y-102888142D01*
X106607428Y-103214714D02*
X106607428Y-102452714D01*
X106426000Y-102452714D01*
X106317142Y-102489000D01*
X106244571Y-102561571D01*
X106208285Y-102634142D01*
X106172000Y-102779285D01*
X106172000Y-102888142D01*
X106208285Y-103033285D01*
X106244571Y-103105857D01*
X106317142Y-103178428D01*
X106426000Y-103214714D01*
X106607428Y-103214714D01*
X105918000Y-102452714D02*
X105410000Y-102452714D01*
X105736571Y-103214714D01*
X104067428Y-103214714D02*
X104067428Y-102452714D01*
X103886000Y-102452714D01*
X103777142Y-102489000D01*
X103704571Y-102561571D01*
X103668285Y-102634142D01*
X103632000Y-102779285D01*
X103632000Y-102888142D01*
X103668285Y-103033285D01*
X103704571Y-103105857D01*
X103777142Y-103178428D01*
X103886000Y-103214714D01*
X104067428Y-103214714D01*
X103196571Y-102779285D02*
X103269142Y-102743000D01*
X103305428Y-102706714D01*
X103341714Y-102634142D01*
X103341714Y-102597857D01*
X103305428Y-102525285D01*
X103269142Y-102489000D01*
X103196571Y-102452714D01*
X103051428Y-102452714D01*
X102978857Y-102489000D01*
X102942571Y-102525285D01*
X102906285Y-102597857D01*
X102906285Y-102634142D01*
X102942571Y-102706714D01*
X102978857Y-102743000D01*
X103051428Y-102779285D01*
X103196571Y-102779285D01*
X103269142Y-102815571D01*
X103305428Y-102851857D01*
X103341714Y-102924428D01*
X103341714Y-103069571D01*
X103305428Y-103142142D01*
X103269142Y-103178428D01*
X103196571Y-103214714D01*
X103051428Y-103214714D01*
X102978857Y-103178428D01*
X102942571Y-103142142D01*
X102906285Y-103069571D01*
X102906285Y-102924428D01*
X102942571Y-102851857D01*
X102978857Y-102815571D01*
X103051428Y-102779285D01*
X101527428Y-103214714D02*
X101527428Y-102452714D01*
X101346000Y-102452714D01*
X101237142Y-102489000D01*
X101164571Y-102561571D01*
X101128285Y-102634142D01*
X101092000Y-102779285D01*
X101092000Y-102888142D01*
X101128285Y-103033285D01*
X101164571Y-103105857D01*
X101237142Y-103178428D01*
X101346000Y-103214714D01*
X101527428Y-103214714D01*
X100729142Y-103214714D02*
X100584000Y-103214714D01*
X100511428Y-103178428D01*
X100475142Y-103142142D01*
X100402571Y-103033285D01*
X100366285Y-102888142D01*
X100366285Y-102597857D01*
X100402571Y-102525285D01*
X100438857Y-102489000D01*
X100511428Y-102452714D01*
X100656571Y-102452714D01*
X100729142Y-102489000D01*
X100765428Y-102525285D01*
X100801714Y-102597857D01*
X100801714Y-102779285D01*
X100765428Y-102851857D01*
X100729142Y-102888142D01*
X100656571Y-102924428D01*
X100511428Y-102924428D01*
X100438857Y-102888142D01*
X100402571Y-102851857D01*
X100366285Y-102779285D01*
D14*
X93961857Y-83650666D02*
X94010238Y-83602285D01*
X94058619Y-83457142D01*
X94058619Y-83360380D01*
X94010238Y-83215238D01*
X93913476Y-83118476D01*
X93816714Y-83070095D01*
X93623190Y-83021714D01*
X93478047Y-83021714D01*
X93284523Y-83070095D01*
X93187761Y-83118476D01*
X93091000Y-83215238D01*
X93042619Y-83360380D01*
X93042619Y-83457142D01*
X93091000Y-83602285D01*
X93139380Y-83650666D01*
X94058619Y-84618285D02*
X94058619Y-84037714D01*
X94058619Y-84328000D02*
X93042619Y-84328000D01*
X93187761Y-84231238D01*
X93284523Y-84134476D01*
X93332904Y-84037714D01*
X98630619Y-82731428D02*
X98630619Y-82150857D01*
X98630619Y-82441142D02*
X97614619Y-82441142D01*
X97759761Y-82344380D01*
X97856523Y-82247619D01*
X97904904Y-82150857D01*
X97614619Y-83360380D02*
X97614619Y-83457142D01*
X97663000Y-83553904D01*
X97711380Y-83602285D01*
X97808142Y-83650666D01*
X98001666Y-83699047D01*
X98243571Y-83699047D01*
X98437095Y-83650666D01*
X98533857Y-83602285D01*
X98582238Y-83553904D01*
X98630619Y-83457142D01*
X98630619Y-83360380D01*
X98582238Y-83263619D01*
X98533857Y-83215238D01*
X98437095Y-83166857D01*
X98243571Y-83118476D01*
X98001666Y-83118476D01*
X97808142Y-83166857D01*
X97711380Y-83215238D01*
X97663000Y-83263619D01*
X97614619Y-83360380D01*
X97953285Y-84569904D02*
X98630619Y-84569904D01*
X97953285Y-84134476D02*
X98485476Y-84134476D01*
X98582238Y-84182857D01*
X98630619Y-84279619D01*
X98630619Y-84424761D01*
X98582238Y-84521523D01*
X98533857Y-84569904D01*
X98098428Y-85392380D02*
X98098428Y-85053714D01*
X98630619Y-85053714D02*
X97614619Y-85053714D01*
X97614619Y-85537523D01*
X130344333Y-102978857D02*
X130392714Y-103027238D01*
X130537857Y-103075619D01*
X130634619Y-103075619D01*
X130779761Y-103027238D01*
X130876523Y-102930476D01*
X130924904Y-102833714D01*
X130973285Y-102640190D01*
X130973285Y-102495047D01*
X130924904Y-102301523D01*
X130876523Y-102204761D01*
X130779761Y-102108000D01*
X130634619Y-102059619D01*
X130537857Y-102059619D01*
X130392714Y-102108000D01*
X130344333Y-102156380D01*
X129957285Y-102156380D02*
X129908904Y-102108000D01*
X129812142Y-102059619D01*
X129570238Y-102059619D01*
X129473476Y-102108000D01*
X129425095Y-102156380D01*
X129376714Y-102253142D01*
X129376714Y-102349904D01*
X129425095Y-102495047D01*
X130005666Y-103075619D01*
X129376714Y-103075619D01*
X131844142Y-97487619D02*
X131747380Y-97487619D01*
X131650619Y-97536000D01*
X131602238Y-97584380D01*
X131553857Y-97681142D01*
X131505476Y-97874666D01*
X131505476Y-98116571D01*
X131553857Y-98310095D01*
X131602238Y-98406857D01*
X131650619Y-98455238D01*
X131747380Y-98503619D01*
X131844142Y-98503619D01*
X131940904Y-98455238D01*
X131989285Y-98406857D01*
X132037666Y-98310095D01*
X132086047Y-98116571D01*
X132086047Y-97874666D01*
X132037666Y-97681142D01*
X131989285Y-97584380D01*
X131940904Y-97536000D01*
X131844142Y-97487619D01*
X131070047Y-98406857D02*
X131021666Y-98455238D01*
X131070047Y-98503619D01*
X131118428Y-98455238D01*
X131070047Y-98406857D01*
X131070047Y-98503619D01*
X130054047Y-98503619D02*
X130634619Y-98503619D01*
X130344333Y-98503619D02*
X130344333Y-97487619D01*
X130441095Y-97632761D01*
X130537857Y-97729523D01*
X130634619Y-97777904D01*
X129183190Y-97826285D02*
X129183190Y-98503619D01*
X129618619Y-97826285D02*
X129618619Y-98358476D01*
X129570238Y-98455238D01*
X129473476Y-98503619D01*
X129328333Y-98503619D01*
X129231571Y-98455238D01*
X129183190Y-98406857D01*
X128360714Y-97971428D02*
X128699380Y-97971428D01*
X128699380Y-98503619D02*
X128699380Y-97487619D01*
X128215571Y-97487619D01*
X146164904Y-75234619D02*
X146164904Y-74218619D01*
X145923000Y-74218619D01*
X145777857Y-74267000D01*
X145681095Y-74363761D01*
X145632714Y-74460523D01*
X145584333Y-74654047D01*
X145584333Y-74799190D01*
X145632714Y-74992714D01*
X145681095Y-75089476D01*
X145777857Y-75186238D01*
X145923000Y-75234619D01*
X146164904Y-75234619D01*
X144616714Y-75234619D02*
X145197285Y-75234619D01*
X144907000Y-75234619D02*
X144907000Y-74218619D01*
X145003761Y-74363761D01*
X145100523Y-74460523D01*
X145197285Y-74508904D01*
X137699095Y-81593619D02*
X137699095Y-82416095D01*
X137650714Y-82512857D01*
X137602333Y-82561238D01*
X137505571Y-82609619D01*
X137312047Y-82609619D01*
X137215285Y-82561238D01*
X137166904Y-82512857D01*
X137118523Y-82416095D01*
X137118523Y-81593619D01*
X136102523Y-82609619D02*
X136683095Y-82609619D01*
X136392809Y-82609619D02*
X136392809Y-81593619D01*
X136489571Y-81738761D01*
X136586333Y-81835523D01*
X136683095Y-81883904D01*
X129618619Y-85295619D02*
X129618619Y-85876190D01*
X130634619Y-85585904D02*
X129618619Y-85585904D01*
X130634619Y-86698666D02*
X130634619Y-86214857D01*
X129618619Y-86214857D01*
X130102428Y-87037333D02*
X130102428Y-87375999D01*
X130634619Y-87521142D02*
X130634619Y-87037333D01*
X129618619Y-87037333D01*
X129618619Y-87521142D01*
X129618619Y-87859809D02*
X129618619Y-88537142D01*
X130634619Y-88101714D01*
X129715380Y-88875809D02*
X129667000Y-88924190D01*
X129618619Y-89020952D01*
X129618619Y-89262857D01*
X129667000Y-89359619D01*
X129715380Y-89407999D01*
X129812142Y-89456380D01*
X129908904Y-89456380D01*
X130054047Y-89407999D01*
X130634619Y-88827428D01*
X130634619Y-89456380D01*
X129618619Y-89795047D02*
X129618619Y-90423999D01*
X130005666Y-90085333D01*
X130005666Y-90230476D01*
X130054047Y-90327238D01*
X130102428Y-90375619D01*
X130199190Y-90423999D01*
X130441095Y-90423999D01*
X130537857Y-90375619D01*
X130586238Y-90327238D01*
X130634619Y-90230476D01*
X130634619Y-89940190D01*
X130586238Y-89843428D01*
X130537857Y-89795047D01*
X129618619Y-91052952D02*
X129618619Y-91149714D01*
X129667000Y-91246476D01*
X129715380Y-91294857D01*
X129812142Y-91343238D01*
X130005666Y-91391619D01*
X130247571Y-91391619D01*
X130441095Y-91343238D01*
X130537857Y-91294857D01*
X130586238Y-91246476D01*
X130634619Y-91149714D01*
X130634619Y-91052952D01*
X130586238Y-90956190D01*
X130537857Y-90907809D01*
X130441095Y-90859428D01*
X130247571Y-90811047D01*
X130005666Y-90811047D01*
X129812142Y-90859428D01*
X129715380Y-90907809D01*
X129667000Y-90956190D01*
X129618619Y-91052952D01*
X130634619Y-92407619D02*
X130150809Y-92068952D01*
X130634619Y-91827047D02*
X129618619Y-91827047D01*
X129618619Y-92214095D01*
X129667000Y-92310857D01*
X129715380Y-92359238D01*
X129812142Y-92407619D01*
X129957285Y-92407619D01*
X130054047Y-92359238D01*
X130102428Y-92310857D01*
X130150809Y-92214095D01*
X130150809Y-91827047D01*
%LPC*%
D15*
X118745000Y-97995000D03*
X118745000Y-101395000D03*
X116205000Y-97995000D03*
X116205000Y-101395000D03*
X113665000Y-97995000D03*
X113665000Y-101395000D03*
X111125000Y-97995000D03*
X111125000Y-101395000D03*
X108585000Y-97995000D03*
X108585000Y-101395000D03*
X106045000Y-97995000D03*
X106045000Y-101395000D03*
X103505000Y-97995000D03*
X103505000Y-101395000D03*
X100965000Y-97995000D03*
X100965000Y-101395000D03*
D16*
X130175000Y-71120000D03*
X130175000Y-106680000D03*
X89535000Y-101600000D03*
X89535000Y-76200000D03*
D17*
X88265000Y-106680000D03*
X90805000Y-106680000D03*
X93345000Y-106680000D03*
X95885000Y-106680000D03*
X98425000Y-106680000D03*
X100965000Y-106680000D03*
X103505000Y-106680000D03*
X106045000Y-106680000D03*
X108585000Y-106680000D03*
X111125000Y-106680000D03*
X113665000Y-106680000D03*
X116205000Y-106680000D03*
X118745000Y-106680000D03*
X121285000Y-106680000D03*
X123825000Y-106680000D03*
X126365000Y-106680000D03*
X126365000Y-71120000D03*
X123825000Y-71120000D03*
X121285000Y-71120000D03*
X118745000Y-71120000D03*
X116205000Y-71120000D03*
X113665000Y-71120000D03*
X111125000Y-71120000D03*
X108585000Y-71120000D03*
X106045000Y-71120000D03*
X103505000Y-71120000D03*
X100965000Y-71120000D03*
X98425000Y-71120000D03*
X95885000Y-71120000D03*
D18*
X88265000Y-71120000D03*
D17*
X93345000Y-71120000D03*
X90805000Y-71120000D03*
D19*
X95885000Y-82296000D03*
X95885000Y-85344000D03*
D20*
X131699000Y-100330000D03*
X128651000Y-100330000D03*
D21*
X145415000Y-78355000D03*
D22*
X144350000Y-82155000D03*
X146480000Y-82155000D03*
D23*
X146685000Y-104775000D03*
X151765000Y-104775000D03*
D24*
X118745000Y-90805000D03*
X118745000Y-95885000D03*
X116205000Y-95885000D03*
X116205000Y-90805000D03*
X113665000Y-90805000D03*
X113665000Y-95885000D03*
X111125000Y-95885000D03*
X111125000Y-90805000D03*
X108585000Y-90805000D03*
X108585000Y-95885000D03*
X106045000Y-95885000D03*
X106045000Y-90805000D03*
X103505000Y-90805000D03*
X103505000Y-95885000D03*
X100965000Y-95885000D03*
X100965000Y-90805000D03*
D25*
X153212800Y-88900000D03*
D26*
X149707600Y-88900000D03*
D27*
X144221200Y-88900000D03*
D28*
X151206200Y-84404200D03*
X151206200Y-93395800D03*
D29*
X151765000Y-99974400D03*
X146685000Y-99974400D03*
D30*
X136915000Y-83375000D03*
X136915000Y-84025000D03*
X136915000Y-84675000D03*
X136915000Y-85325000D03*
X136915000Y-85975000D03*
X136915000Y-86625000D03*
X136915000Y-87275000D03*
X136915000Y-87925000D03*
X136915000Y-88575000D03*
X136915000Y-89225000D03*
X136915000Y-89875000D03*
X136915000Y-90525000D03*
X136915000Y-91175000D03*
X136915000Y-91825000D03*
X136915000Y-92475000D03*
X136915000Y-93125000D03*
X136915000Y-93775000D03*
X136915000Y-94425000D03*
X123435000Y-94425000D03*
X123435000Y-93775000D03*
X123435000Y-93125000D03*
X123435000Y-92475000D03*
X123435000Y-91825000D03*
X123435000Y-91175000D03*
X123435000Y-90525000D03*
X123435000Y-89875000D03*
X123435000Y-89225000D03*
X123435000Y-88575000D03*
X123435000Y-87925000D03*
X123435000Y-87275000D03*
X123435000Y-86625000D03*
X123435000Y-85975000D03*
X123435000Y-85325000D03*
X123435000Y-84675000D03*
X123435000Y-84025000D03*
X123435000Y-83375000D03*
M02*
