G04 #@! TF.GenerationSoftware,KiCad,Pcbnew,no-vcs-found-0e71686~58~ubuntu16.04.1*
G04 #@! TF.CreationDate,2017-06-07T16:05:21-04:00*
G04 #@! TF.ProjectId,power_switch_controller_3x2,706F7765725F7377697463685F636F6E,1.0*
G04 #@! TF.FileFunction,Soldermask,Bot*
G04 #@! TF.FilePolarity,Negative*
%FSLAX46Y46*%
G04 Gerber Fmt 4.6, Leading zero omitted, Abs format (unit mm)*
G04 Created by KiCad (PCBNEW no-vcs-found-0e71686~58~ubuntu16.04.1) date Wed Jun  7 16:05:21 2017*
%MOMM*%
%LPD*%
G01*
G04 APERTURE LIST*
%ADD10C,0.100000*%
%ADD11C,0.228600*%
%ADD12C,3.556000*%
%ADD13O,1.854200X2.540000*%
%ADD14R,1.854200X2.540000*%
%ADD15R,2.540000X1.270000*%
%ADD16R,1.270000X2.540000*%
%ADD17R,4.000000X5.160000*%
%ADD18R,1.800000X1.640000*%
%ADD19O,2.032000X1.524000*%
%ADD20O,1.524000X2.032000*%
%ADD21C,1.930400*%
%ADD22O,4.572000X3.556000*%
%ADD23O,4.064000X5.080000*%
%ADD24O,5.080000X3.556000*%
%ADD25O,1.651000X2.159000*%
%ADD26R,1.930000X0.550000*%
G04 APERTURE END LIST*
D10*
D11*
X156210000Y-67945000D02*
X85725000Y-67945000D01*
X156210000Y-109855000D02*
X156210000Y-67945000D01*
X85725000Y-109855000D02*
X156210000Y-109855000D01*
X85725000Y-67945000D02*
X85725000Y-109855000D01*
D12*
X130175000Y-71120000D03*
X130175000Y-106680000D03*
X89535000Y-101600000D03*
X89535000Y-76200000D03*
D13*
X88265000Y-106680000D03*
X90805000Y-106680000D03*
X93345000Y-106680000D03*
X95885000Y-106680000D03*
X98425000Y-106680000D03*
X100965000Y-106680000D03*
X103505000Y-106680000D03*
X106045000Y-106680000D03*
X108585000Y-106680000D03*
X111125000Y-106680000D03*
X113665000Y-106680000D03*
X116205000Y-106680000D03*
X118745000Y-106680000D03*
X121285000Y-106680000D03*
X123825000Y-106680000D03*
X126365000Y-106680000D03*
X126365000Y-71120000D03*
X123825000Y-71120000D03*
X121285000Y-71120000D03*
X118745000Y-71120000D03*
X116205000Y-71120000D03*
X113665000Y-71120000D03*
X111125000Y-71120000D03*
X108585000Y-71120000D03*
X106045000Y-71120000D03*
X103505000Y-71120000D03*
X100965000Y-71120000D03*
X98425000Y-71120000D03*
X95885000Y-71120000D03*
D14*
X88265000Y-71120000D03*
D13*
X93345000Y-71120000D03*
X90805000Y-71120000D03*
D15*
X95885000Y-84201000D03*
X95885000Y-87249000D03*
D16*
X131699000Y-100330000D03*
X128651000Y-100330000D03*
D17*
X145415000Y-78355000D03*
D18*
X144350000Y-82155000D03*
X146480000Y-82155000D03*
D19*
X146685000Y-104775000D03*
X151765000Y-104775000D03*
D20*
X118745000Y-93980000D03*
X118745000Y-99060000D03*
X116205000Y-99060000D03*
X116205000Y-93980000D03*
X113665000Y-93980000D03*
X113665000Y-99060000D03*
X111125000Y-99060000D03*
X111125000Y-93980000D03*
X108585000Y-93980000D03*
X108585000Y-99060000D03*
X106045000Y-99060000D03*
X106045000Y-93980000D03*
X103505000Y-93980000D03*
X103505000Y-99060000D03*
X100965000Y-99060000D03*
X100965000Y-93980000D03*
D21*
X153212800Y-88900000D03*
D22*
X149707600Y-88900000D03*
D23*
X144221200Y-88900000D03*
D24*
X151206200Y-84404200D03*
X151206200Y-93395800D03*
D25*
X151765000Y-99974400D03*
X146685000Y-99974400D03*
D26*
X136915000Y-83375000D03*
X136915000Y-84025000D03*
X136915000Y-84675000D03*
X136915000Y-85325000D03*
X136915000Y-85975000D03*
X136915000Y-86625000D03*
X136915000Y-87275000D03*
X136915000Y-87925000D03*
X136915000Y-88575000D03*
X136915000Y-89225000D03*
X136915000Y-89875000D03*
X136915000Y-90525000D03*
X136915000Y-91175000D03*
X136915000Y-91825000D03*
X136915000Y-92475000D03*
X136915000Y-93125000D03*
X136915000Y-93775000D03*
X136915000Y-94425000D03*
X123435000Y-94425000D03*
X123435000Y-93775000D03*
X123435000Y-93125000D03*
X123435000Y-92475000D03*
X123435000Y-91825000D03*
X123435000Y-91175000D03*
X123435000Y-90525000D03*
X123435000Y-89875000D03*
X123435000Y-89225000D03*
X123435000Y-88575000D03*
X123435000Y-87925000D03*
X123435000Y-87275000D03*
X123435000Y-86625000D03*
X123435000Y-85975000D03*
X123435000Y-85325000D03*
X123435000Y-84675000D03*
X123435000Y-84025000D03*
X123435000Y-83375000D03*
M02*
