M48
;DRILL file {KiCad no-vcs-found-0e71686~58~ubuntu16.04.1} date Wed Jun  7 16:05:24 2017
;FORMAT={-:-/ absolute / inch / decimal}
FMAT,2
INCH,TZ
T1C0.025
T2C0.031
T3C0.038
T4C0.043
T5C0.063
T6C0.106
T7C0.124
T8C0.130
%
G90
G05
M72
T1
X4.802Y-3.5674
X4.8495Y-3.7895
X5.0344Y-2.9065
X5.1263Y-3.7976
X5.1362Y-3.8392
X5.331Y-3.2952
X5.525Y-2.95
X5.725Y-2.85
X5.925Y-2.95
T2
X5.775Y-3.936
X5.975Y-3.936
T3
X4.275Y-3.7
X4.275Y-3.9
X3.975Y-3.7
X3.975Y-3.9
X5.775Y-4.125
X5.975Y-4.125
X4.375Y-3.7
X4.375Y-3.9
X4.075Y-3.7
X4.075Y-3.9
X4.475Y-3.7
X4.475Y-3.9
X4.675Y-3.7
X4.675Y-3.9
X4.575Y-3.7
X4.575Y-3.9
X4.175Y-3.7
X4.175Y-3.9
T4
X3.475Y-2.8
X3.475Y-4.2
X3.575Y-2.8
X3.575Y-4.2
X3.675Y-2.8
X3.675Y-4.2
X3.775Y-2.8
X3.775Y-4.2
X3.875Y-2.8
X3.875Y-4.2
X3.975Y-2.8
X3.975Y-4.2
X4.075Y-2.8
X4.075Y-4.2
X4.175Y-2.8
X4.175Y-4.2
X4.275Y-2.8
X4.275Y-4.2
X4.375Y-2.8
X4.375Y-4.2
X4.475Y-2.8
X4.475Y-4.2
X4.575Y-2.8
X4.575Y-4.2
X4.675Y-2.8
X4.675Y-4.2
X4.775Y-2.8
X4.775Y-4.2
X4.875Y-2.8
X4.875Y-4.2
X4.975Y-2.8
X4.975Y-4.2
T5
X6.032Y-3.5
T6
X5.914Y-3.5
X5.953Y-3.323
X5.953Y-3.677
T7
X5.678Y-3.5
T8
X3.525Y-3.
X3.525Y-4.
X5.125Y-2.8
X5.125Y-4.2
T0
M30
