G04 #@! TF.GenerationSoftware,KiCad,Pcbnew,no-vcs-found-0e71686~58~ubuntu16.04.1*
G04 #@! TF.CreationDate,2017-06-07T16:05:21-04:00*
G04 #@! TF.ProjectId,power_switch_controller_3x2,706F7765725F7377697463685F636F6E,1.0*
G04 #@! TF.FileFunction,Copper,L1,Top,Signal*
G04 #@! TF.FilePolarity,Positive*
%FSLAX46Y46*%
G04 Gerber Fmt 4.6, Leading zero omitted, Abs format (unit mm)*
G04 Created by KiCad (PCBNEW no-vcs-found-0e71686~58~ubuntu16.04.1) date Wed Jun  7 16:05:21 2017*
%MOMM*%
%LPD*%
G01*
G04 APERTURE LIST*
%ADD10C,0.100000*%
%ADD11C,0.228600*%
%ADD12C,3.556000*%
%ADD13O,1.854200X2.540000*%
%ADD14R,1.854200X2.540000*%
%ADD15O,2.032000X1.524000*%
%ADD16O,1.524000X2.032000*%
%ADD17C,1.930400*%
%ADD18O,4.572000X3.556000*%
%ADD19O,4.064000X5.080000*%
%ADD20O,5.080000X3.556000*%
%ADD21R,1.016000X4.495800*%
%ADD22O,1.651000X2.159000*%
%ADD23C,0.889000*%
%ADD24C,1.219200*%
%ADD25C,0.406400*%
%ADD26C,0.609600*%
%ADD27C,0.203200*%
G04 APERTURE END LIST*
D10*
D11*
X156210000Y-67945000D02*
X85725000Y-67945000D01*
X156210000Y-109855000D02*
X156210000Y-67945000D01*
X85725000Y-109855000D02*
X156210000Y-109855000D01*
X85725000Y-67945000D02*
X85725000Y-109855000D01*
D12*
X130175000Y-71120000D03*
X130175000Y-106680000D03*
X89535000Y-101600000D03*
X89535000Y-76200000D03*
D13*
X88265000Y-106680000D03*
X90805000Y-106680000D03*
X93345000Y-106680000D03*
X95885000Y-106680000D03*
X98425000Y-106680000D03*
X100965000Y-106680000D03*
X103505000Y-106680000D03*
X106045000Y-106680000D03*
X108585000Y-106680000D03*
X111125000Y-106680000D03*
X113665000Y-106680000D03*
X116205000Y-106680000D03*
X118745000Y-106680000D03*
X121285000Y-106680000D03*
X123825000Y-106680000D03*
X126365000Y-106680000D03*
X126365000Y-71120000D03*
X123825000Y-71120000D03*
X121285000Y-71120000D03*
X118745000Y-71120000D03*
X116205000Y-71120000D03*
X113665000Y-71120000D03*
X111125000Y-71120000D03*
X108585000Y-71120000D03*
X106045000Y-71120000D03*
X103505000Y-71120000D03*
X100965000Y-71120000D03*
X98425000Y-71120000D03*
X95885000Y-71120000D03*
D14*
X88265000Y-71120000D03*
D13*
X93345000Y-71120000D03*
X90805000Y-71120000D03*
D15*
X146685000Y-104775000D03*
X151765000Y-104775000D03*
D16*
X118745000Y-93980000D03*
X118745000Y-99060000D03*
X116205000Y-99060000D03*
X116205000Y-93980000D03*
X113665000Y-93980000D03*
X113665000Y-99060000D03*
X111125000Y-99060000D03*
X111125000Y-93980000D03*
X108585000Y-93980000D03*
X108585000Y-99060000D03*
X106045000Y-99060000D03*
X106045000Y-93980000D03*
X103505000Y-93980000D03*
X103505000Y-99060000D03*
X100965000Y-99060000D03*
X100965000Y-93980000D03*
D17*
X153212800Y-88900000D03*
D18*
X149707600Y-88900000D03*
D19*
X144221200Y-88900000D03*
D20*
X151206200Y-84404200D03*
X151206200Y-93395800D03*
D21*
X118745000Y-82727800D03*
X118745000Y-88722200D03*
X116205000Y-82727800D03*
X116205000Y-88722200D03*
X113665000Y-82727800D03*
X113665000Y-88722200D03*
X111125000Y-82727800D03*
X111125000Y-88722200D03*
X108585000Y-82727800D03*
X108585000Y-88722200D03*
X106045000Y-82727800D03*
X106045000Y-88722200D03*
X103505000Y-82727800D03*
X103505000Y-88722200D03*
X100965000Y-82727800D03*
X100965000Y-88722200D03*
D22*
X151765000Y-99974400D03*
X146685000Y-99974400D03*
D23*
X150495000Y-74930000D03*
X140335000Y-74930000D03*
X145415000Y-72390000D03*
X135407400Y-83697800D03*
X121971100Y-90610900D03*
X123177200Y-96253400D03*
X127873100Y-73826200D03*
X130208500Y-96459500D03*
X130458500Y-97516000D03*
D24*
X103505000Y-82727800D02*
X106045000Y-82727800D01*
X106045000Y-82727800D02*
X108585000Y-82727800D01*
X108585000Y-82727800D02*
X111125000Y-82727800D01*
X111125000Y-82727800D02*
X113665000Y-82727800D01*
X113665000Y-82727800D02*
X116205000Y-82727800D01*
X116205000Y-82727800D02*
X118745000Y-82727800D01*
X100965000Y-82727800D02*
X103505000Y-82727800D01*
X94602900Y-73253900D02*
X88265000Y-73253900D01*
X100965000Y-79616000D02*
X94602900Y-73253900D01*
X100965000Y-82727800D02*
X100965000Y-79616000D01*
X88265000Y-71120000D02*
X88265000Y-73253900D01*
X151765000Y-99974400D02*
X150075600Y-99974400D01*
X132384300Y-82727800D02*
X118745000Y-82727800D01*
X149630900Y-99974400D02*
X132384300Y-82727800D01*
X150075600Y-99974400D02*
X149630900Y-99974400D01*
D25*
X150215600Y-88900000D02*
X150215600Y-86791800D01*
X145013400Y-83697800D02*
X135407400Y-83697800D01*
X148107400Y-86791800D02*
X145013400Y-83697800D01*
X150215600Y-86791800D02*
X148107400Y-86791800D01*
X131683500Y-79973900D02*
X135407400Y-83697800D01*
X105191600Y-79973900D02*
X131683500Y-79973900D01*
X97155000Y-71937300D02*
X105191600Y-79973900D01*
X97155000Y-70277600D02*
X97155000Y-71937300D01*
X96396400Y-69519000D02*
X97155000Y-70277600D01*
X92798900Y-69519000D02*
X96396400Y-69519000D01*
X92062300Y-70255600D02*
X92798900Y-69519000D01*
X92062300Y-71120000D02*
X92062300Y-70255600D01*
X90805000Y-71120000D02*
X92062300Y-71120000D01*
D26*
X100965000Y-99060000D02*
X103505000Y-99060000D01*
X103505000Y-99060000D02*
X106045000Y-99060000D01*
X106045000Y-99060000D02*
X108585000Y-99060000D01*
X113665000Y-99060000D02*
X116205000Y-99060000D01*
X108585000Y-99060000D02*
X111125000Y-99060000D01*
X111125000Y-99060000D02*
X113665000Y-99060000D01*
X116205000Y-99060000D02*
X118745000Y-99060000D01*
X144386000Y-99060000D02*
X145300400Y-99974400D01*
X118745000Y-99060000D02*
X144386000Y-99060000D01*
X146685000Y-99974400D02*
X145300400Y-99974400D01*
D25*
X118745000Y-88722200D02*
X118745000Y-93980000D01*
X123177200Y-91817000D02*
X123177200Y-96253400D01*
X121971100Y-90610900D02*
X123177200Y-91817000D01*
X98425000Y-71120000D02*
X99682300Y-71120000D01*
X99682300Y-71983900D02*
X99682300Y-71120000D01*
X101524600Y-73826200D02*
X99682300Y-71983900D01*
X127873100Y-73826200D02*
X101524600Y-73826200D01*
X116205000Y-88722200D02*
X116205000Y-93980000D01*
X113665000Y-88722200D02*
X113665000Y-93684600D01*
X113665000Y-93684600D02*
X113665000Y-93980000D01*
X116988000Y-97007600D02*
X113665000Y-93684600D01*
X129660400Y-97007600D02*
X116988000Y-97007600D01*
X130208500Y-96459500D02*
X129660400Y-97007600D01*
X111125000Y-88722200D02*
X111125000Y-93980000D01*
X115343600Y-97516000D02*
X130458500Y-97516000D01*
X112217200Y-94389600D02*
X115343600Y-97516000D01*
X112217200Y-93980000D02*
X112217200Y-94389600D01*
X111125000Y-93980000D02*
X112217200Y-93980000D01*
X108585000Y-88722200D02*
X108585000Y-93980000D01*
X106045000Y-88722200D02*
X106045000Y-93980000D01*
X103505000Y-88722200D02*
X103505000Y-93980000D01*
X100965000Y-88722200D02*
X100965000Y-93980000D01*
D27*
G36*
X155790900Y-109435900D02*
X86144100Y-109435900D01*
X86144100Y-106306248D01*
X87033100Y-106306248D01*
X87033100Y-107053752D01*
X87126873Y-107525180D01*
X87393915Y-107924837D01*
X87793572Y-108191879D01*
X88265000Y-108285652D01*
X88736428Y-108191879D01*
X89136085Y-107924837D01*
X89403127Y-107525180D01*
X89496900Y-107053752D01*
X89496900Y-106306248D01*
X89573100Y-106306248D01*
X89573100Y-107053752D01*
X89666873Y-107525180D01*
X89933915Y-107924837D01*
X90333572Y-108191879D01*
X90805000Y-108285652D01*
X91276428Y-108191879D01*
X91676085Y-107924837D01*
X91943127Y-107525180D01*
X92036900Y-107053752D01*
X92036900Y-106306248D01*
X92113100Y-106306248D01*
X92113100Y-107053752D01*
X92206873Y-107525180D01*
X92473915Y-107924837D01*
X92873572Y-108191879D01*
X93345000Y-108285652D01*
X93816428Y-108191879D01*
X94216085Y-107924837D01*
X94483127Y-107525180D01*
X94576900Y-107053752D01*
X94576900Y-106306248D01*
X94653100Y-106306248D01*
X94653100Y-107053752D01*
X94746873Y-107525180D01*
X95013915Y-107924837D01*
X95413572Y-108191879D01*
X95885000Y-108285652D01*
X96356428Y-108191879D01*
X96756085Y-107924837D01*
X97023127Y-107525180D01*
X97116900Y-107053752D01*
X97116900Y-106306248D01*
X97193100Y-106306248D01*
X97193100Y-107053752D01*
X97286873Y-107525180D01*
X97553915Y-107924837D01*
X97953572Y-108191879D01*
X98425000Y-108285652D01*
X98896428Y-108191879D01*
X99296085Y-107924837D01*
X99563127Y-107525180D01*
X99656900Y-107053752D01*
X99656900Y-106306248D01*
X99733100Y-106306248D01*
X99733100Y-107053752D01*
X99826873Y-107525180D01*
X100093915Y-107924837D01*
X100493572Y-108191879D01*
X100965000Y-108285652D01*
X101436428Y-108191879D01*
X101836085Y-107924837D01*
X102103127Y-107525180D01*
X102196900Y-107053752D01*
X102196900Y-106306248D01*
X102273100Y-106306248D01*
X102273100Y-107053752D01*
X102366873Y-107525180D01*
X102633915Y-107924837D01*
X103033572Y-108191879D01*
X103505000Y-108285652D01*
X103976428Y-108191879D01*
X104376085Y-107924837D01*
X104643127Y-107525180D01*
X104736900Y-107053752D01*
X104736900Y-106306248D01*
X104813100Y-106306248D01*
X104813100Y-107053752D01*
X104906873Y-107525180D01*
X105173915Y-107924837D01*
X105573572Y-108191879D01*
X106045000Y-108285652D01*
X106516428Y-108191879D01*
X106916085Y-107924837D01*
X107183127Y-107525180D01*
X107276900Y-107053752D01*
X107276900Y-106306248D01*
X107353100Y-106306248D01*
X107353100Y-107053752D01*
X107446873Y-107525180D01*
X107713915Y-107924837D01*
X108113572Y-108191879D01*
X108585000Y-108285652D01*
X109056428Y-108191879D01*
X109456085Y-107924837D01*
X109723127Y-107525180D01*
X109816900Y-107053752D01*
X109816900Y-106306248D01*
X109893100Y-106306248D01*
X109893100Y-107053752D01*
X109986873Y-107525180D01*
X110253915Y-107924837D01*
X110653572Y-108191879D01*
X111125000Y-108285652D01*
X111596428Y-108191879D01*
X111996085Y-107924837D01*
X112263127Y-107525180D01*
X112356900Y-107053752D01*
X112356900Y-106306248D01*
X112433100Y-106306248D01*
X112433100Y-107053752D01*
X112526873Y-107525180D01*
X112793915Y-107924837D01*
X113193572Y-108191879D01*
X113665000Y-108285652D01*
X114136428Y-108191879D01*
X114536085Y-107924837D01*
X114803127Y-107525180D01*
X114896900Y-107053752D01*
X114896900Y-106306248D01*
X114973100Y-106306248D01*
X114973100Y-107053752D01*
X115066873Y-107525180D01*
X115333915Y-107924837D01*
X115733572Y-108191879D01*
X116205000Y-108285652D01*
X116676428Y-108191879D01*
X117076085Y-107924837D01*
X117343127Y-107525180D01*
X117436900Y-107053752D01*
X117436900Y-106306248D01*
X117513100Y-106306248D01*
X117513100Y-107053752D01*
X117606873Y-107525180D01*
X117873915Y-107924837D01*
X118273572Y-108191879D01*
X118745000Y-108285652D01*
X119216428Y-108191879D01*
X119616085Y-107924837D01*
X119883127Y-107525180D01*
X119976900Y-107053752D01*
X119976900Y-106306248D01*
X120053100Y-106306248D01*
X120053100Y-107053752D01*
X120146873Y-107525180D01*
X120413915Y-107924837D01*
X120813572Y-108191879D01*
X121285000Y-108285652D01*
X121756428Y-108191879D01*
X122156085Y-107924837D01*
X122423127Y-107525180D01*
X122516900Y-107053752D01*
X122516900Y-106306248D01*
X122593100Y-106306248D01*
X122593100Y-107053752D01*
X122686873Y-107525180D01*
X122953915Y-107924837D01*
X123353572Y-108191879D01*
X123825000Y-108285652D01*
X124296428Y-108191879D01*
X124696085Y-107924837D01*
X124963127Y-107525180D01*
X125056900Y-107053752D01*
X125056900Y-106306248D01*
X125133100Y-106306248D01*
X125133100Y-107053752D01*
X125226873Y-107525180D01*
X125493915Y-107924837D01*
X125893572Y-108191879D01*
X126365000Y-108285652D01*
X126836428Y-108191879D01*
X127236085Y-107924837D01*
X127503127Y-107525180D01*
X127589197Y-107092477D01*
X128091840Y-107092477D01*
X128408259Y-107858270D01*
X128993648Y-108444682D01*
X129758888Y-108762437D01*
X130587477Y-108763160D01*
X131353270Y-108446741D01*
X131939682Y-107861352D01*
X132257437Y-107096112D01*
X132258160Y-106267523D01*
X131941741Y-105501730D01*
X131356352Y-104915318D01*
X131018429Y-104775000D01*
X145286529Y-104775000D01*
X145371601Y-105202687D01*
X145613866Y-105565263D01*
X145976442Y-105807528D01*
X146404129Y-105892600D01*
X146965871Y-105892600D01*
X147393558Y-105807528D01*
X147756134Y-105565263D01*
X147998399Y-105202687D01*
X148083471Y-104775000D01*
X150418324Y-104775000D01*
X150499529Y-105183247D01*
X150730782Y-105529342D01*
X151076877Y-105760595D01*
X151485124Y-105841800D01*
X152044876Y-105841800D01*
X152453123Y-105760595D01*
X152799218Y-105529342D01*
X153030471Y-105183247D01*
X153111676Y-104775000D01*
X153030471Y-104366753D01*
X152799218Y-104020658D01*
X152453123Y-103789405D01*
X152044876Y-103708200D01*
X151485124Y-103708200D01*
X151076877Y-103789405D01*
X150730782Y-104020658D01*
X150499529Y-104366753D01*
X150418324Y-104775000D01*
X148083471Y-104775000D01*
X147998399Y-104347313D01*
X147756134Y-103984737D01*
X147393558Y-103742472D01*
X146965871Y-103657400D01*
X146404129Y-103657400D01*
X145976442Y-103742472D01*
X145613866Y-103984737D01*
X145371601Y-104347313D01*
X145286529Y-104775000D01*
X131018429Y-104775000D01*
X130591112Y-104597563D01*
X129762523Y-104596840D01*
X128996730Y-104913259D01*
X128410318Y-105498648D01*
X128092563Y-106263888D01*
X128091840Y-107092477D01*
X127589197Y-107092477D01*
X127596900Y-107053752D01*
X127596900Y-106306248D01*
X127503127Y-105834820D01*
X127236085Y-105435163D01*
X126836428Y-105168121D01*
X126365000Y-105074348D01*
X125893572Y-105168121D01*
X125493915Y-105435163D01*
X125226873Y-105834820D01*
X125133100Y-106306248D01*
X125056900Y-106306248D01*
X124963127Y-105834820D01*
X124696085Y-105435163D01*
X124296428Y-105168121D01*
X123825000Y-105074348D01*
X123353572Y-105168121D01*
X122953915Y-105435163D01*
X122686873Y-105834820D01*
X122593100Y-106306248D01*
X122516900Y-106306248D01*
X122423127Y-105834820D01*
X122156085Y-105435163D01*
X121756428Y-105168121D01*
X121285000Y-105074348D01*
X120813572Y-105168121D01*
X120413915Y-105435163D01*
X120146873Y-105834820D01*
X120053100Y-106306248D01*
X119976900Y-106306248D01*
X119883127Y-105834820D01*
X119616085Y-105435163D01*
X119216428Y-105168121D01*
X118745000Y-105074348D01*
X118273572Y-105168121D01*
X117873915Y-105435163D01*
X117606873Y-105834820D01*
X117513100Y-106306248D01*
X117436900Y-106306248D01*
X117343127Y-105834820D01*
X117076085Y-105435163D01*
X116676428Y-105168121D01*
X116205000Y-105074348D01*
X115733572Y-105168121D01*
X115333915Y-105435163D01*
X115066873Y-105834820D01*
X114973100Y-106306248D01*
X114896900Y-106306248D01*
X114803127Y-105834820D01*
X114536085Y-105435163D01*
X114136428Y-105168121D01*
X113665000Y-105074348D01*
X113193572Y-105168121D01*
X112793915Y-105435163D01*
X112526873Y-105834820D01*
X112433100Y-106306248D01*
X112356900Y-106306248D01*
X112263127Y-105834820D01*
X111996085Y-105435163D01*
X111596428Y-105168121D01*
X111125000Y-105074348D01*
X110653572Y-105168121D01*
X110253915Y-105435163D01*
X109986873Y-105834820D01*
X109893100Y-106306248D01*
X109816900Y-106306248D01*
X109723127Y-105834820D01*
X109456085Y-105435163D01*
X109056428Y-105168121D01*
X108585000Y-105074348D01*
X108113572Y-105168121D01*
X107713915Y-105435163D01*
X107446873Y-105834820D01*
X107353100Y-106306248D01*
X107276900Y-106306248D01*
X107183127Y-105834820D01*
X106916085Y-105435163D01*
X106516428Y-105168121D01*
X106045000Y-105074348D01*
X105573572Y-105168121D01*
X105173915Y-105435163D01*
X104906873Y-105834820D01*
X104813100Y-106306248D01*
X104736900Y-106306248D01*
X104643127Y-105834820D01*
X104376085Y-105435163D01*
X103976428Y-105168121D01*
X103505000Y-105074348D01*
X103033572Y-105168121D01*
X102633915Y-105435163D01*
X102366873Y-105834820D01*
X102273100Y-106306248D01*
X102196900Y-106306248D01*
X102103127Y-105834820D01*
X101836085Y-105435163D01*
X101436428Y-105168121D01*
X100965000Y-105074348D01*
X100493572Y-105168121D01*
X100093915Y-105435163D01*
X99826873Y-105834820D01*
X99733100Y-106306248D01*
X99656900Y-106306248D01*
X99563127Y-105834820D01*
X99296085Y-105435163D01*
X98896428Y-105168121D01*
X98425000Y-105074348D01*
X97953572Y-105168121D01*
X97553915Y-105435163D01*
X97286873Y-105834820D01*
X97193100Y-106306248D01*
X97116900Y-106306248D01*
X97023127Y-105834820D01*
X96756085Y-105435163D01*
X96356428Y-105168121D01*
X95885000Y-105074348D01*
X95413572Y-105168121D01*
X95013915Y-105435163D01*
X94746873Y-105834820D01*
X94653100Y-106306248D01*
X94576900Y-106306248D01*
X94483127Y-105834820D01*
X94216085Y-105435163D01*
X93816428Y-105168121D01*
X93345000Y-105074348D01*
X92873572Y-105168121D01*
X92473915Y-105435163D01*
X92206873Y-105834820D01*
X92113100Y-106306248D01*
X92036900Y-106306248D01*
X91943127Y-105834820D01*
X91676085Y-105435163D01*
X91276428Y-105168121D01*
X90805000Y-105074348D01*
X90333572Y-105168121D01*
X89933915Y-105435163D01*
X89666873Y-105834820D01*
X89573100Y-106306248D01*
X89496900Y-106306248D01*
X89403127Y-105834820D01*
X89136085Y-105435163D01*
X88736428Y-105168121D01*
X88265000Y-105074348D01*
X87793572Y-105168121D01*
X87393915Y-105435163D01*
X87126873Y-105834820D01*
X87033100Y-106306248D01*
X86144100Y-106306248D01*
X86144100Y-102012477D01*
X87451840Y-102012477D01*
X87768259Y-102778270D01*
X88353648Y-103364682D01*
X89118888Y-103682437D01*
X89947477Y-103683160D01*
X90713270Y-103366741D01*
X91299682Y-102781352D01*
X91617437Y-102016112D01*
X91618160Y-101187523D01*
X91301741Y-100421730D01*
X90716352Y-99835318D01*
X89951112Y-99517563D01*
X89122523Y-99516840D01*
X88356730Y-99833259D01*
X87770318Y-100418648D01*
X87452563Y-101183888D01*
X87451840Y-102012477D01*
X86144100Y-102012477D01*
X86144100Y-98779129D01*
X99847400Y-98779129D01*
X99847400Y-99340871D01*
X99932472Y-99768558D01*
X100174737Y-100131134D01*
X100537313Y-100373399D01*
X100965000Y-100458471D01*
X101392687Y-100373399D01*
X101755263Y-100131134D01*
X101997528Y-99768558D01*
X102007107Y-99720400D01*
X102462893Y-99720400D01*
X102472472Y-99768558D01*
X102714737Y-100131134D01*
X103077313Y-100373399D01*
X103505000Y-100458471D01*
X103932687Y-100373399D01*
X104295263Y-100131134D01*
X104537528Y-99768558D01*
X104547107Y-99720400D01*
X105002893Y-99720400D01*
X105012472Y-99768558D01*
X105254737Y-100131134D01*
X105617313Y-100373399D01*
X106045000Y-100458471D01*
X106472687Y-100373399D01*
X106835263Y-100131134D01*
X107077528Y-99768558D01*
X107087107Y-99720400D01*
X107542893Y-99720400D01*
X107552472Y-99768558D01*
X107794737Y-100131134D01*
X108157313Y-100373399D01*
X108585000Y-100458471D01*
X109012687Y-100373399D01*
X109375263Y-100131134D01*
X109617528Y-99768558D01*
X109627107Y-99720400D01*
X110082893Y-99720400D01*
X110092472Y-99768558D01*
X110334737Y-100131134D01*
X110697313Y-100373399D01*
X111125000Y-100458471D01*
X111552687Y-100373399D01*
X111915263Y-100131134D01*
X112157528Y-99768558D01*
X112167107Y-99720400D01*
X112622893Y-99720400D01*
X112632472Y-99768558D01*
X112874737Y-100131134D01*
X113237313Y-100373399D01*
X113665000Y-100458471D01*
X114092687Y-100373399D01*
X114455263Y-100131134D01*
X114697528Y-99768558D01*
X114707107Y-99720400D01*
X115162893Y-99720400D01*
X115172472Y-99768558D01*
X115414737Y-100131134D01*
X115777313Y-100373399D01*
X116205000Y-100458471D01*
X116632687Y-100373399D01*
X116995263Y-100131134D01*
X117237528Y-99768558D01*
X117247107Y-99720400D01*
X117702893Y-99720400D01*
X117712472Y-99768558D01*
X117954737Y-100131134D01*
X118317313Y-100373399D01*
X118745000Y-100458471D01*
X119172687Y-100373399D01*
X119535263Y-100131134D01*
X119777528Y-99768558D01*
X119787107Y-99720400D01*
X144112454Y-99720400D01*
X144833427Y-100441373D01*
X145047676Y-100584530D01*
X145300400Y-100634800D01*
X145579146Y-100634800D01*
X145593806Y-100708502D01*
X145849836Y-101091679D01*
X146233013Y-101347709D01*
X146685000Y-101437615D01*
X147136987Y-101347709D01*
X147520164Y-101091679D01*
X147776194Y-100708502D01*
X147846830Y-100353391D01*
X150326364Y-100353391D01*
X150483706Y-100894419D01*
X150836113Y-101334051D01*
X151329935Y-101605358D01*
X151391247Y-101613976D01*
X151612600Y-101502014D01*
X151612600Y-100126800D01*
X151917400Y-100126800D01*
X151917400Y-101502014D01*
X152138753Y-101613976D01*
X152200065Y-101605358D01*
X152693887Y-101334051D01*
X153046294Y-100894419D01*
X153203636Y-100353391D01*
X153053077Y-100126800D01*
X151917400Y-100126800D01*
X151612600Y-100126800D01*
X150476923Y-100126800D01*
X150326364Y-100353391D01*
X147846830Y-100353391D01*
X147866100Y-100256515D01*
X147866100Y-99692285D01*
X147846831Y-99595409D01*
X150326364Y-99595409D01*
X150476923Y-99822000D01*
X151612600Y-99822000D01*
X151612600Y-98446786D01*
X151917400Y-98446786D01*
X151917400Y-99822000D01*
X153053077Y-99822000D01*
X153203636Y-99595409D01*
X153046294Y-99054381D01*
X152693887Y-98614749D01*
X152200065Y-98343442D01*
X152138753Y-98334824D01*
X151917400Y-98446786D01*
X151612600Y-98446786D01*
X151391247Y-98334824D01*
X151329935Y-98343442D01*
X150836113Y-98614749D01*
X150483706Y-99054381D01*
X150326364Y-99595409D01*
X147846831Y-99595409D01*
X147776194Y-99240298D01*
X147520164Y-98857121D01*
X147136987Y-98601091D01*
X146685000Y-98511185D01*
X146233013Y-98601091D01*
X145849836Y-98857121D01*
X145593806Y-99240298D01*
X145579146Y-99314000D01*
X145573946Y-99314000D01*
X144852973Y-98593027D01*
X144638724Y-98449870D01*
X144386000Y-98399600D01*
X119787107Y-98399600D01*
X119777528Y-98351442D01*
X119558739Y-98024000D01*
X129906867Y-98024000D01*
X130033501Y-98150856D01*
X130308801Y-98265170D01*
X130606891Y-98265430D01*
X130882390Y-98151596D01*
X131093356Y-97940999D01*
X131207670Y-97665699D01*
X131207930Y-97367609D01*
X131094096Y-97092110D01*
X130883499Y-96881144D01*
X130850448Y-96867420D01*
X130957670Y-96609199D01*
X130957930Y-96311109D01*
X130844096Y-96035610D01*
X130633499Y-95824644D01*
X130358199Y-95710330D01*
X130060109Y-95710070D01*
X129784610Y-95823904D01*
X129573644Y-96034501D01*
X129459330Y-96309801D01*
X129459172Y-96490407D01*
X129449980Y-96499600D01*
X123886299Y-96499600D01*
X123926370Y-96403099D01*
X123926630Y-96105009D01*
X123812796Y-95829510D01*
X123685200Y-95701690D01*
X123685200Y-93395800D01*
X148305667Y-93395800D01*
X148464211Y-94192853D01*
X148915705Y-94868562D01*
X149591414Y-95320056D01*
X150388467Y-95478600D01*
X152023933Y-95478600D01*
X152820986Y-95320056D01*
X153496695Y-94868562D01*
X153948189Y-94192853D01*
X154106733Y-93395800D01*
X153948189Y-92598747D01*
X153496695Y-91923038D01*
X152820986Y-91471544D01*
X152023933Y-91313000D01*
X150388467Y-91313000D01*
X149591414Y-91471544D01*
X148915705Y-91923038D01*
X148464211Y-92598747D01*
X148305667Y-93395800D01*
X123685200Y-93395800D01*
X123685200Y-91817000D01*
X123646531Y-91622597D01*
X123536410Y-91457790D01*
X122720374Y-90641754D01*
X122720530Y-90462509D01*
X122606696Y-90187010D01*
X122396099Y-89976044D01*
X122120799Y-89861730D01*
X121822709Y-89861470D01*
X121547210Y-89975304D01*
X121336244Y-90185901D01*
X121221930Y-90461201D01*
X121221670Y-90759291D01*
X121335504Y-91034790D01*
X121546101Y-91245756D01*
X121821401Y-91360070D01*
X122002008Y-91360228D01*
X122669200Y-92027420D01*
X122669200Y-95701767D01*
X122542344Y-95828401D01*
X122428030Y-96103701D01*
X122427770Y-96401791D01*
X122468184Y-96499600D01*
X117198420Y-96499600D01*
X115980925Y-95282105D01*
X116205000Y-95326676D01*
X116613247Y-95245471D01*
X116959342Y-95014218D01*
X117190595Y-94668123D01*
X117271800Y-94259876D01*
X117271800Y-93700124D01*
X117678200Y-93700124D01*
X117678200Y-94259876D01*
X117759405Y-94668123D01*
X117990658Y-95014218D01*
X118336753Y-95245471D01*
X118745000Y-95326676D01*
X119153247Y-95245471D01*
X119499342Y-95014218D01*
X119730595Y-94668123D01*
X119811800Y-94259876D01*
X119811800Y-93700124D01*
X119730595Y-93291877D01*
X119499342Y-92945782D01*
X119253000Y-92781182D01*
X119253000Y-91280871D01*
X119371927Y-91257215D01*
X119472748Y-91189848D01*
X119540115Y-91089027D01*
X119563771Y-90970100D01*
X119563771Y-88335272D01*
X141833600Y-88335272D01*
X141833600Y-89464728D01*
X142015345Y-90378423D01*
X142532912Y-91153016D01*
X143307505Y-91670583D01*
X144221200Y-91852328D01*
X145134895Y-91670583D01*
X145909488Y-91153016D01*
X146427055Y-90378423D01*
X146608800Y-89464728D01*
X146608800Y-88335272D01*
X146427055Y-87421577D01*
X145909488Y-86646984D01*
X145134895Y-86129417D01*
X144221200Y-85947672D01*
X143307505Y-86129417D01*
X142532912Y-86646984D01*
X142015345Y-87421577D01*
X141833600Y-88335272D01*
X119563771Y-88335272D01*
X119563771Y-86474300D01*
X119540115Y-86355373D01*
X119472748Y-86254552D01*
X119371927Y-86187185D01*
X119253000Y-86163529D01*
X118237000Y-86163529D01*
X118118073Y-86187185D01*
X118017252Y-86254552D01*
X117949885Y-86355373D01*
X117926229Y-86474300D01*
X117926229Y-90970100D01*
X117949885Y-91089027D01*
X118017252Y-91189848D01*
X118118073Y-91257215D01*
X118237000Y-91280871D01*
X118237000Y-92781182D01*
X117990658Y-92945782D01*
X117759405Y-93291877D01*
X117678200Y-93700124D01*
X117271800Y-93700124D01*
X117190595Y-93291877D01*
X116959342Y-92945782D01*
X116713000Y-92781182D01*
X116713000Y-91280871D01*
X116831927Y-91257215D01*
X116932748Y-91189848D01*
X117000115Y-91089027D01*
X117023771Y-90970100D01*
X117023771Y-86474300D01*
X117000115Y-86355373D01*
X116932748Y-86254552D01*
X116831927Y-86187185D01*
X116713000Y-86163529D01*
X115697000Y-86163529D01*
X115578073Y-86187185D01*
X115477252Y-86254552D01*
X115409885Y-86355373D01*
X115386229Y-86474300D01*
X115386229Y-90970100D01*
X115409885Y-91089027D01*
X115477252Y-91189848D01*
X115578073Y-91257215D01*
X115697000Y-91280871D01*
X115697000Y-92781182D01*
X115450658Y-92945782D01*
X115219405Y-93291877D01*
X115138200Y-93700124D01*
X115138200Y-94259876D01*
X115182771Y-94483951D01*
X114731800Y-94032980D01*
X114731800Y-93700124D01*
X114650595Y-93291877D01*
X114419342Y-92945782D01*
X114173000Y-92781182D01*
X114173000Y-91280871D01*
X114291927Y-91257215D01*
X114392748Y-91189848D01*
X114460115Y-91089027D01*
X114483771Y-90970100D01*
X114483771Y-86474300D01*
X114460115Y-86355373D01*
X114392748Y-86254552D01*
X114291927Y-86187185D01*
X114173000Y-86163529D01*
X113157000Y-86163529D01*
X113038073Y-86187185D01*
X112937252Y-86254552D01*
X112869885Y-86355373D01*
X112846229Y-86474300D01*
X112846229Y-90970100D01*
X112869885Y-91089027D01*
X112937252Y-91189848D01*
X113038073Y-91257215D01*
X113157000Y-91280871D01*
X113157000Y-92781182D01*
X112910658Y-92945782D01*
X112679405Y-93291877D01*
X112605362Y-93664119D01*
X112576410Y-93620790D01*
X112411603Y-93510669D01*
X112217200Y-93472000D01*
X112146424Y-93472000D01*
X112110595Y-93291877D01*
X111879342Y-92945782D01*
X111633000Y-92781182D01*
X111633000Y-91280871D01*
X111751927Y-91257215D01*
X111852748Y-91189848D01*
X111920115Y-91089027D01*
X111943771Y-90970100D01*
X111943771Y-86474300D01*
X111920115Y-86355373D01*
X111852748Y-86254552D01*
X111751927Y-86187185D01*
X111633000Y-86163529D01*
X110617000Y-86163529D01*
X110498073Y-86187185D01*
X110397252Y-86254552D01*
X110329885Y-86355373D01*
X110306229Y-86474300D01*
X110306229Y-90970100D01*
X110329885Y-91089027D01*
X110397252Y-91189848D01*
X110498073Y-91257215D01*
X110617000Y-91280871D01*
X110617000Y-92781182D01*
X110370658Y-92945782D01*
X110139405Y-93291877D01*
X110058200Y-93700124D01*
X110058200Y-94259876D01*
X110139405Y-94668123D01*
X110370658Y-95014218D01*
X110716753Y-95245471D01*
X111125000Y-95326676D01*
X111533247Y-95245471D01*
X111879342Y-95014218D01*
X111977097Y-94867917D01*
X114984390Y-97875210D01*
X115149196Y-97985331D01*
X115181450Y-97991746D01*
X115343600Y-98024000D01*
X115391261Y-98024000D01*
X115172472Y-98351442D01*
X115162893Y-98399600D01*
X114707107Y-98399600D01*
X114697528Y-98351442D01*
X114455263Y-97988866D01*
X114092687Y-97746601D01*
X113665000Y-97661529D01*
X113237313Y-97746601D01*
X112874737Y-97988866D01*
X112632472Y-98351442D01*
X112622893Y-98399600D01*
X112167107Y-98399600D01*
X112157528Y-98351442D01*
X111915263Y-97988866D01*
X111552687Y-97746601D01*
X111125000Y-97661529D01*
X110697313Y-97746601D01*
X110334737Y-97988866D01*
X110092472Y-98351442D01*
X110082893Y-98399600D01*
X109627107Y-98399600D01*
X109617528Y-98351442D01*
X109375263Y-97988866D01*
X109012687Y-97746601D01*
X108585000Y-97661529D01*
X108157313Y-97746601D01*
X107794737Y-97988866D01*
X107552472Y-98351442D01*
X107542893Y-98399600D01*
X107087107Y-98399600D01*
X107077528Y-98351442D01*
X106835263Y-97988866D01*
X106472687Y-97746601D01*
X106045000Y-97661529D01*
X105617313Y-97746601D01*
X105254737Y-97988866D01*
X105012472Y-98351442D01*
X105002893Y-98399600D01*
X104547107Y-98399600D01*
X104537528Y-98351442D01*
X104295263Y-97988866D01*
X103932687Y-97746601D01*
X103505000Y-97661529D01*
X103077313Y-97746601D01*
X102714737Y-97988866D01*
X102472472Y-98351442D01*
X102462893Y-98399600D01*
X102007107Y-98399600D01*
X101997528Y-98351442D01*
X101755263Y-97988866D01*
X101392687Y-97746601D01*
X100965000Y-97661529D01*
X100537313Y-97746601D01*
X100174737Y-97988866D01*
X99932472Y-98351442D01*
X99847400Y-98779129D01*
X86144100Y-98779129D01*
X86144100Y-93700124D01*
X99898200Y-93700124D01*
X99898200Y-94259876D01*
X99979405Y-94668123D01*
X100210658Y-95014218D01*
X100556753Y-95245471D01*
X100965000Y-95326676D01*
X101373247Y-95245471D01*
X101719342Y-95014218D01*
X101950595Y-94668123D01*
X102031800Y-94259876D01*
X102031800Y-93700124D01*
X102438200Y-93700124D01*
X102438200Y-94259876D01*
X102519405Y-94668123D01*
X102750658Y-95014218D01*
X103096753Y-95245471D01*
X103505000Y-95326676D01*
X103913247Y-95245471D01*
X104259342Y-95014218D01*
X104490595Y-94668123D01*
X104571800Y-94259876D01*
X104571800Y-93700124D01*
X104978200Y-93700124D01*
X104978200Y-94259876D01*
X105059405Y-94668123D01*
X105290658Y-95014218D01*
X105636753Y-95245471D01*
X106045000Y-95326676D01*
X106453247Y-95245471D01*
X106799342Y-95014218D01*
X107030595Y-94668123D01*
X107111800Y-94259876D01*
X107111800Y-93700124D01*
X107518200Y-93700124D01*
X107518200Y-94259876D01*
X107599405Y-94668123D01*
X107830658Y-95014218D01*
X108176753Y-95245471D01*
X108585000Y-95326676D01*
X108993247Y-95245471D01*
X109339342Y-95014218D01*
X109570595Y-94668123D01*
X109651800Y-94259876D01*
X109651800Y-93700124D01*
X109570595Y-93291877D01*
X109339342Y-92945782D01*
X109093000Y-92781182D01*
X109093000Y-91280871D01*
X109211927Y-91257215D01*
X109312748Y-91189848D01*
X109380115Y-91089027D01*
X109403771Y-90970100D01*
X109403771Y-86474300D01*
X109380115Y-86355373D01*
X109312748Y-86254552D01*
X109211927Y-86187185D01*
X109093000Y-86163529D01*
X108077000Y-86163529D01*
X107958073Y-86187185D01*
X107857252Y-86254552D01*
X107789885Y-86355373D01*
X107766229Y-86474300D01*
X107766229Y-90970100D01*
X107789885Y-91089027D01*
X107857252Y-91189848D01*
X107958073Y-91257215D01*
X108077000Y-91280871D01*
X108077000Y-92781182D01*
X107830658Y-92945782D01*
X107599405Y-93291877D01*
X107518200Y-93700124D01*
X107111800Y-93700124D01*
X107030595Y-93291877D01*
X106799342Y-92945782D01*
X106553000Y-92781182D01*
X106553000Y-91280871D01*
X106671927Y-91257215D01*
X106772748Y-91189848D01*
X106840115Y-91089027D01*
X106863771Y-90970100D01*
X106863771Y-86474300D01*
X106840115Y-86355373D01*
X106772748Y-86254552D01*
X106671927Y-86187185D01*
X106553000Y-86163529D01*
X105537000Y-86163529D01*
X105418073Y-86187185D01*
X105317252Y-86254552D01*
X105249885Y-86355373D01*
X105226229Y-86474300D01*
X105226229Y-90970100D01*
X105249885Y-91089027D01*
X105317252Y-91189848D01*
X105418073Y-91257215D01*
X105537000Y-91280871D01*
X105537000Y-92781182D01*
X105290658Y-92945782D01*
X105059405Y-93291877D01*
X104978200Y-93700124D01*
X104571800Y-93700124D01*
X104490595Y-93291877D01*
X104259342Y-92945782D01*
X104013000Y-92781182D01*
X104013000Y-91280871D01*
X104131927Y-91257215D01*
X104232748Y-91189848D01*
X104300115Y-91089027D01*
X104323771Y-90970100D01*
X104323771Y-86474300D01*
X104300115Y-86355373D01*
X104232748Y-86254552D01*
X104131927Y-86187185D01*
X104013000Y-86163529D01*
X102997000Y-86163529D01*
X102878073Y-86187185D01*
X102777252Y-86254552D01*
X102709885Y-86355373D01*
X102686229Y-86474300D01*
X102686229Y-90970100D01*
X102709885Y-91089027D01*
X102777252Y-91189848D01*
X102878073Y-91257215D01*
X102997000Y-91280871D01*
X102997000Y-92781182D01*
X102750658Y-92945782D01*
X102519405Y-93291877D01*
X102438200Y-93700124D01*
X102031800Y-93700124D01*
X101950595Y-93291877D01*
X101719342Y-92945782D01*
X101473000Y-92781182D01*
X101473000Y-91280871D01*
X101591927Y-91257215D01*
X101692748Y-91189848D01*
X101760115Y-91089027D01*
X101783771Y-90970100D01*
X101783771Y-86474300D01*
X101760115Y-86355373D01*
X101692748Y-86254552D01*
X101591927Y-86187185D01*
X101473000Y-86163529D01*
X100457000Y-86163529D01*
X100338073Y-86187185D01*
X100237252Y-86254552D01*
X100169885Y-86355373D01*
X100146229Y-86474300D01*
X100146229Y-90970100D01*
X100169885Y-91089027D01*
X100237252Y-91189848D01*
X100338073Y-91257215D01*
X100457000Y-91280871D01*
X100457000Y-92781182D01*
X100210658Y-92945782D01*
X99979405Y-93291877D01*
X99898200Y-93700124D01*
X86144100Y-93700124D01*
X86144100Y-83032600D01*
X99847400Y-83032600D01*
X99847400Y-85096957D01*
X99940206Y-85321011D01*
X100111689Y-85492494D01*
X100335743Y-85585300D01*
X100660200Y-85585300D01*
X100812600Y-85432900D01*
X100812600Y-82880200D01*
X101117400Y-82880200D01*
X101117400Y-85432900D01*
X101269800Y-85585300D01*
X101594257Y-85585300D01*
X101818311Y-85492494D01*
X101989794Y-85321011D01*
X102082600Y-85096957D01*
X102082600Y-83032600D01*
X102387400Y-83032600D01*
X102387400Y-85096957D01*
X102480206Y-85321011D01*
X102651689Y-85492494D01*
X102875743Y-85585300D01*
X103200200Y-85585300D01*
X103352600Y-85432900D01*
X103352600Y-82880200D01*
X103657400Y-82880200D01*
X103657400Y-85432900D01*
X103809800Y-85585300D01*
X104134257Y-85585300D01*
X104358311Y-85492494D01*
X104529794Y-85321011D01*
X104622600Y-85096957D01*
X104622600Y-83032600D01*
X104927400Y-83032600D01*
X104927400Y-85096957D01*
X105020206Y-85321011D01*
X105191689Y-85492494D01*
X105415743Y-85585300D01*
X105740200Y-85585300D01*
X105892600Y-85432900D01*
X105892600Y-82880200D01*
X106197400Y-82880200D01*
X106197400Y-85432900D01*
X106349800Y-85585300D01*
X106674257Y-85585300D01*
X106898311Y-85492494D01*
X107069794Y-85321011D01*
X107162600Y-85096957D01*
X107162600Y-83032600D01*
X107467400Y-83032600D01*
X107467400Y-85096957D01*
X107560206Y-85321011D01*
X107731689Y-85492494D01*
X107955743Y-85585300D01*
X108280200Y-85585300D01*
X108432600Y-85432900D01*
X108432600Y-82880200D01*
X108737400Y-82880200D01*
X108737400Y-85432900D01*
X108889800Y-85585300D01*
X109214257Y-85585300D01*
X109438311Y-85492494D01*
X109609794Y-85321011D01*
X109702600Y-85096957D01*
X109702600Y-83032600D01*
X110007400Y-83032600D01*
X110007400Y-85096957D01*
X110100206Y-85321011D01*
X110271689Y-85492494D01*
X110495743Y-85585300D01*
X110820200Y-85585300D01*
X110972600Y-85432900D01*
X110972600Y-82880200D01*
X111277400Y-82880200D01*
X111277400Y-85432900D01*
X111429800Y-85585300D01*
X111754257Y-85585300D01*
X111978311Y-85492494D01*
X112149794Y-85321011D01*
X112242600Y-85096957D01*
X112242600Y-83032600D01*
X112547400Y-83032600D01*
X112547400Y-85096957D01*
X112640206Y-85321011D01*
X112811689Y-85492494D01*
X113035743Y-85585300D01*
X113360200Y-85585300D01*
X113512600Y-85432900D01*
X113512600Y-82880200D01*
X113817400Y-82880200D01*
X113817400Y-85432900D01*
X113969800Y-85585300D01*
X114294257Y-85585300D01*
X114518311Y-85492494D01*
X114689794Y-85321011D01*
X114782600Y-85096957D01*
X114782600Y-83032600D01*
X115087400Y-83032600D01*
X115087400Y-85096957D01*
X115180206Y-85321011D01*
X115351689Y-85492494D01*
X115575743Y-85585300D01*
X115900200Y-85585300D01*
X116052600Y-85432900D01*
X116052600Y-82880200D01*
X116357400Y-82880200D01*
X116357400Y-85432900D01*
X116509800Y-85585300D01*
X116834257Y-85585300D01*
X117058311Y-85492494D01*
X117229794Y-85321011D01*
X117322600Y-85096957D01*
X117322600Y-83032600D01*
X117627400Y-83032600D01*
X117627400Y-85096957D01*
X117720206Y-85321011D01*
X117891689Y-85492494D01*
X118115743Y-85585300D01*
X118440200Y-85585300D01*
X118592600Y-85432900D01*
X118592600Y-82880200D01*
X118897400Y-82880200D01*
X118897400Y-85432900D01*
X119049800Y-85585300D01*
X119374257Y-85585300D01*
X119598311Y-85492494D01*
X119769794Y-85321011D01*
X119862600Y-85096957D01*
X119862600Y-83032600D01*
X119710200Y-82880200D01*
X118897400Y-82880200D01*
X118592600Y-82880200D01*
X117779800Y-82880200D01*
X117627400Y-83032600D01*
X117322600Y-83032600D01*
X117170200Y-82880200D01*
X116357400Y-82880200D01*
X116052600Y-82880200D01*
X115239800Y-82880200D01*
X115087400Y-83032600D01*
X114782600Y-83032600D01*
X114630200Y-82880200D01*
X113817400Y-82880200D01*
X113512600Y-82880200D01*
X112699800Y-82880200D01*
X112547400Y-83032600D01*
X112242600Y-83032600D01*
X112090200Y-82880200D01*
X111277400Y-82880200D01*
X110972600Y-82880200D01*
X110159800Y-82880200D01*
X110007400Y-83032600D01*
X109702600Y-83032600D01*
X109550200Y-82880200D01*
X108737400Y-82880200D01*
X108432600Y-82880200D01*
X107619800Y-82880200D01*
X107467400Y-83032600D01*
X107162600Y-83032600D01*
X107010200Y-82880200D01*
X106197400Y-82880200D01*
X105892600Y-82880200D01*
X105079800Y-82880200D01*
X104927400Y-83032600D01*
X104622600Y-83032600D01*
X104470200Y-82880200D01*
X103657400Y-82880200D01*
X103352600Y-82880200D01*
X102539800Y-82880200D01*
X102387400Y-83032600D01*
X102082600Y-83032600D01*
X101930200Y-82880200D01*
X101117400Y-82880200D01*
X100812600Y-82880200D01*
X99999800Y-82880200D01*
X99847400Y-83032600D01*
X86144100Y-83032600D01*
X86144100Y-80358643D01*
X99847400Y-80358643D01*
X99847400Y-82423000D01*
X99999800Y-82575400D01*
X100812600Y-82575400D01*
X100812600Y-80022700D01*
X101117400Y-80022700D01*
X101117400Y-82575400D01*
X101930200Y-82575400D01*
X102082600Y-82423000D01*
X102082600Y-80358643D01*
X102387400Y-80358643D01*
X102387400Y-82423000D01*
X102539800Y-82575400D01*
X103352600Y-82575400D01*
X103352600Y-80022700D01*
X103657400Y-80022700D01*
X103657400Y-82575400D01*
X104470200Y-82575400D01*
X104622600Y-82423000D01*
X104622600Y-80358643D01*
X104529794Y-80134589D01*
X104358311Y-79963106D01*
X104134257Y-79870300D01*
X103809800Y-79870300D01*
X103657400Y-80022700D01*
X103352600Y-80022700D01*
X103200200Y-79870300D01*
X102875743Y-79870300D01*
X102651689Y-79963106D01*
X102480206Y-80134589D01*
X102387400Y-80358643D01*
X102082600Y-80358643D01*
X101989794Y-80134589D01*
X101818311Y-79963106D01*
X101594257Y-79870300D01*
X101269800Y-79870300D01*
X101117400Y-80022700D01*
X100812600Y-80022700D01*
X100660200Y-79870300D01*
X100335743Y-79870300D01*
X100111689Y-79963106D01*
X99940206Y-80134589D01*
X99847400Y-80358643D01*
X86144100Y-80358643D01*
X86144100Y-76612477D01*
X87451840Y-76612477D01*
X87768259Y-77378270D01*
X88353648Y-77964682D01*
X89118888Y-78282437D01*
X89947477Y-78283160D01*
X90713270Y-77966741D01*
X91299682Y-77381352D01*
X91617437Y-76616112D01*
X91618160Y-75787523D01*
X91301741Y-75021730D01*
X90716352Y-74435318D01*
X89951112Y-74117563D01*
X89122523Y-74116840D01*
X88356730Y-74433259D01*
X87770318Y-75018648D01*
X87452563Y-75783888D01*
X87451840Y-76612477D01*
X86144100Y-76612477D01*
X86144100Y-71424800D01*
X86728300Y-71424800D01*
X86728300Y-72511257D01*
X86821106Y-72735311D01*
X86992589Y-72906794D01*
X87216643Y-72999600D01*
X87960200Y-72999600D01*
X88112600Y-72847200D01*
X88112600Y-71272400D01*
X86880700Y-71272400D01*
X86728300Y-71424800D01*
X86144100Y-71424800D01*
X86144100Y-69728743D01*
X86728300Y-69728743D01*
X86728300Y-70815200D01*
X86880700Y-70967600D01*
X88112600Y-70967600D01*
X88112600Y-69392800D01*
X88417400Y-69392800D01*
X88417400Y-70967600D01*
X88437400Y-70967600D01*
X88437400Y-71272400D01*
X88417400Y-71272400D01*
X88417400Y-72847200D01*
X88569800Y-72999600D01*
X89313357Y-72999600D01*
X89537411Y-72906794D01*
X89708894Y-72735311D01*
X89801700Y-72511257D01*
X89801700Y-72166963D01*
X89933915Y-72364837D01*
X90333572Y-72631879D01*
X90805000Y-72725652D01*
X91276428Y-72631879D01*
X91676085Y-72364837D01*
X91943127Y-71965180D01*
X92010196Y-71628000D01*
X92062300Y-71628000D01*
X92136854Y-71613170D01*
X92206873Y-71965180D01*
X92473915Y-72364837D01*
X92873572Y-72631879D01*
X93345000Y-72725652D01*
X93816428Y-72631879D01*
X94216085Y-72364837D01*
X94483127Y-71965180D01*
X94576900Y-71493752D01*
X94576900Y-70746248D01*
X94483127Y-70274820D01*
X94317539Y-70027000D01*
X94912461Y-70027000D01*
X94746873Y-70274820D01*
X94653100Y-70746248D01*
X94653100Y-71493752D01*
X94746873Y-71965180D01*
X95013915Y-72364837D01*
X95413572Y-72631879D01*
X95885000Y-72725652D01*
X96356428Y-72631879D01*
X96756085Y-72364837D01*
X96799357Y-72300077D01*
X104832390Y-80333110D01*
X104927400Y-80396594D01*
X104927400Y-82423000D01*
X105079800Y-82575400D01*
X105892600Y-82575400D01*
X105892600Y-82555400D01*
X106197400Y-82555400D01*
X106197400Y-82575400D01*
X107010200Y-82575400D01*
X107162600Y-82423000D01*
X107162600Y-80481900D01*
X107467400Y-80481900D01*
X107467400Y-82423000D01*
X107619800Y-82575400D01*
X108432600Y-82575400D01*
X108432600Y-82555400D01*
X108737400Y-82555400D01*
X108737400Y-82575400D01*
X109550200Y-82575400D01*
X109702600Y-82423000D01*
X109702600Y-80481900D01*
X110007400Y-80481900D01*
X110007400Y-82423000D01*
X110159800Y-82575400D01*
X110972600Y-82575400D01*
X110972600Y-82555400D01*
X111277400Y-82555400D01*
X111277400Y-82575400D01*
X112090200Y-82575400D01*
X112242600Y-82423000D01*
X112242600Y-80481900D01*
X112547400Y-80481900D01*
X112547400Y-82423000D01*
X112699800Y-82575400D01*
X113512600Y-82575400D01*
X113512600Y-82555400D01*
X113817400Y-82555400D01*
X113817400Y-82575400D01*
X114630200Y-82575400D01*
X114782600Y-82423000D01*
X114782600Y-80481900D01*
X115087400Y-80481900D01*
X115087400Y-82423000D01*
X115239800Y-82575400D01*
X116052600Y-82575400D01*
X116052600Y-82555400D01*
X116357400Y-82555400D01*
X116357400Y-82575400D01*
X117170200Y-82575400D01*
X117322600Y-82423000D01*
X117322600Y-80481900D01*
X117627400Y-80481900D01*
X117627400Y-82423000D01*
X117779800Y-82575400D01*
X118592600Y-82575400D01*
X118592600Y-82555400D01*
X118897400Y-82555400D01*
X118897400Y-82575400D01*
X119710200Y-82575400D01*
X119862600Y-82423000D01*
X119862600Y-80481900D01*
X131473080Y-80481900D01*
X134658126Y-83666946D01*
X134657970Y-83846191D01*
X134771804Y-84121690D01*
X134982401Y-84332656D01*
X135257701Y-84446970D01*
X135555791Y-84447230D01*
X135831290Y-84333396D01*
X135959110Y-84205800D01*
X144802980Y-84205800D01*
X147748190Y-87151010D01*
X147912997Y-87261131D01*
X147921998Y-87262921D01*
X147676081Y-87427238D01*
X147224587Y-88102947D01*
X147066043Y-88900000D01*
X147224587Y-89697053D01*
X147676081Y-90372762D01*
X148351790Y-90824256D01*
X149148843Y-90982800D01*
X150266357Y-90982800D01*
X151063410Y-90824256D01*
X151739119Y-90372762D01*
X152190613Y-89697053D01*
X152194495Y-89677538D01*
X152492463Y-89976026D01*
X152959073Y-90169779D01*
X153464310Y-90170220D01*
X153931258Y-89977282D01*
X154288826Y-89620337D01*
X154482579Y-89153727D01*
X154483020Y-88648490D01*
X154290082Y-88181542D01*
X153933137Y-87823974D01*
X153466527Y-87630221D01*
X152961290Y-87629780D01*
X152494342Y-87822718D01*
X152194425Y-88122112D01*
X152190613Y-88102947D01*
X151739119Y-87427238D01*
X151063410Y-86975744D01*
X150723600Y-86908151D01*
X150723600Y-86791800D01*
X150684931Y-86597397D01*
X150611166Y-86487000D01*
X152023933Y-86487000D01*
X152820986Y-86328456D01*
X153496695Y-85876962D01*
X153948189Y-85201253D01*
X154106733Y-84404200D01*
X153948189Y-83607147D01*
X153496695Y-82931438D01*
X152820986Y-82479944D01*
X152023933Y-82321400D01*
X150388467Y-82321400D01*
X149591414Y-82479944D01*
X148915705Y-82931438D01*
X148464211Y-83607147D01*
X148305667Y-84404200D01*
X148464211Y-85201253D01*
X148915705Y-85876962D01*
X149524582Y-86283800D01*
X148317820Y-86283800D01*
X145372610Y-83338590D01*
X145207803Y-83228469D01*
X145013400Y-83189800D01*
X135959033Y-83189800D01*
X135832399Y-83062944D01*
X135557099Y-82948630D01*
X135376492Y-82948472D01*
X132042710Y-79614690D01*
X131877903Y-79504569D01*
X131683500Y-79465900D01*
X105402020Y-79465900D01*
X98622489Y-72686369D01*
X98896428Y-72631879D01*
X99296085Y-72364837D01*
X99316846Y-72333766D01*
X99323090Y-72343110D01*
X101165390Y-74185410D01*
X101330197Y-74295531D01*
X101524600Y-74334200D01*
X127321467Y-74334200D01*
X127448101Y-74461056D01*
X127723401Y-74575370D01*
X128021491Y-74575630D01*
X128296990Y-74461796D01*
X128507956Y-74251199D01*
X128622270Y-73975899D01*
X128622530Y-73677809D01*
X128508696Y-73402310D01*
X128298099Y-73191344D01*
X128022799Y-73077030D01*
X127724709Y-73076770D01*
X127449210Y-73190604D01*
X127321390Y-73318200D01*
X101735020Y-73318200D01*
X101113027Y-72696207D01*
X101436428Y-72631879D01*
X101836085Y-72364837D01*
X102103127Y-71965180D01*
X102196900Y-71493752D01*
X102196900Y-70746248D01*
X102273100Y-70746248D01*
X102273100Y-71493752D01*
X102366873Y-71965180D01*
X102633915Y-72364837D01*
X103033572Y-72631879D01*
X103505000Y-72725652D01*
X103976428Y-72631879D01*
X104376085Y-72364837D01*
X104643127Y-71965180D01*
X104736900Y-71493752D01*
X104736900Y-70746248D01*
X104813100Y-70746248D01*
X104813100Y-71493752D01*
X104906873Y-71965180D01*
X105173915Y-72364837D01*
X105573572Y-72631879D01*
X106045000Y-72725652D01*
X106516428Y-72631879D01*
X106916085Y-72364837D01*
X107183127Y-71965180D01*
X107276900Y-71493752D01*
X107276900Y-70746248D01*
X107353100Y-70746248D01*
X107353100Y-71493752D01*
X107446873Y-71965180D01*
X107713915Y-72364837D01*
X108113572Y-72631879D01*
X108585000Y-72725652D01*
X109056428Y-72631879D01*
X109456085Y-72364837D01*
X109723127Y-71965180D01*
X109816900Y-71493752D01*
X109816900Y-70746248D01*
X109893100Y-70746248D01*
X109893100Y-71493752D01*
X109986873Y-71965180D01*
X110253915Y-72364837D01*
X110653572Y-72631879D01*
X111125000Y-72725652D01*
X111596428Y-72631879D01*
X111996085Y-72364837D01*
X112263127Y-71965180D01*
X112356900Y-71493752D01*
X112356900Y-70746248D01*
X112433100Y-70746248D01*
X112433100Y-71493752D01*
X112526873Y-71965180D01*
X112793915Y-72364837D01*
X113193572Y-72631879D01*
X113665000Y-72725652D01*
X114136428Y-72631879D01*
X114536085Y-72364837D01*
X114803127Y-71965180D01*
X114896900Y-71493752D01*
X114896900Y-70746248D01*
X114973100Y-70746248D01*
X114973100Y-71493752D01*
X115066873Y-71965180D01*
X115333915Y-72364837D01*
X115733572Y-72631879D01*
X116205000Y-72725652D01*
X116676428Y-72631879D01*
X117076085Y-72364837D01*
X117343127Y-71965180D01*
X117436900Y-71493752D01*
X117436900Y-70746248D01*
X117513100Y-70746248D01*
X117513100Y-71493752D01*
X117606873Y-71965180D01*
X117873915Y-72364837D01*
X118273572Y-72631879D01*
X118745000Y-72725652D01*
X119216428Y-72631879D01*
X119616085Y-72364837D01*
X119883127Y-71965180D01*
X119976900Y-71493752D01*
X119976900Y-70746248D01*
X120053100Y-70746248D01*
X120053100Y-71493752D01*
X120146873Y-71965180D01*
X120413915Y-72364837D01*
X120813572Y-72631879D01*
X121285000Y-72725652D01*
X121756428Y-72631879D01*
X122156085Y-72364837D01*
X122423127Y-71965180D01*
X122516900Y-71493752D01*
X122516900Y-70746248D01*
X122593100Y-70746248D01*
X122593100Y-71493752D01*
X122686873Y-71965180D01*
X122953915Y-72364837D01*
X123353572Y-72631879D01*
X123825000Y-72725652D01*
X124296428Y-72631879D01*
X124696085Y-72364837D01*
X124963127Y-71965180D01*
X125056900Y-71493752D01*
X125056900Y-70746248D01*
X125133100Y-70746248D01*
X125133100Y-71493752D01*
X125226873Y-71965180D01*
X125493915Y-72364837D01*
X125893572Y-72631879D01*
X126365000Y-72725652D01*
X126836428Y-72631879D01*
X127236085Y-72364837D01*
X127503127Y-71965180D01*
X127589197Y-71532477D01*
X128091840Y-71532477D01*
X128408259Y-72298270D01*
X128993648Y-72884682D01*
X129758888Y-73202437D01*
X130587477Y-73203160D01*
X131353270Y-72886741D01*
X131939682Y-72301352D01*
X132257437Y-71536112D01*
X132258160Y-70707523D01*
X131941741Y-69941730D01*
X131356352Y-69355318D01*
X130591112Y-69037563D01*
X129762523Y-69036840D01*
X128996730Y-69353259D01*
X128410318Y-69938648D01*
X128092563Y-70703888D01*
X128091840Y-71532477D01*
X127589197Y-71532477D01*
X127596900Y-71493752D01*
X127596900Y-70746248D01*
X127503127Y-70274820D01*
X127236085Y-69875163D01*
X126836428Y-69608121D01*
X126365000Y-69514348D01*
X125893572Y-69608121D01*
X125493915Y-69875163D01*
X125226873Y-70274820D01*
X125133100Y-70746248D01*
X125056900Y-70746248D01*
X124963127Y-70274820D01*
X124696085Y-69875163D01*
X124296428Y-69608121D01*
X123825000Y-69514348D01*
X123353572Y-69608121D01*
X122953915Y-69875163D01*
X122686873Y-70274820D01*
X122593100Y-70746248D01*
X122516900Y-70746248D01*
X122423127Y-70274820D01*
X122156085Y-69875163D01*
X121756428Y-69608121D01*
X121285000Y-69514348D01*
X120813572Y-69608121D01*
X120413915Y-69875163D01*
X120146873Y-70274820D01*
X120053100Y-70746248D01*
X119976900Y-70746248D01*
X119883127Y-70274820D01*
X119616085Y-69875163D01*
X119216428Y-69608121D01*
X118745000Y-69514348D01*
X118273572Y-69608121D01*
X117873915Y-69875163D01*
X117606873Y-70274820D01*
X117513100Y-70746248D01*
X117436900Y-70746248D01*
X117343127Y-70274820D01*
X117076085Y-69875163D01*
X116676428Y-69608121D01*
X116205000Y-69514348D01*
X115733572Y-69608121D01*
X115333915Y-69875163D01*
X115066873Y-70274820D01*
X114973100Y-70746248D01*
X114896900Y-70746248D01*
X114803127Y-70274820D01*
X114536085Y-69875163D01*
X114136428Y-69608121D01*
X113665000Y-69514348D01*
X113193572Y-69608121D01*
X112793915Y-69875163D01*
X112526873Y-70274820D01*
X112433100Y-70746248D01*
X112356900Y-70746248D01*
X112263127Y-70274820D01*
X111996085Y-69875163D01*
X111596428Y-69608121D01*
X111125000Y-69514348D01*
X110653572Y-69608121D01*
X110253915Y-69875163D01*
X109986873Y-70274820D01*
X109893100Y-70746248D01*
X109816900Y-70746248D01*
X109723127Y-70274820D01*
X109456085Y-69875163D01*
X109056428Y-69608121D01*
X108585000Y-69514348D01*
X108113572Y-69608121D01*
X107713915Y-69875163D01*
X107446873Y-70274820D01*
X107353100Y-70746248D01*
X107276900Y-70746248D01*
X107183127Y-70274820D01*
X106916085Y-69875163D01*
X106516428Y-69608121D01*
X106045000Y-69514348D01*
X105573572Y-69608121D01*
X105173915Y-69875163D01*
X104906873Y-70274820D01*
X104813100Y-70746248D01*
X104736900Y-70746248D01*
X104643127Y-70274820D01*
X104376085Y-69875163D01*
X103976428Y-69608121D01*
X103505000Y-69514348D01*
X103033572Y-69608121D01*
X102633915Y-69875163D01*
X102366873Y-70274820D01*
X102273100Y-70746248D01*
X102196900Y-70746248D01*
X102103127Y-70274820D01*
X101836085Y-69875163D01*
X101436428Y-69608121D01*
X100965000Y-69514348D01*
X100493572Y-69608121D01*
X100093915Y-69875163D01*
X99826873Y-70274820D01*
X99756854Y-70626830D01*
X99682300Y-70612000D01*
X99630196Y-70612000D01*
X99563127Y-70274820D01*
X99296085Y-69875163D01*
X98896428Y-69608121D01*
X98425000Y-69514348D01*
X97953572Y-69608121D01*
X97553915Y-69875163D01*
X97519621Y-69926487D01*
X97514210Y-69918389D01*
X96755610Y-69159790D01*
X96590803Y-69049669D01*
X96396400Y-69011000D01*
X92798900Y-69011000D01*
X92604497Y-69049669D01*
X92439690Y-69159790D01*
X91703090Y-69896390D01*
X91696679Y-69905984D01*
X91676085Y-69875163D01*
X91276428Y-69608121D01*
X90805000Y-69514348D01*
X90333572Y-69608121D01*
X89933915Y-69875163D01*
X89801700Y-70073037D01*
X89801700Y-69728743D01*
X89708894Y-69504689D01*
X89537411Y-69333206D01*
X89313357Y-69240400D01*
X88569800Y-69240400D01*
X88417400Y-69392800D01*
X88112600Y-69392800D01*
X87960200Y-69240400D01*
X87216643Y-69240400D01*
X86992589Y-69333206D01*
X86821106Y-69504689D01*
X86728300Y-69728743D01*
X86144100Y-69728743D01*
X86144100Y-68364100D01*
X155790900Y-68364100D01*
X155790900Y-109435900D01*
X155790900Y-109435900D01*
G37*
X155790900Y-109435900D02*
X86144100Y-109435900D01*
X86144100Y-106306248D01*
X87033100Y-106306248D01*
X87033100Y-107053752D01*
X87126873Y-107525180D01*
X87393915Y-107924837D01*
X87793572Y-108191879D01*
X88265000Y-108285652D01*
X88736428Y-108191879D01*
X89136085Y-107924837D01*
X89403127Y-107525180D01*
X89496900Y-107053752D01*
X89496900Y-106306248D01*
X89573100Y-106306248D01*
X89573100Y-107053752D01*
X89666873Y-107525180D01*
X89933915Y-107924837D01*
X90333572Y-108191879D01*
X90805000Y-108285652D01*
X91276428Y-108191879D01*
X91676085Y-107924837D01*
X91943127Y-107525180D01*
X92036900Y-107053752D01*
X92036900Y-106306248D01*
X92113100Y-106306248D01*
X92113100Y-107053752D01*
X92206873Y-107525180D01*
X92473915Y-107924837D01*
X92873572Y-108191879D01*
X93345000Y-108285652D01*
X93816428Y-108191879D01*
X94216085Y-107924837D01*
X94483127Y-107525180D01*
X94576900Y-107053752D01*
X94576900Y-106306248D01*
X94653100Y-106306248D01*
X94653100Y-107053752D01*
X94746873Y-107525180D01*
X95013915Y-107924837D01*
X95413572Y-108191879D01*
X95885000Y-108285652D01*
X96356428Y-108191879D01*
X96756085Y-107924837D01*
X97023127Y-107525180D01*
X97116900Y-107053752D01*
X97116900Y-106306248D01*
X97193100Y-106306248D01*
X97193100Y-107053752D01*
X97286873Y-107525180D01*
X97553915Y-107924837D01*
X97953572Y-108191879D01*
X98425000Y-108285652D01*
X98896428Y-108191879D01*
X99296085Y-107924837D01*
X99563127Y-107525180D01*
X99656900Y-107053752D01*
X99656900Y-106306248D01*
X99733100Y-106306248D01*
X99733100Y-107053752D01*
X99826873Y-107525180D01*
X100093915Y-107924837D01*
X100493572Y-108191879D01*
X100965000Y-108285652D01*
X101436428Y-108191879D01*
X101836085Y-107924837D01*
X102103127Y-107525180D01*
X102196900Y-107053752D01*
X102196900Y-106306248D01*
X102273100Y-106306248D01*
X102273100Y-107053752D01*
X102366873Y-107525180D01*
X102633915Y-107924837D01*
X103033572Y-108191879D01*
X103505000Y-108285652D01*
X103976428Y-108191879D01*
X104376085Y-107924837D01*
X104643127Y-107525180D01*
X104736900Y-107053752D01*
X104736900Y-106306248D01*
X104813100Y-106306248D01*
X104813100Y-107053752D01*
X104906873Y-107525180D01*
X105173915Y-107924837D01*
X105573572Y-108191879D01*
X106045000Y-108285652D01*
X106516428Y-108191879D01*
X106916085Y-107924837D01*
X107183127Y-107525180D01*
X107276900Y-107053752D01*
X107276900Y-106306248D01*
X107353100Y-106306248D01*
X107353100Y-107053752D01*
X107446873Y-107525180D01*
X107713915Y-107924837D01*
X108113572Y-108191879D01*
X108585000Y-108285652D01*
X109056428Y-108191879D01*
X109456085Y-107924837D01*
X109723127Y-107525180D01*
X109816900Y-107053752D01*
X109816900Y-106306248D01*
X109893100Y-106306248D01*
X109893100Y-107053752D01*
X109986873Y-107525180D01*
X110253915Y-107924837D01*
X110653572Y-108191879D01*
X111125000Y-108285652D01*
X111596428Y-108191879D01*
X111996085Y-107924837D01*
X112263127Y-107525180D01*
X112356900Y-107053752D01*
X112356900Y-106306248D01*
X112433100Y-106306248D01*
X112433100Y-107053752D01*
X112526873Y-107525180D01*
X112793915Y-107924837D01*
X113193572Y-108191879D01*
X113665000Y-108285652D01*
X114136428Y-108191879D01*
X114536085Y-107924837D01*
X114803127Y-107525180D01*
X114896900Y-107053752D01*
X114896900Y-106306248D01*
X114973100Y-106306248D01*
X114973100Y-107053752D01*
X115066873Y-107525180D01*
X115333915Y-107924837D01*
X115733572Y-108191879D01*
X116205000Y-108285652D01*
X116676428Y-108191879D01*
X117076085Y-107924837D01*
X117343127Y-107525180D01*
X117436900Y-107053752D01*
X117436900Y-106306248D01*
X117513100Y-106306248D01*
X117513100Y-107053752D01*
X117606873Y-107525180D01*
X117873915Y-107924837D01*
X118273572Y-108191879D01*
X118745000Y-108285652D01*
X119216428Y-108191879D01*
X119616085Y-107924837D01*
X119883127Y-107525180D01*
X119976900Y-107053752D01*
X119976900Y-106306248D01*
X120053100Y-106306248D01*
X120053100Y-107053752D01*
X120146873Y-107525180D01*
X120413915Y-107924837D01*
X120813572Y-108191879D01*
X121285000Y-108285652D01*
X121756428Y-108191879D01*
X122156085Y-107924837D01*
X122423127Y-107525180D01*
X122516900Y-107053752D01*
X122516900Y-106306248D01*
X122593100Y-106306248D01*
X122593100Y-107053752D01*
X122686873Y-107525180D01*
X122953915Y-107924837D01*
X123353572Y-108191879D01*
X123825000Y-108285652D01*
X124296428Y-108191879D01*
X124696085Y-107924837D01*
X124963127Y-107525180D01*
X125056900Y-107053752D01*
X125056900Y-106306248D01*
X125133100Y-106306248D01*
X125133100Y-107053752D01*
X125226873Y-107525180D01*
X125493915Y-107924837D01*
X125893572Y-108191879D01*
X126365000Y-108285652D01*
X126836428Y-108191879D01*
X127236085Y-107924837D01*
X127503127Y-107525180D01*
X127589197Y-107092477D01*
X128091840Y-107092477D01*
X128408259Y-107858270D01*
X128993648Y-108444682D01*
X129758888Y-108762437D01*
X130587477Y-108763160D01*
X131353270Y-108446741D01*
X131939682Y-107861352D01*
X132257437Y-107096112D01*
X132258160Y-106267523D01*
X131941741Y-105501730D01*
X131356352Y-104915318D01*
X131018429Y-104775000D01*
X145286529Y-104775000D01*
X145371601Y-105202687D01*
X145613866Y-105565263D01*
X145976442Y-105807528D01*
X146404129Y-105892600D01*
X146965871Y-105892600D01*
X147393558Y-105807528D01*
X147756134Y-105565263D01*
X147998399Y-105202687D01*
X148083471Y-104775000D01*
X150418324Y-104775000D01*
X150499529Y-105183247D01*
X150730782Y-105529342D01*
X151076877Y-105760595D01*
X151485124Y-105841800D01*
X152044876Y-105841800D01*
X152453123Y-105760595D01*
X152799218Y-105529342D01*
X153030471Y-105183247D01*
X153111676Y-104775000D01*
X153030471Y-104366753D01*
X152799218Y-104020658D01*
X152453123Y-103789405D01*
X152044876Y-103708200D01*
X151485124Y-103708200D01*
X151076877Y-103789405D01*
X150730782Y-104020658D01*
X150499529Y-104366753D01*
X150418324Y-104775000D01*
X148083471Y-104775000D01*
X147998399Y-104347313D01*
X147756134Y-103984737D01*
X147393558Y-103742472D01*
X146965871Y-103657400D01*
X146404129Y-103657400D01*
X145976442Y-103742472D01*
X145613866Y-103984737D01*
X145371601Y-104347313D01*
X145286529Y-104775000D01*
X131018429Y-104775000D01*
X130591112Y-104597563D01*
X129762523Y-104596840D01*
X128996730Y-104913259D01*
X128410318Y-105498648D01*
X128092563Y-106263888D01*
X128091840Y-107092477D01*
X127589197Y-107092477D01*
X127596900Y-107053752D01*
X127596900Y-106306248D01*
X127503127Y-105834820D01*
X127236085Y-105435163D01*
X126836428Y-105168121D01*
X126365000Y-105074348D01*
X125893572Y-105168121D01*
X125493915Y-105435163D01*
X125226873Y-105834820D01*
X125133100Y-106306248D01*
X125056900Y-106306248D01*
X124963127Y-105834820D01*
X124696085Y-105435163D01*
X124296428Y-105168121D01*
X123825000Y-105074348D01*
X123353572Y-105168121D01*
X122953915Y-105435163D01*
X122686873Y-105834820D01*
X122593100Y-106306248D01*
X122516900Y-106306248D01*
X122423127Y-105834820D01*
X122156085Y-105435163D01*
X121756428Y-105168121D01*
X121285000Y-105074348D01*
X120813572Y-105168121D01*
X120413915Y-105435163D01*
X120146873Y-105834820D01*
X120053100Y-106306248D01*
X119976900Y-106306248D01*
X119883127Y-105834820D01*
X119616085Y-105435163D01*
X119216428Y-105168121D01*
X118745000Y-105074348D01*
X118273572Y-105168121D01*
X117873915Y-105435163D01*
X117606873Y-105834820D01*
X117513100Y-106306248D01*
X117436900Y-106306248D01*
X117343127Y-105834820D01*
X117076085Y-105435163D01*
X116676428Y-105168121D01*
X116205000Y-105074348D01*
X115733572Y-105168121D01*
X115333915Y-105435163D01*
X115066873Y-105834820D01*
X114973100Y-106306248D01*
X114896900Y-106306248D01*
X114803127Y-105834820D01*
X114536085Y-105435163D01*
X114136428Y-105168121D01*
X113665000Y-105074348D01*
X113193572Y-105168121D01*
X112793915Y-105435163D01*
X112526873Y-105834820D01*
X112433100Y-106306248D01*
X112356900Y-106306248D01*
X112263127Y-105834820D01*
X111996085Y-105435163D01*
X111596428Y-105168121D01*
X111125000Y-105074348D01*
X110653572Y-105168121D01*
X110253915Y-105435163D01*
X109986873Y-105834820D01*
X109893100Y-106306248D01*
X109816900Y-106306248D01*
X109723127Y-105834820D01*
X109456085Y-105435163D01*
X109056428Y-105168121D01*
X108585000Y-105074348D01*
X108113572Y-105168121D01*
X107713915Y-105435163D01*
X107446873Y-105834820D01*
X107353100Y-106306248D01*
X107276900Y-106306248D01*
X107183127Y-105834820D01*
X106916085Y-105435163D01*
X106516428Y-105168121D01*
X106045000Y-105074348D01*
X105573572Y-105168121D01*
X105173915Y-105435163D01*
X104906873Y-105834820D01*
X104813100Y-106306248D01*
X104736900Y-106306248D01*
X104643127Y-105834820D01*
X104376085Y-105435163D01*
X103976428Y-105168121D01*
X103505000Y-105074348D01*
X103033572Y-105168121D01*
X102633915Y-105435163D01*
X102366873Y-105834820D01*
X102273100Y-106306248D01*
X102196900Y-106306248D01*
X102103127Y-105834820D01*
X101836085Y-105435163D01*
X101436428Y-105168121D01*
X100965000Y-105074348D01*
X100493572Y-105168121D01*
X100093915Y-105435163D01*
X99826873Y-105834820D01*
X99733100Y-106306248D01*
X99656900Y-106306248D01*
X99563127Y-105834820D01*
X99296085Y-105435163D01*
X98896428Y-105168121D01*
X98425000Y-105074348D01*
X97953572Y-105168121D01*
X97553915Y-105435163D01*
X97286873Y-105834820D01*
X97193100Y-106306248D01*
X97116900Y-106306248D01*
X97023127Y-105834820D01*
X96756085Y-105435163D01*
X96356428Y-105168121D01*
X95885000Y-105074348D01*
X95413572Y-105168121D01*
X95013915Y-105435163D01*
X94746873Y-105834820D01*
X94653100Y-106306248D01*
X94576900Y-106306248D01*
X94483127Y-105834820D01*
X94216085Y-105435163D01*
X93816428Y-105168121D01*
X93345000Y-105074348D01*
X92873572Y-105168121D01*
X92473915Y-105435163D01*
X92206873Y-105834820D01*
X92113100Y-106306248D01*
X92036900Y-106306248D01*
X91943127Y-105834820D01*
X91676085Y-105435163D01*
X91276428Y-105168121D01*
X90805000Y-105074348D01*
X90333572Y-105168121D01*
X89933915Y-105435163D01*
X89666873Y-105834820D01*
X89573100Y-106306248D01*
X89496900Y-106306248D01*
X89403127Y-105834820D01*
X89136085Y-105435163D01*
X88736428Y-105168121D01*
X88265000Y-105074348D01*
X87793572Y-105168121D01*
X87393915Y-105435163D01*
X87126873Y-105834820D01*
X87033100Y-106306248D01*
X86144100Y-106306248D01*
X86144100Y-102012477D01*
X87451840Y-102012477D01*
X87768259Y-102778270D01*
X88353648Y-103364682D01*
X89118888Y-103682437D01*
X89947477Y-103683160D01*
X90713270Y-103366741D01*
X91299682Y-102781352D01*
X91617437Y-102016112D01*
X91618160Y-101187523D01*
X91301741Y-100421730D01*
X90716352Y-99835318D01*
X89951112Y-99517563D01*
X89122523Y-99516840D01*
X88356730Y-99833259D01*
X87770318Y-100418648D01*
X87452563Y-101183888D01*
X87451840Y-102012477D01*
X86144100Y-102012477D01*
X86144100Y-98779129D01*
X99847400Y-98779129D01*
X99847400Y-99340871D01*
X99932472Y-99768558D01*
X100174737Y-100131134D01*
X100537313Y-100373399D01*
X100965000Y-100458471D01*
X101392687Y-100373399D01*
X101755263Y-100131134D01*
X101997528Y-99768558D01*
X102007107Y-99720400D01*
X102462893Y-99720400D01*
X102472472Y-99768558D01*
X102714737Y-100131134D01*
X103077313Y-100373399D01*
X103505000Y-100458471D01*
X103932687Y-100373399D01*
X104295263Y-100131134D01*
X104537528Y-99768558D01*
X104547107Y-99720400D01*
X105002893Y-99720400D01*
X105012472Y-99768558D01*
X105254737Y-100131134D01*
X105617313Y-100373399D01*
X106045000Y-100458471D01*
X106472687Y-100373399D01*
X106835263Y-100131134D01*
X107077528Y-99768558D01*
X107087107Y-99720400D01*
X107542893Y-99720400D01*
X107552472Y-99768558D01*
X107794737Y-100131134D01*
X108157313Y-100373399D01*
X108585000Y-100458471D01*
X109012687Y-100373399D01*
X109375263Y-100131134D01*
X109617528Y-99768558D01*
X109627107Y-99720400D01*
X110082893Y-99720400D01*
X110092472Y-99768558D01*
X110334737Y-100131134D01*
X110697313Y-100373399D01*
X111125000Y-100458471D01*
X111552687Y-100373399D01*
X111915263Y-100131134D01*
X112157528Y-99768558D01*
X112167107Y-99720400D01*
X112622893Y-99720400D01*
X112632472Y-99768558D01*
X112874737Y-100131134D01*
X113237313Y-100373399D01*
X113665000Y-100458471D01*
X114092687Y-100373399D01*
X114455263Y-100131134D01*
X114697528Y-99768558D01*
X114707107Y-99720400D01*
X115162893Y-99720400D01*
X115172472Y-99768558D01*
X115414737Y-100131134D01*
X115777313Y-100373399D01*
X116205000Y-100458471D01*
X116632687Y-100373399D01*
X116995263Y-100131134D01*
X117237528Y-99768558D01*
X117247107Y-99720400D01*
X117702893Y-99720400D01*
X117712472Y-99768558D01*
X117954737Y-100131134D01*
X118317313Y-100373399D01*
X118745000Y-100458471D01*
X119172687Y-100373399D01*
X119535263Y-100131134D01*
X119777528Y-99768558D01*
X119787107Y-99720400D01*
X144112454Y-99720400D01*
X144833427Y-100441373D01*
X145047676Y-100584530D01*
X145300400Y-100634800D01*
X145579146Y-100634800D01*
X145593806Y-100708502D01*
X145849836Y-101091679D01*
X146233013Y-101347709D01*
X146685000Y-101437615D01*
X147136987Y-101347709D01*
X147520164Y-101091679D01*
X147776194Y-100708502D01*
X147846830Y-100353391D01*
X150326364Y-100353391D01*
X150483706Y-100894419D01*
X150836113Y-101334051D01*
X151329935Y-101605358D01*
X151391247Y-101613976D01*
X151612600Y-101502014D01*
X151612600Y-100126800D01*
X151917400Y-100126800D01*
X151917400Y-101502014D01*
X152138753Y-101613976D01*
X152200065Y-101605358D01*
X152693887Y-101334051D01*
X153046294Y-100894419D01*
X153203636Y-100353391D01*
X153053077Y-100126800D01*
X151917400Y-100126800D01*
X151612600Y-100126800D01*
X150476923Y-100126800D01*
X150326364Y-100353391D01*
X147846830Y-100353391D01*
X147866100Y-100256515D01*
X147866100Y-99692285D01*
X147846831Y-99595409D01*
X150326364Y-99595409D01*
X150476923Y-99822000D01*
X151612600Y-99822000D01*
X151612600Y-98446786D01*
X151917400Y-98446786D01*
X151917400Y-99822000D01*
X153053077Y-99822000D01*
X153203636Y-99595409D01*
X153046294Y-99054381D01*
X152693887Y-98614749D01*
X152200065Y-98343442D01*
X152138753Y-98334824D01*
X151917400Y-98446786D01*
X151612600Y-98446786D01*
X151391247Y-98334824D01*
X151329935Y-98343442D01*
X150836113Y-98614749D01*
X150483706Y-99054381D01*
X150326364Y-99595409D01*
X147846831Y-99595409D01*
X147776194Y-99240298D01*
X147520164Y-98857121D01*
X147136987Y-98601091D01*
X146685000Y-98511185D01*
X146233013Y-98601091D01*
X145849836Y-98857121D01*
X145593806Y-99240298D01*
X145579146Y-99314000D01*
X145573946Y-99314000D01*
X144852973Y-98593027D01*
X144638724Y-98449870D01*
X144386000Y-98399600D01*
X119787107Y-98399600D01*
X119777528Y-98351442D01*
X119558739Y-98024000D01*
X129906867Y-98024000D01*
X130033501Y-98150856D01*
X130308801Y-98265170D01*
X130606891Y-98265430D01*
X130882390Y-98151596D01*
X131093356Y-97940999D01*
X131207670Y-97665699D01*
X131207930Y-97367609D01*
X131094096Y-97092110D01*
X130883499Y-96881144D01*
X130850448Y-96867420D01*
X130957670Y-96609199D01*
X130957930Y-96311109D01*
X130844096Y-96035610D01*
X130633499Y-95824644D01*
X130358199Y-95710330D01*
X130060109Y-95710070D01*
X129784610Y-95823904D01*
X129573644Y-96034501D01*
X129459330Y-96309801D01*
X129459172Y-96490407D01*
X129449980Y-96499600D01*
X123886299Y-96499600D01*
X123926370Y-96403099D01*
X123926630Y-96105009D01*
X123812796Y-95829510D01*
X123685200Y-95701690D01*
X123685200Y-93395800D01*
X148305667Y-93395800D01*
X148464211Y-94192853D01*
X148915705Y-94868562D01*
X149591414Y-95320056D01*
X150388467Y-95478600D01*
X152023933Y-95478600D01*
X152820986Y-95320056D01*
X153496695Y-94868562D01*
X153948189Y-94192853D01*
X154106733Y-93395800D01*
X153948189Y-92598747D01*
X153496695Y-91923038D01*
X152820986Y-91471544D01*
X152023933Y-91313000D01*
X150388467Y-91313000D01*
X149591414Y-91471544D01*
X148915705Y-91923038D01*
X148464211Y-92598747D01*
X148305667Y-93395800D01*
X123685200Y-93395800D01*
X123685200Y-91817000D01*
X123646531Y-91622597D01*
X123536410Y-91457790D01*
X122720374Y-90641754D01*
X122720530Y-90462509D01*
X122606696Y-90187010D01*
X122396099Y-89976044D01*
X122120799Y-89861730D01*
X121822709Y-89861470D01*
X121547210Y-89975304D01*
X121336244Y-90185901D01*
X121221930Y-90461201D01*
X121221670Y-90759291D01*
X121335504Y-91034790D01*
X121546101Y-91245756D01*
X121821401Y-91360070D01*
X122002008Y-91360228D01*
X122669200Y-92027420D01*
X122669200Y-95701767D01*
X122542344Y-95828401D01*
X122428030Y-96103701D01*
X122427770Y-96401791D01*
X122468184Y-96499600D01*
X117198420Y-96499600D01*
X115980925Y-95282105D01*
X116205000Y-95326676D01*
X116613247Y-95245471D01*
X116959342Y-95014218D01*
X117190595Y-94668123D01*
X117271800Y-94259876D01*
X117271800Y-93700124D01*
X117678200Y-93700124D01*
X117678200Y-94259876D01*
X117759405Y-94668123D01*
X117990658Y-95014218D01*
X118336753Y-95245471D01*
X118745000Y-95326676D01*
X119153247Y-95245471D01*
X119499342Y-95014218D01*
X119730595Y-94668123D01*
X119811800Y-94259876D01*
X119811800Y-93700124D01*
X119730595Y-93291877D01*
X119499342Y-92945782D01*
X119253000Y-92781182D01*
X119253000Y-91280871D01*
X119371927Y-91257215D01*
X119472748Y-91189848D01*
X119540115Y-91089027D01*
X119563771Y-90970100D01*
X119563771Y-88335272D01*
X141833600Y-88335272D01*
X141833600Y-89464728D01*
X142015345Y-90378423D01*
X142532912Y-91153016D01*
X143307505Y-91670583D01*
X144221200Y-91852328D01*
X145134895Y-91670583D01*
X145909488Y-91153016D01*
X146427055Y-90378423D01*
X146608800Y-89464728D01*
X146608800Y-88335272D01*
X146427055Y-87421577D01*
X145909488Y-86646984D01*
X145134895Y-86129417D01*
X144221200Y-85947672D01*
X143307505Y-86129417D01*
X142532912Y-86646984D01*
X142015345Y-87421577D01*
X141833600Y-88335272D01*
X119563771Y-88335272D01*
X119563771Y-86474300D01*
X119540115Y-86355373D01*
X119472748Y-86254552D01*
X119371927Y-86187185D01*
X119253000Y-86163529D01*
X118237000Y-86163529D01*
X118118073Y-86187185D01*
X118017252Y-86254552D01*
X117949885Y-86355373D01*
X117926229Y-86474300D01*
X117926229Y-90970100D01*
X117949885Y-91089027D01*
X118017252Y-91189848D01*
X118118073Y-91257215D01*
X118237000Y-91280871D01*
X118237000Y-92781182D01*
X117990658Y-92945782D01*
X117759405Y-93291877D01*
X117678200Y-93700124D01*
X117271800Y-93700124D01*
X117190595Y-93291877D01*
X116959342Y-92945782D01*
X116713000Y-92781182D01*
X116713000Y-91280871D01*
X116831927Y-91257215D01*
X116932748Y-91189848D01*
X117000115Y-91089027D01*
X117023771Y-90970100D01*
X117023771Y-86474300D01*
X117000115Y-86355373D01*
X116932748Y-86254552D01*
X116831927Y-86187185D01*
X116713000Y-86163529D01*
X115697000Y-86163529D01*
X115578073Y-86187185D01*
X115477252Y-86254552D01*
X115409885Y-86355373D01*
X115386229Y-86474300D01*
X115386229Y-90970100D01*
X115409885Y-91089027D01*
X115477252Y-91189848D01*
X115578073Y-91257215D01*
X115697000Y-91280871D01*
X115697000Y-92781182D01*
X115450658Y-92945782D01*
X115219405Y-93291877D01*
X115138200Y-93700124D01*
X115138200Y-94259876D01*
X115182771Y-94483951D01*
X114731800Y-94032980D01*
X114731800Y-93700124D01*
X114650595Y-93291877D01*
X114419342Y-92945782D01*
X114173000Y-92781182D01*
X114173000Y-91280871D01*
X114291927Y-91257215D01*
X114392748Y-91189848D01*
X114460115Y-91089027D01*
X114483771Y-90970100D01*
X114483771Y-86474300D01*
X114460115Y-86355373D01*
X114392748Y-86254552D01*
X114291927Y-86187185D01*
X114173000Y-86163529D01*
X113157000Y-86163529D01*
X113038073Y-86187185D01*
X112937252Y-86254552D01*
X112869885Y-86355373D01*
X112846229Y-86474300D01*
X112846229Y-90970100D01*
X112869885Y-91089027D01*
X112937252Y-91189848D01*
X113038073Y-91257215D01*
X113157000Y-91280871D01*
X113157000Y-92781182D01*
X112910658Y-92945782D01*
X112679405Y-93291877D01*
X112605362Y-93664119D01*
X112576410Y-93620790D01*
X112411603Y-93510669D01*
X112217200Y-93472000D01*
X112146424Y-93472000D01*
X112110595Y-93291877D01*
X111879342Y-92945782D01*
X111633000Y-92781182D01*
X111633000Y-91280871D01*
X111751927Y-91257215D01*
X111852748Y-91189848D01*
X111920115Y-91089027D01*
X111943771Y-90970100D01*
X111943771Y-86474300D01*
X111920115Y-86355373D01*
X111852748Y-86254552D01*
X111751927Y-86187185D01*
X111633000Y-86163529D01*
X110617000Y-86163529D01*
X110498073Y-86187185D01*
X110397252Y-86254552D01*
X110329885Y-86355373D01*
X110306229Y-86474300D01*
X110306229Y-90970100D01*
X110329885Y-91089027D01*
X110397252Y-91189848D01*
X110498073Y-91257215D01*
X110617000Y-91280871D01*
X110617000Y-92781182D01*
X110370658Y-92945782D01*
X110139405Y-93291877D01*
X110058200Y-93700124D01*
X110058200Y-94259876D01*
X110139405Y-94668123D01*
X110370658Y-95014218D01*
X110716753Y-95245471D01*
X111125000Y-95326676D01*
X111533247Y-95245471D01*
X111879342Y-95014218D01*
X111977097Y-94867917D01*
X114984390Y-97875210D01*
X115149196Y-97985331D01*
X115181450Y-97991746D01*
X115343600Y-98024000D01*
X115391261Y-98024000D01*
X115172472Y-98351442D01*
X115162893Y-98399600D01*
X114707107Y-98399600D01*
X114697528Y-98351442D01*
X114455263Y-97988866D01*
X114092687Y-97746601D01*
X113665000Y-97661529D01*
X113237313Y-97746601D01*
X112874737Y-97988866D01*
X112632472Y-98351442D01*
X112622893Y-98399600D01*
X112167107Y-98399600D01*
X112157528Y-98351442D01*
X111915263Y-97988866D01*
X111552687Y-97746601D01*
X111125000Y-97661529D01*
X110697313Y-97746601D01*
X110334737Y-97988866D01*
X110092472Y-98351442D01*
X110082893Y-98399600D01*
X109627107Y-98399600D01*
X109617528Y-98351442D01*
X109375263Y-97988866D01*
X109012687Y-97746601D01*
X108585000Y-97661529D01*
X108157313Y-97746601D01*
X107794737Y-97988866D01*
X107552472Y-98351442D01*
X107542893Y-98399600D01*
X107087107Y-98399600D01*
X107077528Y-98351442D01*
X106835263Y-97988866D01*
X106472687Y-97746601D01*
X106045000Y-97661529D01*
X105617313Y-97746601D01*
X105254737Y-97988866D01*
X105012472Y-98351442D01*
X105002893Y-98399600D01*
X104547107Y-98399600D01*
X104537528Y-98351442D01*
X104295263Y-97988866D01*
X103932687Y-97746601D01*
X103505000Y-97661529D01*
X103077313Y-97746601D01*
X102714737Y-97988866D01*
X102472472Y-98351442D01*
X102462893Y-98399600D01*
X102007107Y-98399600D01*
X101997528Y-98351442D01*
X101755263Y-97988866D01*
X101392687Y-97746601D01*
X100965000Y-97661529D01*
X100537313Y-97746601D01*
X100174737Y-97988866D01*
X99932472Y-98351442D01*
X99847400Y-98779129D01*
X86144100Y-98779129D01*
X86144100Y-93700124D01*
X99898200Y-93700124D01*
X99898200Y-94259876D01*
X99979405Y-94668123D01*
X100210658Y-95014218D01*
X100556753Y-95245471D01*
X100965000Y-95326676D01*
X101373247Y-95245471D01*
X101719342Y-95014218D01*
X101950595Y-94668123D01*
X102031800Y-94259876D01*
X102031800Y-93700124D01*
X102438200Y-93700124D01*
X102438200Y-94259876D01*
X102519405Y-94668123D01*
X102750658Y-95014218D01*
X103096753Y-95245471D01*
X103505000Y-95326676D01*
X103913247Y-95245471D01*
X104259342Y-95014218D01*
X104490595Y-94668123D01*
X104571800Y-94259876D01*
X104571800Y-93700124D01*
X104978200Y-93700124D01*
X104978200Y-94259876D01*
X105059405Y-94668123D01*
X105290658Y-95014218D01*
X105636753Y-95245471D01*
X106045000Y-95326676D01*
X106453247Y-95245471D01*
X106799342Y-95014218D01*
X107030595Y-94668123D01*
X107111800Y-94259876D01*
X107111800Y-93700124D01*
X107518200Y-93700124D01*
X107518200Y-94259876D01*
X107599405Y-94668123D01*
X107830658Y-95014218D01*
X108176753Y-95245471D01*
X108585000Y-95326676D01*
X108993247Y-95245471D01*
X109339342Y-95014218D01*
X109570595Y-94668123D01*
X109651800Y-94259876D01*
X109651800Y-93700124D01*
X109570595Y-93291877D01*
X109339342Y-92945782D01*
X109093000Y-92781182D01*
X109093000Y-91280871D01*
X109211927Y-91257215D01*
X109312748Y-91189848D01*
X109380115Y-91089027D01*
X109403771Y-90970100D01*
X109403771Y-86474300D01*
X109380115Y-86355373D01*
X109312748Y-86254552D01*
X109211927Y-86187185D01*
X109093000Y-86163529D01*
X108077000Y-86163529D01*
X107958073Y-86187185D01*
X107857252Y-86254552D01*
X107789885Y-86355373D01*
X107766229Y-86474300D01*
X107766229Y-90970100D01*
X107789885Y-91089027D01*
X107857252Y-91189848D01*
X107958073Y-91257215D01*
X108077000Y-91280871D01*
X108077000Y-92781182D01*
X107830658Y-92945782D01*
X107599405Y-93291877D01*
X107518200Y-93700124D01*
X107111800Y-93700124D01*
X107030595Y-93291877D01*
X106799342Y-92945782D01*
X106553000Y-92781182D01*
X106553000Y-91280871D01*
X106671927Y-91257215D01*
X106772748Y-91189848D01*
X106840115Y-91089027D01*
X106863771Y-90970100D01*
X106863771Y-86474300D01*
X106840115Y-86355373D01*
X106772748Y-86254552D01*
X106671927Y-86187185D01*
X106553000Y-86163529D01*
X105537000Y-86163529D01*
X105418073Y-86187185D01*
X105317252Y-86254552D01*
X105249885Y-86355373D01*
X105226229Y-86474300D01*
X105226229Y-90970100D01*
X105249885Y-91089027D01*
X105317252Y-91189848D01*
X105418073Y-91257215D01*
X105537000Y-91280871D01*
X105537000Y-92781182D01*
X105290658Y-92945782D01*
X105059405Y-93291877D01*
X104978200Y-93700124D01*
X104571800Y-93700124D01*
X104490595Y-93291877D01*
X104259342Y-92945782D01*
X104013000Y-92781182D01*
X104013000Y-91280871D01*
X104131927Y-91257215D01*
X104232748Y-91189848D01*
X104300115Y-91089027D01*
X104323771Y-90970100D01*
X104323771Y-86474300D01*
X104300115Y-86355373D01*
X104232748Y-86254552D01*
X104131927Y-86187185D01*
X104013000Y-86163529D01*
X102997000Y-86163529D01*
X102878073Y-86187185D01*
X102777252Y-86254552D01*
X102709885Y-86355373D01*
X102686229Y-86474300D01*
X102686229Y-90970100D01*
X102709885Y-91089027D01*
X102777252Y-91189848D01*
X102878073Y-91257215D01*
X102997000Y-91280871D01*
X102997000Y-92781182D01*
X102750658Y-92945782D01*
X102519405Y-93291877D01*
X102438200Y-93700124D01*
X102031800Y-93700124D01*
X101950595Y-93291877D01*
X101719342Y-92945782D01*
X101473000Y-92781182D01*
X101473000Y-91280871D01*
X101591927Y-91257215D01*
X101692748Y-91189848D01*
X101760115Y-91089027D01*
X101783771Y-90970100D01*
X101783771Y-86474300D01*
X101760115Y-86355373D01*
X101692748Y-86254552D01*
X101591927Y-86187185D01*
X101473000Y-86163529D01*
X100457000Y-86163529D01*
X100338073Y-86187185D01*
X100237252Y-86254552D01*
X100169885Y-86355373D01*
X100146229Y-86474300D01*
X100146229Y-90970100D01*
X100169885Y-91089027D01*
X100237252Y-91189848D01*
X100338073Y-91257215D01*
X100457000Y-91280871D01*
X100457000Y-92781182D01*
X100210658Y-92945782D01*
X99979405Y-93291877D01*
X99898200Y-93700124D01*
X86144100Y-93700124D01*
X86144100Y-83032600D01*
X99847400Y-83032600D01*
X99847400Y-85096957D01*
X99940206Y-85321011D01*
X100111689Y-85492494D01*
X100335743Y-85585300D01*
X100660200Y-85585300D01*
X100812600Y-85432900D01*
X100812600Y-82880200D01*
X101117400Y-82880200D01*
X101117400Y-85432900D01*
X101269800Y-85585300D01*
X101594257Y-85585300D01*
X101818311Y-85492494D01*
X101989794Y-85321011D01*
X102082600Y-85096957D01*
X102082600Y-83032600D01*
X102387400Y-83032600D01*
X102387400Y-85096957D01*
X102480206Y-85321011D01*
X102651689Y-85492494D01*
X102875743Y-85585300D01*
X103200200Y-85585300D01*
X103352600Y-85432900D01*
X103352600Y-82880200D01*
X103657400Y-82880200D01*
X103657400Y-85432900D01*
X103809800Y-85585300D01*
X104134257Y-85585300D01*
X104358311Y-85492494D01*
X104529794Y-85321011D01*
X104622600Y-85096957D01*
X104622600Y-83032600D01*
X104927400Y-83032600D01*
X104927400Y-85096957D01*
X105020206Y-85321011D01*
X105191689Y-85492494D01*
X105415743Y-85585300D01*
X105740200Y-85585300D01*
X105892600Y-85432900D01*
X105892600Y-82880200D01*
X106197400Y-82880200D01*
X106197400Y-85432900D01*
X106349800Y-85585300D01*
X106674257Y-85585300D01*
X106898311Y-85492494D01*
X107069794Y-85321011D01*
X107162600Y-85096957D01*
X107162600Y-83032600D01*
X107467400Y-83032600D01*
X107467400Y-85096957D01*
X107560206Y-85321011D01*
X107731689Y-85492494D01*
X107955743Y-85585300D01*
X108280200Y-85585300D01*
X108432600Y-85432900D01*
X108432600Y-82880200D01*
X108737400Y-82880200D01*
X108737400Y-85432900D01*
X108889800Y-85585300D01*
X109214257Y-85585300D01*
X109438311Y-85492494D01*
X109609794Y-85321011D01*
X109702600Y-85096957D01*
X109702600Y-83032600D01*
X110007400Y-83032600D01*
X110007400Y-85096957D01*
X110100206Y-85321011D01*
X110271689Y-85492494D01*
X110495743Y-85585300D01*
X110820200Y-85585300D01*
X110972600Y-85432900D01*
X110972600Y-82880200D01*
X111277400Y-82880200D01*
X111277400Y-85432900D01*
X111429800Y-85585300D01*
X111754257Y-85585300D01*
X111978311Y-85492494D01*
X112149794Y-85321011D01*
X112242600Y-85096957D01*
X112242600Y-83032600D01*
X112547400Y-83032600D01*
X112547400Y-85096957D01*
X112640206Y-85321011D01*
X112811689Y-85492494D01*
X113035743Y-85585300D01*
X113360200Y-85585300D01*
X113512600Y-85432900D01*
X113512600Y-82880200D01*
X113817400Y-82880200D01*
X113817400Y-85432900D01*
X113969800Y-85585300D01*
X114294257Y-85585300D01*
X114518311Y-85492494D01*
X114689794Y-85321011D01*
X114782600Y-85096957D01*
X114782600Y-83032600D01*
X115087400Y-83032600D01*
X115087400Y-85096957D01*
X115180206Y-85321011D01*
X115351689Y-85492494D01*
X115575743Y-85585300D01*
X115900200Y-85585300D01*
X116052600Y-85432900D01*
X116052600Y-82880200D01*
X116357400Y-82880200D01*
X116357400Y-85432900D01*
X116509800Y-85585300D01*
X116834257Y-85585300D01*
X117058311Y-85492494D01*
X117229794Y-85321011D01*
X117322600Y-85096957D01*
X117322600Y-83032600D01*
X117627400Y-83032600D01*
X117627400Y-85096957D01*
X117720206Y-85321011D01*
X117891689Y-85492494D01*
X118115743Y-85585300D01*
X118440200Y-85585300D01*
X118592600Y-85432900D01*
X118592600Y-82880200D01*
X118897400Y-82880200D01*
X118897400Y-85432900D01*
X119049800Y-85585300D01*
X119374257Y-85585300D01*
X119598311Y-85492494D01*
X119769794Y-85321011D01*
X119862600Y-85096957D01*
X119862600Y-83032600D01*
X119710200Y-82880200D01*
X118897400Y-82880200D01*
X118592600Y-82880200D01*
X117779800Y-82880200D01*
X117627400Y-83032600D01*
X117322600Y-83032600D01*
X117170200Y-82880200D01*
X116357400Y-82880200D01*
X116052600Y-82880200D01*
X115239800Y-82880200D01*
X115087400Y-83032600D01*
X114782600Y-83032600D01*
X114630200Y-82880200D01*
X113817400Y-82880200D01*
X113512600Y-82880200D01*
X112699800Y-82880200D01*
X112547400Y-83032600D01*
X112242600Y-83032600D01*
X112090200Y-82880200D01*
X111277400Y-82880200D01*
X110972600Y-82880200D01*
X110159800Y-82880200D01*
X110007400Y-83032600D01*
X109702600Y-83032600D01*
X109550200Y-82880200D01*
X108737400Y-82880200D01*
X108432600Y-82880200D01*
X107619800Y-82880200D01*
X107467400Y-83032600D01*
X107162600Y-83032600D01*
X107010200Y-82880200D01*
X106197400Y-82880200D01*
X105892600Y-82880200D01*
X105079800Y-82880200D01*
X104927400Y-83032600D01*
X104622600Y-83032600D01*
X104470200Y-82880200D01*
X103657400Y-82880200D01*
X103352600Y-82880200D01*
X102539800Y-82880200D01*
X102387400Y-83032600D01*
X102082600Y-83032600D01*
X101930200Y-82880200D01*
X101117400Y-82880200D01*
X100812600Y-82880200D01*
X99999800Y-82880200D01*
X99847400Y-83032600D01*
X86144100Y-83032600D01*
X86144100Y-80358643D01*
X99847400Y-80358643D01*
X99847400Y-82423000D01*
X99999800Y-82575400D01*
X100812600Y-82575400D01*
X100812600Y-80022700D01*
X101117400Y-80022700D01*
X101117400Y-82575400D01*
X101930200Y-82575400D01*
X102082600Y-82423000D01*
X102082600Y-80358643D01*
X102387400Y-80358643D01*
X102387400Y-82423000D01*
X102539800Y-82575400D01*
X103352600Y-82575400D01*
X103352600Y-80022700D01*
X103657400Y-80022700D01*
X103657400Y-82575400D01*
X104470200Y-82575400D01*
X104622600Y-82423000D01*
X104622600Y-80358643D01*
X104529794Y-80134589D01*
X104358311Y-79963106D01*
X104134257Y-79870300D01*
X103809800Y-79870300D01*
X103657400Y-80022700D01*
X103352600Y-80022700D01*
X103200200Y-79870300D01*
X102875743Y-79870300D01*
X102651689Y-79963106D01*
X102480206Y-80134589D01*
X102387400Y-80358643D01*
X102082600Y-80358643D01*
X101989794Y-80134589D01*
X101818311Y-79963106D01*
X101594257Y-79870300D01*
X101269800Y-79870300D01*
X101117400Y-80022700D01*
X100812600Y-80022700D01*
X100660200Y-79870300D01*
X100335743Y-79870300D01*
X100111689Y-79963106D01*
X99940206Y-80134589D01*
X99847400Y-80358643D01*
X86144100Y-80358643D01*
X86144100Y-76612477D01*
X87451840Y-76612477D01*
X87768259Y-77378270D01*
X88353648Y-77964682D01*
X89118888Y-78282437D01*
X89947477Y-78283160D01*
X90713270Y-77966741D01*
X91299682Y-77381352D01*
X91617437Y-76616112D01*
X91618160Y-75787523D01*
X91301741Y-75021730D01*
X90716352Y-74435318D01*
X89951112Y-74117563D01*
X89122523Y-74116840D01*
X88356730Y-74433259D01*
X87770318Y-75018648D01*
X87452563Y-75783888D01*
X87451840Y-76612477D01*
X86144100Y-76612477D01*
X86144100Y-71424800D01*
X86728300Y-71424800D01*
X86728300Y-72511257D01*
X86821106Y-72735311D01*
X86992589Y-72906794D01*
X87216643Y-72999600D01*
X87960200Y-72999600D01*
X88112600Y-72847200D01*
X88112600Y-71272400D01*
X86880700Y-71272400D01*
X86728300Y-71424800D01*
X86144100Y-71424800D01*
X86144100Y-69728743D01*
X86728300Y-69728743D01*
X86728300Y-70815200D01*
X86880700Y-70967600D01*
X88112600Y-70967600D01*
X88112600Y-69392800D01*
X88417400Y-69392800D01*
X88417400Y-70967600D01*
X88437400Y-70967600D01*
X88437400Y-71272400D01*
X88417400Y-71272400D01*
X88417400Y-72847200D01*
X88569800Y-72999600D01*
X89313357Y-72999600D01*
X89537411Y-72906794D01*
X89708894Y-72735311D01*
X89801700Y-72511257D01*
X89801700Y-72166963D01*
X89933915Y-72364837D01*
X90333572Y-72631879D01*
X90805000Y-72725652D01*
X91276428Y-72631879D01*
X91676085Y-72364837D01*
X91943127Y-71965180D01*
X92010196Y-71628000D01*
X92062300Y-71628000D01*
X92136854Y-71613170D01*
X92206873Y-71965180D01*
X92473915Y-72364837D01*
X92873572Y-72631879D01*
X93345000Y-72725652D01*
X93816428Y-72631879D01*
X94216085Y-72364837D01*
X94483127Y-71965180D01*
X94576900Y-71493752D01*
X94576900Y-70746248D01*
X94483127Y-70274820D01*
X94317539Y-70027000D01*
X94912461Y-70027000D01*
X94746873Y-70274820D01*
X94653100Y-70746248D01*
X94653100Y-71493752D01*
X94746873Y-71965180D01*
X95013915Y-72364837D01*
X95413572Y-72631879D01*
X95885000Y-72725652D01*
X96356428Y-72631879D01*
X96756085Y-72364837D01*
X96799357Y-72300077D01*
X104832390Y-80333110D01*
X104927400Y-80396594D01*
X104927400Y-82423000D01*
X105079800Y-82575400D01*
X105892600Y-82575400D01*
X105892600Y-82555400D01*
X106197400Y-82555400D01*
X106197400Y-82575400D01*
X107010200Y-82575400D01*
X107162600Y-82423000D01*
X107162600Y-80481900D01*
X107467400Y-80481900D01*
X107467400Y-82423000D01*
X107619800Y-82575400D01*
X108432600Y-82575400D01*
X108432600Y-82555400D01*
X108737400Y-82555400D01*
X108737400Y-82575400D01*
X109550200Y-82575400D01*
X109702600Y-82423000D01*
X109702600Y-80481900D01*
X110007400Y-80481900D01*
X110007400Y-82423000D01*
X110159800Y-82575400D01*
X110972600Y-82575400D01*
X110972600Y-82555400D01*
X111277400Y-82555400D01*
X111277400Y-82575400D01*
X112090200Y-82575400D01*
X112242600Y-82423000D01*
X112242600Y-80481900D01*
X112547400Y-80481900D01*
X112547400Y-82423000D01*
X112699800Y-82575400D01*
X113512600Y-82575400D01*
X113512600Y-82555400D01*
X113817400Y-82555400D01*
X113817400Y-82575400D01*
X114630200Y-82575400D01*
X114782600Y-82423000D01*
X114782600Y-80481900D01*
X115087400Y-80481900D01*
X115087400Y-82423000D01*
X115239800Y-82575400D01*
X116052600Y-82575400D01*
X116052600Y-82555400D01*
X116357400Y-82555400D01*
X116357400Y-82575400D01*
X117170200Y-82575400D01*
X117322600Y-82423000D01*
X117322600Y-80481900D01*
X117627400Y-80481900D01*
X117627400Y-82423000D01*
X117779800Y-82575400D01*
X118592600Y-82575400D01*
X118592600Y-82555400D01*
X118897400Y-82555400D01*
X118897400Y-82575400D01*
X119710200Y-82575400D01*
X119862600Y-82423000D01*
X119862600Y-80481900D01*
X131473080Y-80481900D01*
X134658126Y-83666946D01*
X134657970Y-83846191D01*
X134771804Y-84121690D01*
X134982401Y-84332656D01*
X135257701Y-84446970D01*
X135555791Y-84447230D01*
X135831290Y-84333396D01*
X135959110Y-84205800D01*
X144802980Y-84205800D01*
X147748190Y-87151010D01*
X147912997Y-87261131D01*
X147921998Y-87262921D01*
X147676081Y-87427238D01*
X147224587Y-88102947D01*
X147066043Y-88900000D01*
X147224587Y-89697053D01*
X147676081Y-90372762D01*
X148351790Y-90824256D01*
X149148843Y-90982800D01*
X150266357Y-90982800D01*
X151063410Y-90824256D01*
X151739119Y-90372762D01*
X152190613Y-89697053D01*
X152194495Y-89677538D01*
X152492463Y-89976026D01*
X152959073Y-90169779D01*
X153464310Y-90170220D01*
X153931258Y-89977282D01*
X154288826Y-89620337D01*
X154482579Y-89153727D01*
X154483020Y-88648490D01*
X154290082Y-88181542D01*
X153933137Y-87823974D01*
X153466527Y-87630221D01*
X152961290Y-87629780D01*
X152494342Y-87822718D01*
X152194425Y-88122112D01*
X152190613Y-88102947D01*
X151739119Y-87427238D01*
X151063410Y-86975744D01*
X150723600Y-86908151D01*
X150723600Y-86791800D01*
X150684931Y-86597397D01*
X150611166Y-86487000D01*
X152023933Y-86487000D01*
X152820986Y-86328456D01*
X153496695Y-85876962D01*
X153948189Y-85201253D01*
X154106733Y-84404200D01*
X153948189Y-83607147D01*
X153496695Y-82931438D01*
X152820986Y-82479944D01*
X152023933Y-82321400D01*
X150388467Y-82321400D01*
X149591414Y-82479944D01*
X148915705Y-82931438D01*
X148464211Y-83607147D01*
X148305667Y-84404200D01*
X148464211Y-85201253D01*
X148915705Y-85876962D01*
X149524582Y-86283800D01*
X148317820Y-86283800D01*
X145372610Y-83338590D01*
X145207803Y-83228469D01*
X145013400Y-83189800D01*
X135959033Y-83189800D01*
X135832399Y-83062944D01*
X135557099Y-82948630D01*
X135376492Y-82948472D01*
X132042710Y-79614690D01*
X131877903Y-79504569D01*
X131683500Y-79465900D01*
X105402020Y-79465900D01*
X98622489Y-72686369D01*
X98896428Y-72631879D01*
X99296085Y-72364837D01*
X99316846Y-72333766D01*
X99323090Y-72343110D01*
X101165390Y-74185410D01*
X101330197Y-74295531D01*
X101524600Y-74334200D01*
X127321467Y-74334200D01*
X127448101Y-74461056D01*
X127723401Y-74575370D01*
X128021491Y-74575630D01*
X128296990Y-74461796D01*
X128507956Y-74251199D01*
X128622270Y-73975899D01*
X128622530Y-73677809D01*
X128508696Y-73402310D01*
X128298099Y-73191344D01*
X128022799Y-73077030D01*
X127724709Y-73076770D01*
X127449210Y-73190604D01*
X127321390Y-73318200D01*
X101735020Y-73318200D01*
X101113027Y-72696207D01*
X101436428Y-72631879D01*
X101836085Y-72364837D01*
X102103127Y-71965180D01*
X102196900Y-71493752D01*
X102196900Y-70746248D01*
X102273100Y-70746248D01*
X102273100Y-71493752D01*
X102366873Y-71965180D01*
X102633915Y-72364837D01*
X103033572Y-72631879D01*
X103505000Y-72725652D01*
X103976428Y-72631879D01*
X104376085Y-72364837D01*
X104643127Y-71965180D01*
X104736900Y-71493752D01*
X104736900Y-70746248D01*
X104813100Y-70746248D01*
X104813100Y-71493752D01*
X104906873Y-71965180D01*
X105173915Y-72364837D01*
X105573572Y-72631879D01*
X106045000Y-72725652D01*
X106516428Y-72631879D01*
X106916085Y-72364837D01*
X107183127Y-71965180D01*
X107276900Y-71493752D01*
X107276900Y-70746248D01*
X107353100Y-70746248D01*
X107353100Y-71493752D01*
X107446873Y-71965180D01*
X107713915Y-72364837D01*
X108113572Y-72631879D01*
X108585000Y-72725652D01*
X109056428Y-72631879D01*
X109456085Y-72364837D01*
X109723127Y-71965180D01*
X109816900Y-71493752D01*
X109816900Y-70746248D01*
X109893100Y-70746248D01*
X109893100Y-71493752D01*
X109986873Y-71965180D01*
X110253915Y-72364837D01*
X110653572Y-72631879D01*
X111125000Y-72725652D01*
X111596428Y-72631879D01*
X111996085Y-72364837D01*
X112263127Y-71965180D01*
X112356900Y-71493752D01*
X112356900Y-70746248D01*
X112433100Y-70746248D01*
X112433100Y-71493752D01*
X112526873Y-71965180D01*
X112793915Y-72364837D01*
X113193572Y-72631879D01*
X113665000Y-72725652D01*
X114136428Y-72631879D01*
X114536085Y-72364837D01*
X114803127Y-71965180D01*
X114896900Y-71493752D01*
X114896900Y-70746248D01*
X114973100Y-70746248D01*
X114973100Y-71493752D01*
X115066873Y-71965180D01*
X115333915Y-72364837D01*
X115733572Y-72631879D01*
X116205000Y-72725652D01*
X116676428Y-72631879D01*
X117076085Y-72364837D01*
X117343127Y-71965180D01*
X117436900Y-71493752D01*
X117436900Y-70746248D01*
X117513100Y-70746248D01*
X117513100Y-71493752D01*
X117606873Y-71965180D01*
X117873915Y-72364837D01*
X118273572Y-72631879D01*
X118745000Y-72725652D01*
X119216428Y-72631879D01*
X119616085Y-72364837D01*
X119883127Y-71965180D01*
X119976900Y-71493752D01*
X119976900Y-70746248D01*
X120053100Y-70746248D01*
X120053100Y-71493752D01*
X120146873Y-71965180D01*
X120413915Y-72364837D01*
X120813572Y-72631879D01*
X121285000Y-72725652D01*
X121756428Y-72631879D01*
X122156085Y-72364837D01*
X122423127Y-71965180D01*
X122516900Y-71493752D01*
X122516900Y-70746248D01*
X122593100Y-70746248D01*
X122593100Y-71493752D01*
X122686873Y-71965180D01*
X122953915Y-72364837D01*
X123353572Y-72631879D01*
X123825000Y-72725652D01*
X124296428Y-72631879D01*
X124696085Y-72364837D01*
X124963127Y-71965180D01*
X125056900Y-71493752D01*
X125056900Y-70746248D01*
X125133100Y-70746248D01*
X125133100Y-71493752D01*
X125226873Y-71965180D01*
X125493915Y-72364837D01*
X125893572Y-72631879D01*
X126365000Y-72725652D01*
X126836428Y-72631879D01*
X127236085Y-72364837D01*
X127503127Y-71965180D01*
X127589197Y-71532477D01*
X128091840Y-71532477D01*
X128408259Y-72298270D01*
X128993648Y-72884682D01*
X129758888Y-73202437D01*
X130587477Y-73203160D01*
X131353270Y-72886741D01*
X131939682Y-72301352D01*
X132257437Y-71536112D01*
X132258160Y-70707523D01*
X131941741Y-69941730D01*
X131356352Y-69355318D01*
X130591112Y-69037563D01*
X129762523Y-69036840D01*
X128996730Y-69353259D01*
X128410318Y-69938648D01*
X128092563Y-70703888D01*
X128091840Y-71532477D01*
X127589197Y-71532477D01*
X127596900Y-71493752D01*
X127596900Y-70746248D01*
X127503127Y-70274820D01*
X127236085Y-69875163D01*
X126836428Y-69608121D01*
X126365000Y-69514348D01*
X125893572Y-69608121D01*
X125493915Y-69875163D01*
X125226873Y-70274820D01*
X125133100Y-70746248D01*
X125056900Y-70746248D01*
X124963127Y-70274820D01*
X124696085Y-69875163D01*
X124296428Y-69608121D01*
X123825000Y-69514348D01*
X123353572Y-69608121D01*
X122953915Y-69875163D01*
X122686873Y-70274820D01*
X122593100Y-70746248D01*
X122516900Y-70746248D01*
X122423127Y-70274820D01*
X122156085Y-69875163D01*
X121756428Y-69608121D01*
X121285000Y-69514348D01*
X120813572Y-69608121D01*
X120413915Y-69875163D01*
X120146873Y-70274820D01*
X120053100Y-70746248D01*
X119976900Y-70746248D01*
X119883127Y-70274820D01*
X119616085Y-69875163D01*
X119216428Y-69608121D01*
X118745000Y-69514348D01*
X118273572Y-69608121D01*
X117873915Y-69875163D01*
X117606873Y-70274820D01*
X117513100Y-70746248D01*
X117436900Y-70746248D01*
X117343127Y-70274820D01*
X117076085Y-69875163D01*
X116676428Y-69608121D01*
X116205000Y-69514348D01*
X115733572Y-69608121D01*
X115333915Y-69875163D01*
X115066873Y-70274820D01*
X114973100Y-70746248D01*
X114896900Y-70746248D01*
X114803127Y-70274820D01*
X114536085Y-69875163D01*
X114136428Y-69608121D01*
X113665000Y-69514348D01*
X113193572Y-69608121D01*
X112793915Y-69875163D01*
X112526873Y-70274820D01*
X112433100Y-70746248D01*
X112356900Y-70746248D01*
X112263127Y-70274820D01*
X111996085Y-69875163D01*
X111596428Y-69608121D01*
X111125000Y-69514348D01*
X110653572Y-69608121D01*
X110253915Y-69875163D01*
X109986873Y-70274820D01*
X109893100Y-70746248D01*
X109816900Y-70746248D01*
X109723127Y-70274820D01*
X109456085Y-69875163D01*
X109056428Y-69608121D01*
X108585000Y-69514348D01*
X108113572Y-69608121D01*
X107713915Y-69875163D01*
X107446873Y-70274820D01*
X107353100Y-70746248D01*
X107276900Y-70746248D01*
X107183127Y-70274820D01*
X106916085Y-69875163D01*
X106516428Y-69608121D01*
X106045000Y-69514348D01*
X105573572Y-69608121D01*
X105173915Y-69875163D01*
X104906873Y-70274820D01*
X104813100Y-70746248D01*
X104736900Y-70746248D01*
X104643127Y-70274820D01*
X104376085Y-69875163D01*
X103976428Y-69608121D01*
X103505000Y-69514348D01*
X103033572Y-69608121D01*
X102633915Y-69875163D01*
X102366873Y-70274820D01*
X102273100Y-70746248D01*
X102196900Y-70746248D01*
X102103127Y-70274820D01*
X101836085Y-69875163D01*
X101436428Y-69608121D01*
X100965000Y-69514348D01*
X100493572Y-69608121D01*
X100093915Y-69875163D01*
X99826873Y-70274820D01*
X99756854Y-70626830D01*
X99682300Y-70612000D01*
X99630196Y-70612000D01*
X99563127Y-70274820D01*
X99296085Y-69875163D01*
X98896428Y-69608121D01*
X98425000Y-69514348D01*
X97953572Y-69608121D01*
X97553915Y-69875163D01*
X97519621Y-69926487D01*
X97514210Y-69918389D01*
X96755610Y-69159790D01*
X96590803Y-69049669D01*
X96396400Y-69011000D01*
X92798900Y-69011000D01*
X92604497Y-69049669D01*
X92439690Y-69159790D01*
X91703090Y-69896390D01*
X91696679Y-69905984D01*
X91676085Y-69875163D01*
X91276428Y-69608121D01*
X90805000Y-69514348D01*
X90333572Y-69608121D01*
X89933915Y-69875163D01*
X89801700Y-70073037D01*
X89801700Y-69728743D01*
X89708894Y-69504689D01*
X89537411Y-69333206D01*
X89313357Y-69240400D01*
X88569800Y-69240400D01*
X88417400Y-69392800D01*
X88112600Y-69392800D01*
X87960200Y-69240400D01*
X87216643Y-69240400D01*
X86992589Y-69333206D01*
X86821106Y-69504689D01*
X86728300Y-69728743D01*
X86144100Y-69728743D01*
X86144100Y-68364100D01*
X155790900Y-68364100D01*
X155790900Y-109435900D01*
M02*
