G04 #@! TF.GenerationSoftware,KiCad,Pcbnew,no-vcs-found-0633d90~59~ubuntu16.04.1*
G04 #@! TF.CreationDate,2017-07-14T14:52:39-04:00*
G04 #@! TF.ProjectId,power_switch_controller_3x2,706F7765725F7377697463685F636F6E,1.1*
G04 #@! TF.SameCoordinates,Original
G04 #@! TF.FileFunction,Soldermask,Top*
G04 #@! TF.FilePolarity,Negative*
%FSLAX46Y46*%
G04 Gerber Fmt 4.6, Leading zero omitted, Abs format (unit mm)*
G04 Created by KiCad (PCBNEW no-vcs-found-0633d90~59~ubuntu16.04.1) date Fri Jul 14 14:52:39 2017*
%MOMM*%
%LPD*%
G01*
G04 APERTURE LIST*
%ADD10C,0.228600*%
%ADD11C,3.556000*%
%ADD12O,1.854200X2.540000*%
%ADD13R,1.854200X2.540000*%
%ADD14O,2.032000X1.524000*%
%ADD15O,1.524000X2.032000*%
%ADD16C,1.930400*%
%ADD17O,4.572000X3.556000*%
%ADD18O,4.064000X5.080000*%
%ADD19O,5.080000X3.556000*%
%ADD20R,1.016000X4.495800*%
%ADD21O,1.651000X2.159000*%
G04 APERTURE END LIST*
D10*
X156210000Y-67945000D02*
X85725000Y-67945000D01*
X156210000Y-109855000D02*
X156210000Y-67945000D01*
X85725000Y-109855000D02*
X156210000Y-109855000D01*
X85725000Y-67945000D02*
X85725000Y-109855000D01*
D11*
X130175000Y-71120000D03*
X130175000Y-106680000D03*
X89535000Y-101600000D03*
X89535000Y-76200000D03*
D12*
X88265000Y-106680000D03*
X90805000Y-106680000D03*
X93345000Y-106680000D03*
X95885000Y-106680000D03*
X98425000Y-106680000D03*
X100965000Y-106680000D03*
X103505000Y-106680000D03*
X106045000Y-106680000D03*
X108585000Y-106680000D03*
X111125000Y-106680000D03*
X113665000Y-106680000D03*
X116205000Y-106680000D03*
X118745000Y-106680000D03*
X121285000Y-106680000D03*
X123825000Y-106680000D03*
X126365000Y-106680000D03*
X126365000Y-71120000D03*
X123825000Y-71120000D03*
X121285000Y-71120000D03*
X118745000Y-71120000D03*
X116205000Y-71120000D03*
X113665000Y-71120000D03*
X111125000Y-71120000D03*
X108585000Y-71120000D03*
X106045000Y-71120000D03*
X103505000Y-71120000D03*
X100965000Y-71120000D03*
X98425000Y-71120000D03*
X95885000Y-71120000D03*
D13*
X88265000Y-71120000D03*
D12*
X93345000Y-71120000D03*
X90805000Y-71120000D03*
D14*
X146685000Y-104775000D03*
X151765000Y-104775000D03*
D15*
X118745000Y-90805000D03*
X118745000Y-95885000D03*
X116205000Y-95885000D03*
X116205000Y-90805000D03*
X113665000Y-90805000D03*
X113665000Y-95885000D03*
X111125000Y-95885000D03*
X111125000Y-90805000D03*
X108585000Y-90805000D03*
X108585000Y-95885000D03*
X106045000Y-95885000D03*
X106045000Y-90805000D03*
X103505000Y-90805000D03*
X103505000Y-95885000D03*
X100965000Y-95885000D03*
X100965000Y-90805000D03*
D16*
X153212800Y-88900000D03*
D17*
X149707600Y-88900000D03*
D18*
X144221200Y-88900000D03*
D19*
X151206200Y-84404200D03*
X151206200Y-93395800D03*
D20*
X118745000Y-80822800D03*
X118745000Y-86817200D03*
X116205000Y-80822800D03*
X116205000Y-86817200D03*
X113665000Y-80822800D03*
X113665000Y-86817200D03*
X111125000Y-80822800D03*
X111125000Y-86817200D03*
X108585000Y-80822800D03*
X108585000Y-86817200D03*
X106045000Y-80822800D03*
X106045000Y-86817200D03*
X103505000Y-80822800D03*
X103505000Y-86817200D03*
X100965000Y-80822800D03*
X100965000Y-86817200D03*
D21*
X151765000Y-99974400D03*
X146685000Y-99974400D03*
M02*
